<svg xmlns="http://www.w3.org/2000/svg" viewBox="204 -660 40.626 36.098">
  <defs>
    <style>
      .cls-1 {
        fill: #f07474;
      }
    </style>
  </defs>
  <g id="PfbGly.tif_1_" transform="translate(204 -660)">
    <g id="Group_202" data-name="Group 202" transform="translate(0 0)">
      <path id="Path_337" data-name="Path 337" class="cls-1" d="M3.61,36.1H2.953a2.962,2.962,0,0,1-1.641-.459A2.785,2.785,0,0,1,.131,33.866,3.841,3.841,0,0,1,0,33.013v-.459c0-.066,0-.066.066-.131a3.8,3.8,0,0,1,.591-1.838c1.05-1.772,2.035-3.479,3.085-5.251,4.135-7.351,8.4-14.7,12.667-21.987.328-.591.722-1.181,1.05-1.772a2.853,2.853,0,0,1,2.1-1.444c.2-.066.459-.066.656-.131h.131c.263.066.591.066.853.131A3.1,3.1,0,0,1,23.1,1.51c.984,1.706,2.035,3.479,3.019,5.185,4.66,7.942,9.254,15.883,13.914,23.825a3.216,3.216,0,0,1,.459,1.247c.066.263.066.525.131.788v.263c0,.066,0,.131-.066.131-.066.263-.066.525-.131.788A2.539,2.539,0,0,1,38,35.9c-.2,0-.394.066-.591.066h-.525c-.2,0-.394-.066-.591-.066H4.266A1.467,1.467,0,0,1,3.61,36.1ZM21.659,23.431a.5.5,0,0,1,.066-.263c.066-.656.2-1.313.263-2.035.131-1.247.328-2.428.525-3.675.131-1.116.328-2.3.525-3.413a6.782,6.782,0,0,0,.131-2.3,2.5,2.5,0,0,0-1.444-2.1,3.848,3.848,0,0,0-2.1-.328,2.648,2.648,0,0,0-2.3,2.166,6.38,6.38,0,0,0,.066,2.232c.263,1.706.459,3.413.722,5.119.2,1.51.394,2.953.591,4.463,0,.131.066.131.2.131h2.757ZM17.13,28.288c.066.2.066.459.131.722a3.157,3.157,0,0,0,4.857,1.575,2.876,2.876,0,0,0,.525-4.266,3.314,3.314,0,0,0-3.675-.788A2.936,2.936,0,0,0,17.13,28.288Z" transform="translate(0 0)"/>
    </g>
  </g>
</svg>
