<svg xmlns="http://www.w3.org/2000/svg" viewBox="521.5 -1318.5 80.87 92.002">
  <defs>
    <style>
      .cls-1 {
        fill: #d7d8d7;
      }

      .cls-2, .cls-5 {
        fill: none;
        stroke-miterlimit: 10;
      }

      .cls-2 {
        stroke: #8e8e8e;
        stroke-width: 1.5px;
      }

      .cls-3 {
        fill: #f8eb79;
      }

      .cls-4 {
        fill: #9fd4ad;
      }

      .cls-5 {
        stroke: #f9b8b8;
      }
    </style>
  </defs>
  <g id="Group_200" data-name="Group 200" transform="translate(521.5 -1318.5)">
    <g id="Group_114" data-name="Group 114" transform="translate(31.878 17.893)">
      <circle id="Ellipse_34" data-name="Ellipse 34" class="cls-1" cx="8.905" cy="8.905" r="8.905" transform="translate(2.226 2.157)"/>
      <circle id="Ellipse_35" data-name="Ellipse 35" class="cls-2" cx="8.905" cy="8.905" r="8.905"/>
    </g>
    <path id="Path_107" data-name="Path 107" class="cls-2" d="M56.19,86.347h-11.2A13.332,13.332,0,0,1,31.7,73.058V33.889A13.332,13.332,0,0,1,44.989,20.6H56.259A13.332,13.332,0,0,1,69.548,33.889v39.17A13.437,13.437,0,0,1,56.19,86.347Z" transform="translate(-9.493 -6.116)"/>
    <g id="Group_115" data-name="Group 115" transform="translate(31.878 58.385)">
      <circle id="Ellipse_36" data-name="Ellipse 36" class="cls-1" cx="8.905" cy="8.905" r="8.905" transform="translate(2.226 2.157)"/>
      <circle id="Ellipse_37" data-name="Ellipse 37" class="cls-2" cx="8.905" cy="8.905" r="8.905"/>
    </g>
    <circle id="Ellipse_38" data-name="Ellipse 38" class="cls-3" cx="8.905" cy="8.905" r="8.905" transform="translate(31.878 40.018)"/>
    <circle id="Ellipse_39" data-name="Ellipse 39" class="cls-2" cx="8.905" cy="8.905" r="8.905" transform="translate(29.999 38.278)"/>
    <g id="Group_116" data-name="Group 116" transform="translate(43.775 1.057)">
      <path id="Path_108" data-name="Path 108" class="cls-4" d="M62.7,4.083V2.97h1.67V1.3h1.044V2.97h1.67V4.013h-1.67v1.67H64.37v-1.6Z" transform="translate(-62.7 -1.3)"/>
    </g>
    <g id="Group_117" data-name="Group 117" transform="translate(3.631 65.83)">
      <path id="Path_109" data-name="Path 109" class="cls-4" d="M5,97.113V96.07H6.67V94.4H7.783v1.67h1.67v1.044H7.783v1.67H6.67v-1.67Z" transform="translate(-5 -94.4)"/>
    </g>
    <g id="Group_118" data-name="Group 118" transform="translate(30.764 86.075)">
      <path id="Path_110" data-name="Path 110" class="cls-4" d="M44,126.213V125.17h1.67V123.5h1.113v1.67h1.67v1.044h-1.67v1.67H45.739v-1.67Z" transform="translate(-44 -123.5)"/>
    </g>
    <g id="Group_119" data-name="Group 119" transform="translate(69.726 49.967)">
      <path id="Path_111" data-name="Path 111" class="cls-4" d="M100,74.313V73.27h1.67V71.6h1.044v1.67h1.67v1.044h-1.6v1.67h-1.044v-1.67Z" transform="translate(-100 -71.6)"/>
    </g>
    <g id="Group_120" data-name="Group 120" transform="translate(11.91 10.449)">
      <path id="Path_112" data-name="Path 112" class="cls-4" d="M16.9,16.818v-.765h1.252V14.8h.765v1.252H20.17v.765H18.918V18.07h-.765V16.818Z" transform="translate(-16.9 -14.8)"/>
    </g>
    <g id="Group_121" data-name="Group 121" transform="translate(0.778 49.549)">
      <path id="Path_113" data-name="Path 113" class="cls-4" d="M.9,72.461V71.9h.9V71h.557v.9h.9v.557h-.9v.9H1.735v-.9H.9Z" transform="translate(-0.9 -71)"/>
    </g>
    <g id="Group_122" data-name="Group 122" transform="translate(78.074 34.661)">
      <path id="Path_114" data-name="Path 114" class="cls-4" d="M112,51.061V50.5h.9v-.9h.557v.9h.9v.557h-.9v.9H112.9v-.9Z" transform="translate(-112 -49.6)"/>
    </g>
    <circle id="Ellipse_40" data-name="Ellipse 40" class="cls-5" cx="2.713" cy="2.713" r="2.713" transform="translate(22.764 0.5)"/>
    <circle id="Ellipse_41" data-name="Ellipse 41" class="cls-5" cx="2.713" cy="2.713" r="2.713" transform="translate(9.266 78.214)"/>
    <circle id="Ellipse_42" data-name="Ellipse 42" class="cls-5" cx="2.018" cy="2.018" r="2.018" transform="translate(0.5 22.416)"/>
    <circle id="Ellipse_43" data-name="Ellipse 43" class="cls-5" cx="2.018" cy="2.018" r="2.018" transform="translate(68.125 76.683)"/>
    <circle id="Ellipse_44" data-name="Ellipse 44" class="cls-5" cx="1.6" cy="1.6" r="1.6" transform="translate(73.413 9.614)"/>
    <circle id="Ellipse_45" data-name="Ellipse 45" class="cls-5" cx="1.6" cy="1.6" r="1.6" transform="translate(77.17 62.351)"/>
    <circle id="Ellipse_46" data-name="Ellipse 46" class="cls-5" cx="1.6" cy="1.6" r="1.6" transform="translate(69.169 28.329)"/>
    <circle id="Ellipse_47" data-name="Ellipse 47" class="cls-5" cx="1.322" cy="1.322" r="1.322" transform="translate(61.725 8.014)"/>
    <circle id="Ellipse_48" data-name="Ellipse 48" class="cls-5" cx="1.322" cy="1.322" r="1.322" transform="translate(51.358 88.858)"/>
    <circle id="Ellipse_49" data-name="Ellipse 49" class="cls-5" cx="1.322" cy="1.322" r="1.322" transform="translate(9.614 35.078)"/>
  </g>
</svg>
