<svg xmlns="http://www.w3.org/2000/svg" viewBox="4429.5 -1318.5 80.87 92.002">
  <defs>
    <style>
      .cls-1, .cls-5 {
        fill: none;
        stroke-miterlimit: 10;
      }

      .cls-1 {
        stroke: #8e8e8e;
        stroke-width: 1.5px;
      }

      .cls-2 {
        fill: #f9b8b8;
      }

      .cls-3 {
        fill: #d7d8d7;
      }

      .cls-4 {
        fill: #9fd4ad;
      }

      .cls-5 {
        stroke: #f9b8b8;
      }
    </style>
  </defs>
  <g id="Group_180" data-name="Group 180" transform="translate(4429.5 -1318.5)">
    <path id="Path_138" data-name="Path 138" class="cls-1" d="M56.19,86.347h-11.2A13.332,13.332,0,0,1,31.7,73.058V33.889A13.332,13.332,0,0,1,44.989,20.6H56.259A13.332,13.332,0,0,1,69.548,33.889v39.17A13.437,13.437,0,0,1,56.19,86.347Z" transform="translate(-9.493 -6.116)"/>
    <circle id="Ellipse_72" data-name="Ellipse 72" class="cls-2" cx="8.905" cy="8.905" r="8.905" transform="translate(34.104 20.05)"/>
    <circle id="Ellipse_73" data-name="Ellipse 73" class="cls-1" cx="8.905" cy="8.905" r="8.905" transform="translate(31.878 17.893)"/>
    <circle id="Ellipse_74" data-name="Ellipse 74" class="cls-3" cx="8.905" cy="8.905" r="8.905" transform="translate(34.104 40.018)"/>
    <circle id="Ellipse_75" data-name="Ellipse 75" class="cls-1" cx="8.905" cy="8.905" r="8.905" transform="translate(31.878 37.861)"/>
    <circle id="Ellipse_76" data-name="Ellipse 76" class="cls-3" cx="8.905" cy="8.905" r="8.905" transform="translate(34.104 60.751)"/>
    <circle id="Ellipse_77" data-name="Ellipse 77" class="cls-1" cx="8.905" cy="8.905" r="8.905" transform="translate(31.878 58.663)"/>
    <g id="Group_173" data-name="Group 173" transform="translate(43.775 1.057)">
      <path id="Path_139" data-name="Path 139" class="cls-4" d="M62.7,4.083V2.97h1.67V1.3h1.044V2.97h1.67V4.013h-1.67v1.67H64.37v-1.6Z" transform="translate(-62.7 -1.3)"/>
    </g>
    <g id="Group_174" data-name="Group 174" transform="translate(3.631 65.83)">
      <path id="Path_140" data-name="Path 140" class="cls-4" d="M5,97.113V96.07H6.67V94.4H7.783v1.67h1.67v1.044H7.783v1.67H6.67v-1.67Z" transform="translate(-5 -94.4)"/>
    </g>
    <g id="Group_175" data-name="Group 175" transform="translate(30.764 86.075)">
      <path id="Path_141" data-name="Path 141" class="cls-4" d="M44,126.213V125.17h1.67V123.5h1.113v1.67h1.67v1.044h-1.67v1.67H45.739v-1.67Z" transform="translate(-44 -123.5)"/>
    </g>
    <g id="Group_176" data-name="Group 176" transform="translate(69.726 49.967)">
      <path id="Path_142" data-name="Path 142" class="cls-4" d="M100,74.313V73.27h1.67V71.6h1.044v1.67h1.67v1.044h-1.6v1.67h-1.044v-1.67Z" transform="translate(-100 -71.6)"/>
    </g>
    <g id="Group_177" data-name="Group 177" transform="translate(11.91 10.449)">
      <path id="Path_143" data-name="Path 143" class="cls-4" d="M16.9,16.818v-.765h1.252V14.8h.765v1.252H20.17v.765H18.918V18.07h-.765V16.818Z" transform="translate(-16.9 -14.8)"/>
    </g>
    <g id="Group_178" data-name="Group 178" transform="translate(0.778 49.549)">
      <path id="Path_144" data-name="Path 144" class="cls-4" d="M.9,72.461V71.9h.9V71h.557v.9h.9v.557h-.9v.9H1.735v-.9H.9Z" transform="translate(-0.9 -71)"/>
    </g>
    <g id="Group_179" data-name="Group 179" transform="translate(78.074 34.661)">
      <path id="Path_145" data-name="Path 145" class="cls-4" d="M112,51.061V50.5h.9v-.9h.557v.9h.9v.557h-.9v.9H112.9v-.9Z" transform="translate(-112 -49.6)"/>
    </g>
    <circle id="Ellipse_78" data-name="Ellipse 78" class="cls-5" cx="2.713" cy="2.713" r="2.713" transform="translate(22.764 0.5)"/>
    <circle id="Ellipse_79" data-name="Ellipse 79" class="cls-5" cx="2.713" cy="2.713" r="2.713" transform="translate(9.266 78.214)"/>
    <circle id="Ellipse_80" data-name="Ellipse 80" class="cls-5" cx="2.018" cy="2.018" r="2.018" transform="translate(0.5 22.416)"/>
    <circle id="Ellipse_81" data-name="Ellipse 81" class="cls-5" cx="2.018" cy="2.018" r="2.018" transform="translate(68.125 76.683)"/>
    <circle id="Ellipse_82" data-name="Ellipse 82" class="cls-5" cx="1.6" cy="1.6" r="1.6" transform="translate(73.413 9.614)"/>
    <circle id="Ellipse_83" data-name="Ellipse 83" class="cls-5" cx="1.6" cy="1.6" r="1.6" transform="translate(77.17 62.351)"/>
    <circle id="Ellipse_84" data-name="Ellipse 84" class="cls-5" cx="1.6" cy="1.6" r="1.6" transform="translate(69.169 28.329)"/>
    <circle id="Ellipse_85" data-name="Ellipse 85" class="cls-5" cx="1.322" cy="1.322" r="1.322" transform="translate(61.725 8.014)"/>
    <circle id="Ellipse_86" data-name="Ellipse 86" class="cls-5" cx="1.322" cy="1.322" r="1.322" transform="translate(51.358 88.858)"/>
    <circle id="Ellipse_87" data-name="Ellipse 87" class="cls-5" cx="1.322" cy="1.322" r="1.322" transform="translate(9.614 35.078)"/>
  </g>
</svg>
