<svg xmlns="http://www.w3.org/2000/svg" viewBox="41 -1349 29.342 49">
  <defs>
    <style>
      .cls-1 {
        fill: #9fd4ad;
      }
    </style>
  </defs>
  <g id="Group_1" data-name="Group 1" transform="translate(41.1 -1349)">
    <path id="Path_91" data-name="Path 91" class="cls-1" d="M0,49c.484-1.356.872-2.615,1.356-3.97a137.576,137.576,0,0,1,9.974-23.338,43.822,43.822,0,0,1,6.488-9.2c.581-.678,1.356-1.259,1.937-1.937-.484.194-.872.291-1.356.484a13.756,13.756,0,0,0-4.455,3.68A45.351,45.351,0,0,0,6.775,26.146C4.936,30.02,3.386,33.893,1.74,37.67c-.1.291-.387.484-.581.775a3.925,3.925,0,0,1-.484-.872c-.194-1.065-.387-2.034-.484-3.1a33.872,33.872,0,0,1,.581-9.393A13.157,13.157,0,0,1,1.837,22.37a2.112,2.112,0,0,1,.387-.484c.387,1.065.775,2.13,1.162,3.292h.1c.1-.387.194-.678.291-1.065.484-2.13.775-4.261,1.356-6.391a15.392,15.392,0,0,1,5.229-8.038,20.491,20.491,0,0,0,1.065,2.034A11.272,11.272,0,0,1,12,10.265a10.505,10.505,0,0,1,5.907-5.617c2.421-.968,4.939-1.743,7.36-2.711A33.828,33.828,0,0,0,28.564.484c.194-.194.291-.387.484-.484h.194c-.194,1.065-.387,2.034-.484,3.1-.291,1.549-.484,3.2-.678,4.745a9.1,9.1,0,0,1-3.874,6.2c-1.162.872-2.421,1.646-3.583,2.518a2.649,2.649,0,0,1-.484.387,34.834,34.834,0,0,0,3.486-.387v.1a3.771,3.771,0,0,0-2.13,2.421,7.642,7.642,0,0,1-4.939,5.229l-.581.291-.1.1a5.923,5.923,0,0,1,3.777,1.259,12.294,12.294,0,0,0-3.389,4.067c-.387.678-.872,1.453-1.259,2.13A9.964,9.964,0,0,1,10.94,35.54c-1.549.872-3,1.743-4.551,2.711a3.986,3.986,0,0,0-1.549,2.034,5.784,5.784,0,0,1-.581,1.065C2.9,43.674,1.546,46.095.191,48.419c-.1.194-.194.291-.291.484" transform="translate(0)"/>
  </g>
</svg>
