<svg xmlns="http://www.w3.org/2000/svg" viewBox="297 7329 327.004 911.92">
  <defs>
    <style>
      .cls-1 {
        fill: #442d1d;
      }

      .cls-2 {
        fill: #efbc90;
      }

      .cls-3 {
        fill: #f5bc8e;
      }

      .cls-4 {
        fill: #422d1e;
      }

      .cls-5 {
        fill: #5a6688;
      }

      .cls-6 {
        fill: #f5dfce;
      }
    </style>
  </defs>
  <g id="Group_183" data-name="Group 183" transform="translate(297.009 7328.998)">
    <path id="Path_183" data-name="Path 183" class="cls-1" d="M143.212,28.255a12.011,12.011,0,0,0-.257-2.956C141.8,21.057,136.4,17.2,131.9,19c-14.653,5.913-11.054,22.108-10.411,34.961.386,7.712.771,15.3,1.414,23.008.514,6.555.771,14.653,3.985,20.437,2.956,5.27,10.026,7.712,15.167,3.728a10.815,10.815,0,0,0,3.727-5.784,8.477,8.477,0,0,0,5.656-7.969c.514-16.967,1.542-33.8,3.213-50.643C155.294,29.926,148.61,26.841,143.212,28.255Z" transform="translate(34.425 5.292)"/>
    <path id="Path_184" data-name="Path 184" class="cls-2" d="M73.764,635.78a6.741,6.741,0,0,0-3.856-7.712c-2.314-5.4-25.064,19.666-26.093,26.864A247.589,247.589,0,0,0,38.8,691.307c-.386,6.3,7.969,8.355,11.954,5.141a12.114,12.114,0,0,0,3.213,2.314c4.37,2.314,4.756-1.157,6.17-5.4,4.627-13.753,13.239-56.17,12.6-57.455C72.865,635.137,73.507,636.551,73.764,635.78Z" transform="translate(11.071 179)"/>
    <path id="Path_185" data-name="Path 185" class="cls-2" d="M182.723,641.469c0-1.928,3.213,1.671,2.185.514-.257-1.671-.386-3.342-.643-5.013-.771-5.141-6.041-6.041-9.9-4.113a7.013,7.013,0,0,0-4.242-1.414c-.129-.128-.257-.386-.386-.514a10.667,10.667,0,0,0-5.141-3.085c-4.113-1.028-9.254,2.057-9,6.812.257,2.7.386,5.4.643,8.1-.514.9,0-8.355,0-7.069,1.157,17.481.386,45.244,5.013,62.082.514,2.057,3.342,3.6,4.884,4.37,2.828,5.27,11.825,6.427,12.982-.771.129-.643.129-1.157.257-1.8a7.306,7.306,0,0,0,6.3-7.069c0-1.671-6.17,4.113-6.17,2.571.386-.9,2.314-4.242,2.314-5.4C181.952,676.944,182.594,654.193,182.723,641.469Z" transform="translate(44.4 179.095)"/>
    <path id="Path_186" data-name="Path 186" class="cls-3" d="M209.8,50.771c-4.242-27.506-38.56-46.658-65.038-22.879C126.384,44.344,126.769,78.92,128.7,93.7c1.671,12.982,7.455,25.707,17.995,33.548,10.668,7.841,30.591,7.455,42.8,1.671C210.7,119.151,213.53,75.192,209.8,50.771Z" transform="translate(36.472 4.884)"/>
    <path id="Path_187" data-name="Path 187" class="cls-1" d="M239.09,327.924c-2.314-6.041-95.116-12.468-133.676-4.5-10.925,2.185-11.183,22.365-11.568,23.522C59.784,449.389,42.175,710.7,38.7,739.492c-1.028,8.612,37.532,14.781,39.46,5.784,15.3-72.494,69.923-276.478,78.663-301.156,1.928-5.27,3.727-10.54,5.656-15.81,10.411,76.607,23.393,289.2,23.265,317.48,0,8.612,37.661,11.054,38.817.257,5.4-55.27,27.249-275.578,27.635-330.591C252.329,385.765,250.015,355.559,239.09,327.924Z" transform="translate(11.041 91.226)"/>
    <path id="Path_188" data-name="Path 188" class="cls-4" d="M69.442,674.7c-10.54-3.727-20.437-5.013-29.82,1.028-9.383,6.17-18.766,12.468-27.249,19.794-3.213,2.828-6.427,6.041-6.17,10.54.129,4.242,3.342,7.584,7.326,8.869,4.37,1.285,9.126.386,13.5,0,6.17-.514,12.211-1.028,18.38-1.542,9-.771,18.638-2.185,23.65-10.668C71.756,697.835,73.941,676.37,69.442,674.7Z" transform="translate(1.769 191.623)"/>
    <path id="Path_189" data-name="Path 189" class="cls-4" d="M208.436,697.595a203.766,203.766,0,0,0-16.067-17.224c-4.37-4.242-9-9-15.167-10.154-3.085-.514-12.853,1.671-14.781,2.571-5.013,2.7-5.784,8.1-6.3,13.239-.386,5.013.257,10.283,3.6,14.267,3.856,4.627,10.54,6.812,15.81,9.255,6.555,2.956,13.111,5.784,19.923,8.355,6.17,2.442,11.183,4.113,17.609,1.414a6.481,6.481,0,0,0,3.213-5.527C216.019,707.107,212.549,702.479,208.436,697.595Z" transform="translate(44.523 191.221)"/>
    <path id="Path_190" data-name="Path 190" class="cls-5" d="M311.185,270.481c-12.6-37.532-28.406-73.907-53.727-104.627-26.221-33.676-51.542-40.874-61.954-47.943-4.756-3.213-10.8-2.828-15.81-.257a25.961,25.961,0,0,0-4.242.386c-11.825,2.314-23.907,3.856-35.6,6.812-33.933,8.355-60.411,41.26-68.509,55.141-11.054,18.895-17.995,39.846-24.679,60.54C30.722,290.146,3.345,439.246,0,459.3c-.771,4.756,35.6,7.969,35.99,7.326,5.27-7.069,30.334-107.712,35.99-127.249-.257,15.81,5.27,51.8,5.27,62.211-.129,12.339-.771,25.578,5.27,36.889,3.085,5.784,8.1,10.411,14.653,11.954,7.455,1.8,157.2-31.105,157.069-45.887-.386-38.432,9.383-75.835,15.167-113.625a451.342,451.342,0,0,0,24.936,41.645c-1.285,5.784,33.29-4.884,32.391-10.411C323.653,304.414,318,287.19,311.185,270.481Z" transform="translate(0 32.989)"/>
    <path id="Path_191" data-name="Path 191" class="cls-3" d="M32.916,384.945a11.288,11.288,0,0,0-13.239-5.013c-2.314-2.314-5.784-2.956-8.355.257-.129.129-.129.257-.257.257a5.038,5.038,0,0,0-3.856,3.213c-1.157,2.7-2.442,5.4-3.6,8.1a6.645,6.645,0,0,0-.386,5.141,48.829,48.829,0,0,0,2.828,28.92c2.057,4.884,8.612,6.555,11.7,1.542a9.594,9.594,0,0,0,4.242-2.185c3.856-3.6,4.627-9.769,5.27-14.653a29.239,29.239,0,0,1,1.285-7.455c.9-2.314,2.956-3.728,4.37-5.784A12.761,12.761,0,0,0,32.916,384.945Z" transform="translate(0.634 107.856)"/>
    <path id="Path_192" data-name="Path 192" class="cls-3" d="M186.853,90.2c-.643-3.213-3.6-5.27-6.684-5.656-.257-1.028-.514-2.057-.771-2.956-1.157-3.47-5.27-4.756-8.74-4.113a12.516,12.516,0,0,0-3.085-.257v-.129c2.828-9.512-11.311-14.781-14.524-5.27a8.181,8.181,0,0,0-.257.9c-4.242-1.414-9.9.514-10.668,6.3-1.671,12.6-5.141,41.26-6.684,53.856-6.17.771-12.339,2.057-12.339,2.057l.386.771c9,15.81,35.861,22.622,50.771,12.725,1.671-.9,5.913-5.784,5.913-5.784a19.033,19.033,0,0,0-3.47-2.057c2.185-13.111,7.712-41,8.483-45.758C185.568,91.609,188.781,91.609,186.853,90.2Z" transform="translate(35.129 19.059)"/>
    <path id="Path_193" data-name="Path 193" class="cls-1" d="M209.191,25.835c-6.3-7.969-14.653-10.026-24.165-11.568C173.715,12.339,165.361,3.341,154.05.642c-7.969-1.8-19.666-.257-19.537,10.54a11.151,11.151,0,0,0,.643,3.6c-.386,0-.771-.129-1.028-.129-1.542,1.8-4.627,2.571-6.3,4.627a17.255,17.255,0,0,0-3.728,10.54c-.129,5.27,2.314,9.64,4.113,14.4,1.157,3.213,1.8,6.427,3.342,9.383a13.538,13.538,0,0,0-3.856,1.928,4.466,4.466,0,0,0-1.8,4.884l-.129.129c-2.314,3.47-1.028,37.918-.257,32.776.129-.771,5.4,18.895,5.013,12.339-.9-15.167-6.041-29.306,1.671-33.162,3.342-1.671,8.483,3.6,11.311.386,6.041-6.555,17.609-15.424,19.794-15.81,13.368-2.442,27.763-3.856,40.36,2.314,5.013,2.442,9.9-.257,10.411-5.27a5.869,5.869,0,0,0,.643-1.8C216.9,42.8,215.232,33.418,209.191,25.835Z" transform="translate(35.413 0)"/>
    <path id="Path_194" data-name="Path 194" class="cls-6" d="M189.555,179.2c-.514-4.756-.771-6.3-.771-6.3s-9,1.414-12.211,1.8a3.321,3.321,0,0,0-3.085,2.314c-2.314,7.841-4.884,15.681-7.583,23.393a34.865,34.865,0,0,0-13.625,3.342c-6.041,3.085-10.026,9.512-11.44,11.568-6.17,3.342-5.656,14.139,1.928,14.524.129,15.424.257,30.72.386,46.144,0,7.2.9,14.139,9.126,16.2,3.728.9,24.936,5.527,27.763-6.041,2.7-10.925,6.684-46.787,7.326-53.6,4.242-.9,8.226-4.884,6.427-9.64-3.856-10.411-10.026-20.18-21.337-22.108,2.314-6.684,4.5-13.239,6.427-20.051C182.614,180.355,186.084,179.2,189.555,179.2Z" transform="translate(38.983 49.336)"/>
    <path id="Path_195" data-name="Path 195" class="cls-3" d="M255.874,268.952c-9-3.6-60.925-29.049-66.581-31.234a92.564,92.564,0,0,0-20.18-16.581c-7.841-4.627-18.252-10.411-25.064-.9-5.527,7.712-2.442,16.838,2.828,23.779.514,3.085,17.1,12.468,23.65,13.111,1.285.643,2.442,1.414,3.727,2.185,7.712,5.141,51.928,45.758,70.051,52.056,10.8,3.728,42.159,11.825,42.416-10.668C286.722,283.991,269.242,274.351,255.874,268.952Z" transform="translate(40.272 61.381)"/>
  </g>
</svg>
