<svg xmlns="http://www.w3.org/2000/svg" viewBox="303 8678.535 485.07 924.684">
  <defs>
    <style>
      .cls-1 {
        fill: #efbc90;
      }

      .cls-2 {
        fill: #f5bc8e;
      }

      .cls-3 {
        fill: #422d1e;
      }

      .cls-4 {
        fill: #f5dfce;
      }

      .cls-5 {
        fill: #442d1d;
      }

      .cls-6 {
        fill: #b85d3f;
      }

      .cls-7 {
        fill: #f7a354;
      }

      .cls-8 {
        fill: #f3dfce;
      }

      .cls-9 {
        fill: #92b3c8;
      }

      .cls-10 {
        fill: #d9c5b6;
      }

      .cls-11 {
        fill: #a5c3d6;
      }
    </style>
  </defs>
  <g id="Group_194" data-name="Group 194" transform="translate(302.999 8678.466)">
    <path id="Path_257" data-name="Path 257" class="cls-1" d="M384.652,269.3c-.252-.379.631,41.538.379,41.159a6.159,6.159,0,0,1-.379-.884c1.263-5.934-.252-11.994-6.186-15.4-6.944-4.04-14.772-1.263-19.064,4.924-.253.253-.379.631-.631.884a15.781,15.781,0,0,0-5.176,2.778,14.334,14.334,0,0,0-22.221,1.894,51.133,51.133,0,0,0-2.9,4.293c-.884-7.575-9.848-12.752-17.3-11.615a21.96,21.96,0,0,0-1.389-2.273l.379-3.03c1.768-15.4-24.62-19.064-27.271-3.661-8.459,50.249-46.209,138.88-52.522,164.51-9.848,40.023,39.518,141.027,52.143,209.2-.126,4.924,19.317,1.389,19.317-1.01h0c.379-4.545-19.317-163.753-26.892-186.478,3.409-4.04,43.684-62.875,53.911-77.521l1.894-2.651c7.2,79.793,37.624,296.825,41.917,325.738,1.01,6.691,0,6.187,6.06,5.3,6.691-1.01,12.247-1.515,12.247-8.459,0-9.09,7.954-235.97,8.838-334.828C400.055,358.31,402.075,288.744,384.652,269.3Z" transform="translate(60.144 70.686)"/>
    <path id="Path_258" data-name="Path 258" class="cls-2" d="M260.212,268.819a76.9,76.9,0,0,1-10.227-5.05c-1.136-1.515-2.273-3.156-3.283-4.8a3.035,3.035,0,0,0,.253-1.894,4.019,4.019,0,0,0,1.768-4.671,1.745,1.745,0,0,0,.505.379c3.661,3.156,9.09-2.146,5.3-5.3-.758-.631-1.515-1.389-2.4-2.02.884.379,1.768.884,2.651,1.263,3.661,1.768,7.828-2.778,4.545-5.934-5.555-5.555-2.273-3.283-8.08-8.585-10.1-3.788-20.453-10.858-22.852-19.7,3.03-5.05,5.681-10.605,4.419-16.666-1.01-4.924-4.8-9.469-9.974-10.227-13.257-1.768-13.257,26.135-13.13,26.514-1.136,9.6,18.181,43.937,20.074,46.714,7.2,10.479,16.666,19.7,30.3,17.549C264.252,275.51,263.242,269.955,260.212,268.819Z" transform="translate(55.046 48.694)"/>
    <path id="Path_259" data-name="Path 259" class="cls-2" d="M51.8,511.26c-.253-2.651,20.075-73.48,20.075-73.607-1.641-12.878-2.273,51.259,2.9,61.107a16.67,16.67,0,0,1,11.615,5.05c6.439-2.4,9.974-8.333,10.479.631,4.924,88-.758,165.394-6.818,272.837-.758,13-20.958,10.984-22.473-1.768C58.618,700.39,52.937,523.886,51.8,511.26Z" transform="translate(13.599 114.44)"/>
    <path id="Path_260" data-name="Path 260" class="cls-3" d="M93.505,715.083c.505,4.8,3.156,19.948-1.768,22.473-2.273,1.136-8.459,2.146-14.519,1.768-13.13-.884-29.165-6.06-29.417-13.762-.253-9.343,7.7-12.373,20.706-18.938,3.283-1.641,23.483.631,23.483.631l1.515,7.828Z" transform="translate(12.548 185.348)"/>
    <path id="Path_261" data-name="Path 261" class="cls-2" d="M146.628,459.874c0-2.651-25.756-71.713-25.756-71.713.631-13,6.313,50.881,1.894,61.107a16.722,16.722,0,0,0-11.11,5.934c-6.692-1.894-10.605-7.575-10.353,1.389,2.02,88.126,13.636,164.762,27.9,271.574,1.768,12.878,21.716,9.343,22.221-3.409C154.456,649,146.375,472.5,146.628,459.874Z" transform="translate(26.594 101.437)"/>
    <path id="Path_262" data-name="Path 262" class="cls-4" d="M187.782,316.939c-10.984-16.918-4.04-9.848-12.12-10.353a14.393,14.393,0,0,0-13.636-6.186c-7.07,1.01-77.773-25.5-80.929-26.387-6.565-1.768-7.449,35.351-11.742,41.664C43.6,352.669,39.433,455.441,30.721,511.75c-4.293,27.776-10.732,111.736-12.373,140.017-.758,13.509-3.156,29.544,8.838,39.013,9.6,7.449,24.367,9.722,35.983,12.373,6.692,1.515,13.509,2.778,20.2,3.914,7.2,1.136,14.9,2.525,21.716-1.263,13.383-7.575,11.363-26.892,12.5-40.149l1.389-15.908c7.449,1.389,17.928,3.409,25.5,3.788,12.373.631,45.957-1.389,55.047-11.489,7.828-8.585-2.146-71.208-2.4-100.246C196.494,485.742,207.983,356.078,187.782,316.939Z" transform="translate(4.63 71.907)"/>
    <path id="Path_263" data-name="Path 263" class="cls-2" d="M63.759,222.951a13.259,13.259,0,0,0-11.742,2.4c-.505-.126-.884-.126-1.389-.252-12.878-1.515-7.449-29.039-12.878-19.7-5.3,9.09-22.347,59.087-26.514,68.683-7.2,17.171-21.463,48.229.505,60.476,22.347,12.5,30.806-24.746,38.129-40.4,9.09-19.569,18.433-40.78,20.706-62.244C71.208,226.107,69.188,224.34,63.759,222.951Z" transform="translate(0 53.403)"/>
    <path id="Path_264" data-name="Path 264" class="cls-2" d="M181.511,179.312c-7.575-12.625-17.676,38.76-18.559,50.249a10.564,10.564,0,0,0-3.661,1.641c-8.459,6.565-13.257-4.671-9.974,3.283,9.343,22.726,25.251,79.667,34.089,96.206,6.818,12.625,30.554,5.429,31.059-7.7C215.979,288.144,199.566,209.234,181.511,179.312Z" transform="translate(38.929 46.54)"/>
    <path id="Path_265" data-name="Path 265" class="cls-1" d="M229.681,241.282c-1.768-15.782-5.555-35.6-11.994-50.123-5.555-12.5-28.281-27.271-41.159-33.71-11.868-5.934-9.974-5.934-23.1-5.176a63.351,63.351,0,0,0-15.277,2.525,11.867,11.867,0,0,0-6.944.126c-.758.253-1.389.505-2.02.758a14.989,14.989,0,0,0-11.868-2.273C72.746,162.751,35.754,197.724,23,241.282c-2.02,6.818,2.4,15.656,9.722,17.044l24.115,3.788c.758.126,5.555,1.768,6.313,1.768,1.894,22.978,1.894,51.764,5.05,83.581.631,6.187,32.7,7.7,58.2,7.575,13.131,0,47.724-2.273,60.35-6.313-3.914,5.05,6.692-60.1,5.555-90.02-.505-14.267,20.706-2.778,27.4-4.293C224.757,253.528,230.312,247.089,229.681,241.282Z" transform="translate(5.91 39.87)"/>
    <path id="Path_266" data-name="Path 266" class="cls-2" d="M330.754,27.062c-9.469-8.333-22.473-6.439-34.341-.253-2.146.758-16.413,12.12-18.181,14.141-3.283,3.788-6.691,32.826-.758,53.153,2.778,9.6,4.419,22.473,12.12,26.892,10.1,5.808,29.165,3.788,33.331.631a24.558,24.558,0,0,0,5.681-5.176c4.293-4.545,15.151-39.392,15.529-51.764C344.516,51.051,341.612,36.4,330.754,27.062Z" transform="translate(71.999 5.62)"/>
    <path id="Path_267" data-name="Path 267" class="cls-3" d="M139.786,652.337c-14.267-4.671-19.822,6.06-20.453,13-.884,8.964,2.146,18.938,3.661,27.65,1.389,7.828,3.03,20.958,11.868,23.988,9.848,3.409,14.519-7.2,15.656-14.772C151.907,692.107,157.588,658.145,139.786,652.337Z" transform="translate(31.289 170.952)"/>
    <path id="Path_268" data-name="Path 268" class="cls-2" d="M331.168,70.919c-1.894-8.459-34.846,12.247-34.468,15.4,1.515,13.888,12.752,50.754,13.509,52.522,2.651,6.818,33.836-.884,32.448-8.838C339.249,110.184,335.335,90.489,331.168,70.919Z" transform="translate(77.897 18.072)"/>
    <path id="Path_269" data-name="Path 269" class="cls-5" d="M189.391,166.2s-.758,3.914-.758,4.545c-1.389,21.842-4.04,43.432-6.818,65.147-4.545,34.341-26.009,81.687-60.1,79.541-30.427-2.02-57.825-41.664-60.224-62.875-2.778-26.135-1.768-52.648-.126-79.035,0-.631.126-1.894.126-1.894l-9.09,7.449v.884c-.884,24.115-.505,48.356.379,72.47.126,2.146,6.439,70.955,7.575,91.535,9.217,7.575,32.826,8.08,58.2,7.575,20.832-.379,45.83-2.02,60.35-6.313.758-7.828,7.7-66.158,8.459-73.354.126-.884,7.828-67.8,9.974-97.595,0-.631.126-1.641.126-1.641Z" transform="translate(13.627 43.617)"/>
    <path id="Path_270" data-name="Path 270" class="cls-6" d="M300.657,385.508a8.868,8.868,0,0,0-4.419-.758,8.817,8.817,0,0,0-4.04-3.03,7.9,7.9,0,0,0-6.06-4.545,8.375,8.375,0,0,0-7.2-5.429,10.1,10.1,0,0,0-5.429-5.934c1.136-6.439,2.146-13,2.778-19.569.884-8.585-11.237-10.479-15.277-4.166-9.469,14.9-26.766,57.193-22.473,61.739,11.615,12.625,27.776,24.872,44.568,29.165,9.722,2.525,14.772-6.691,19.191-13.635a124.425,124.425,0,0,0,12.878-26.766C318.08,384.5,304.95,378.438,300.657,385.508Z" transform="translate(62.452 88.813)"/>
    <path id="Path_271" data-name="Path 271" class="cls-6" d="M357.174,438.633a77.308,77.308,0,0,1-18.686-3.283c-1.389-.5-2.778-.884-4.166-1.515-.253-.126-2.146-.884-2.778-1.136a28.4,28.4,0,0,1-.631-2.778,46.351,46.351,0,0,1-.379-5.808,8.164,8.164,0,0,0-.505-2.525c0-1.389-.126-2.651-.126-4.04-.758-10.479-17.3-20.074-17.3-19.948,0,1.263-3.03,53.28,5.681,54.668,13,2.02,25.882,4.04,39.013,2.778C367.527,454.162,367.779,439.138,357.174,438.633Z" transform="translate(81.94 104.371)"/>
    <path id="Path_272" data-name="Path 272" class="cls-7" d="M194.238,158.952c-1.389-13.383-3.661-26.766-5.808-40.023-1.768-11.237-3.914-22.6-6.818-33.71-12.373-45.83-35.856-44.189-40.4-44.947C111.541,35.1,88.689,54.792,79.346,81.684c-3.914,11.237-4.8,23.736-5.176,35.478-.253,5.429-.253,10.858-.505,16.287-.126,2.525-.253,5.05-.505,7.575a24.518,24.518,0,0,0-.253,3.03,11.255,11.255,0,0,1-.252,1.389c-2.778,12.5-6.818,24.62-7.828,37.5-.758,8.459,1.768,17.8,8.08,23.862,6.818,6.439,15.151,8.207,24.115,8.964,10.605,1.01,21.085-1.641,31.69-1.641a24.328,24.328,0,0,1,3.03.126,3.9,3.9,0,0,1,1.01.253,4.464,4.464,0,0,0,.758.126,15.936,15.936,0,0,1,2.02.884c5.429,2.778,10.984,5.681,16.918,6.691,18.054,3.03,35.1-5.934,39.9-24.241C195.627,185.592,195.5,171.7,194.238,158.952Z" transform="translate(16.986 10.338)"/>
    <path id="Path_273" data-name="Path 273" class="cls-8" d="M389.177,146.092c-2.651-17.8-27.145-43.432-56.562-23.483-14.141,9.6-30.3,26.387-37.245,36.109-11.237,15.656-24.872,48.734-35.6,64.642-6.187,9.09-15.529,20.2-19.822,31.816-1.515,2.146-16.034,22.726,4.166,38.129,10.353,7.954,28.029-6.439,36.866-13.888-5.05,13.888-6.565,29.922-8.333,43.937-.758,5.681-10.1,56.562-13.13,65.148-2.9,7.954-13.636,27.776,5.934,47.472,14.267,14.267,69.314,69.566,85.98,81.056,13.888,9.6,35.6,18.686,48.1,3.03,14.014-17.423,13.762-40.907,15.024-50.376C419.6,432.312,397.636,203.159,389.177,146.092Z" transform="translate(61.3 30.268)"/>
    <path id="Path_274" data-name="Path 274" class="cls-3" d="M406.6,121.818c-.884-16.034-13.13-26.64-23.736-36.993-5.05-5.05-9.09-9.974-10.732-17.044-1.894-8.333-2.02-16.792-5.555-24.746a42.347,42.347,0,0,0-7.2-10.984C361.65,25.864,364.049,21.066,361.9,14,357.61-.649,337.409-5.321,328.318,7.683a20.181,20.181,0,0,0-3.661,8.712c-16.287-.253-32.321,8.333-42.3,21.085a29,29,0,0,0-4.671,8.08c-6.06,16.666,19.569,22.6,30.427,27.271,5.681,2.525,10.1,5.555,12.12,11.615,2.651,7.575,1.768,15.908,1.894,23.736.379,16.539,5.555,31.059,19.191,41.159,11.489,8.585,27.4,11.742,41.033,6.313C396.37,150.1,407.48,137.347,406.6,121.818Z" transform="translate(72.667 0)"/>
    <path id="Path_275" data-name="Path 275" class="cls-3" d="M302.57,591.8c-.758-5.681-.126-14.519-7.575-14.9-3.914-.253-7.7,1.263-11.11,3.283a4.123,4.123,0,0,0-6.06-1.01c-7.954,6.439-16.413,12.5-23.736,19.569-3.788,3.661-9.6,11.489-6.06,17.044s14.267,2.525,19.191,1.263c9.343-2.525,19.822-5.05,28.66-8.964C303.328,604.682,303.454,599.127,302.57,591.8Z" transform="translate(64.831 151.44)"/>
    <path id="Path_276" data-name="Path 276" class="cls-3" d="M371.289,637.846c-.126-4.672-.758-11.616-6.565-13-3.661-.884-8.08,1.263-12.12,3.788-1.136-2.146-3.914-3.409-5.808-1.01-4.545,5.682-10.984,9.469-17.8,13-4.04,2.146-8.08,7.323-5.3,11.994,2.9,5.05,13.13,3.914,17.8,3.914,4.924,0,21.968.505,24.872-1.262C371.541,652.113,371.415,642.9,371.289,637.846Z" transform="translate(84.743 163.98)"/>
    <path id="Path_277" data-name="Path 277" class="cls-9" d="M394.469,238.831c-16.287-20.58-37.5-38-58.961-52.9-.379-.252-.631-.379-1.01-.631-.126-4.04-.505-7.954-1.01-11.994-2.273-16.034-8.08-31.942-18.56-44.315-.379-.505-1.136-1.389-1.136-1.389l-10.227,9.469a11.66,11.66,0,0,1,1.01,1.136c23.61,27.65,15.782,69.314,9.974,102.645-4.04,22.852-6.565,46.209-6.186,69.314a53.153,53.153,0,0,1-6.06,1.515,48.016,48.016,0,0,1-31.059-4.293,52.267,52.267,0,0,0-4.924-1.768l-2.02,13.762,1.263.631a63.746,63.746,0,0,0,43.432,4.419,248.778,248.778,0,0,0,4.293,31.943c4.419,20.832,12.12,41.033,23.61,58.961a6.652,6.652,0,0,0,3.661,2.9,18.9,18.9,0,0,0,9.848,4.04c9.469,1.01,16.413-3.788,21.59-10.479,5.934-3.788,10.732-10.605,14.141-16.034,5.555-8.964,9.469-19.191,13.509-28.912,8.838-21.463,15.908-44.063,16.034-67.42A97.813,97.813,0,0,0,394.469,238.831Z" transform="translate(69.391 33.483)"/>
    <path id="Path_278" data-name="Path 278" class="cls-10" d="M150.229,392.613c-11.868,6.692-28.029,7.954-35.73,20.58-4.545,7.449-4.671,16.666-5.681,25-1.136,10.227-2.273,20.58-3.283,30.806Q99.285,530.546,94.8,592.474c-.379,4.8,7.2,4.293,7.575-.505q4.166-58.33,10.1-116.407c1.01-9.469,1.894-18.938,3.03-28.407.884-8.459,1.01-17.676,3.661-25.756,4.8-14.519,23.61-15.908,35.351-22.473C158.688,396.4,154.4,390.214,150.229,392.613Z" transform="translate(24.887 102.919)"/>
    <path id="Path_279" data-name="Path 279" class="cls-11" d="M380.472,339.232a41.473,41.473,0,0,1-23.231-10.479c.758-1.641,1.389-3.283,2.02-5.05,1.641-4.545-5.681-6.565-7.323-2.02a4.483,4.483,0,0,1-.505,1.136c-7.323-8.712-12.247-19.7-14.772-30.554-6.186-26.64-3.03-55.678-2.778-82.7,0-4.924-7.575-4.924-7.575,0-.126,16.287-.631,32.574-.505,48.987.126,14.9,1.136,30.175,5.934,44.442a71.321,71.321,0,0,0,16.413,27.4c-1.389,2.651-2.9,5.3-4.545,7.828a5.833,5.833,0,0,0-.884.884c0,.126-.126.126-.126.253-1.01,1.515-.379,3.283.631,4.545l.126.126c1.641,2.02,4.671,1.01,5.934-.758,1.641-2.525,3.156-5.05,4.545-7.7a51.558,51.558,0,0,0,26.513,11.11C385.27,347.312,385.27,339.737,380.472,339.232Z" transform="translate(85.534 54.034)"/>
  </g>
</svg>
