<svg xmlns="http://www.w3.org/2000/svg" viewBox="127 12699.681 880.281 901.319">
  <defs>
    <style>
      .cls-1 {
        fill: #f5bc8e;
      }

      .cls-2 {
        fill: #422d1e;
      }

      .cls-3 {
        fill: #f97c64;
      }

      .cls-4 {
        fill: #402d1e;
      }
    </style>
  </defs>
  <g id="Group_189" data-name="Group 189" transform="translate(127.008 12699.633)">
    <path id="Path_304" data-name="Path 304" class="cls-1" d="M501.595,343.052c-4.054-11.19-15.082-20.434-27.407-16.379a12.136,12.136,0,0,0-6,3.892,38.409,38.409,0,0,0-5.19-2.27c-10.866-3.892-17.839,9.244-13.785,17.839.973,2.108,1.946,4.054,2.919,6.163.649,1.3-11.676,4.216,2.27,3.243-60.814,13.785-114.331,232.392-115.791,235.474-2.919,6.325-1.3,16.542,7.3,17.839,6.325,1.135,5.514.324,11.676-1.784C364.56,604.8,445,470.195,460.89,447c14.758-21.407,32.921-42.976,40.381-68.274C504.838,367.378,505.649,354.242,501.595,343.052Z" transform="translate(209.696 202.465)"/>
    <path id="Path_305" data-name="Path 305" class="cls-1" d="M286,398.111c-5.676,1.946-11.19,4.216-16.7,6.649a9.279,9.279,0,0,0,3.243-6.325c13.947.811,19.136-20.758,4.541-23.677-25.623-5.189-48.165,7.46-69.734,19.947-20.434,12-152.117,116.6-182.93,152.928-7.136,8.6,4.865,17.028,17.352,12.974,45.895-15.244,105.412-50.111,148.387-72.491,20.758-10.866,73.3-35.353,92.925-48.165,18.65-12.163,3.73-5.352,16.379-24C305.625,407.355,295.733,394.543,286,398.111Z" transform="translate(13.859 232.222)"/>
    <path id="Path_306" data-name="Path 306" class="cls-2" d="M486.711,286.578c-11.19-10.865-22.38-21.731-33.57-32.759-5.189-5.027-11.19-6.325-16.542-5.189-2.757-2.27-5.514-4.541-8.433-6.811-7.622-6-17.352-8.109-25.623-1.46a22.522,22.522,0,0,0-5.027,6l-2.108-2.108c-6.325-6.487-13.947-7.136-20.272-4.216-2.757-4.054-5.352-8.271-7.784-12.487-5.838-9.892-17.839-10.865-26.6-6.487,1.784-9.892-3.892-19.947-13.785-22.7s-21.569,3.243-24,13.622c-3.892,16.217-2.595,32.272,1.622,47.516-5.838,8.109-11.352,16.542-16.866,24.974-14.271,22.055-106.06,153.9-113.358,164.767-6.649,10.055-16.7,22.055-19.3,33.894-3.892,17.352,9.244,22.7,18.65,35.191,8.919,12.163,9.568,12.163,17.352,25.137,6.973,11.514,20.92,12,30.488,3.892,19.3-16.055,147.9-140.441,166.388-164.929,6,5.027,136.062,86.438,143.522,84.492,16.7-4.541,71.68-32.921,81.572-47.192C620.665,408.693,523.686,319.823,486.711,286.578Z" transform="translate(95.978 122.876)"/>
    <path id="Path_307" data-name="Path 307" class="cls-1" d="M521.461,83.74c-5.352-8.919-26.272-27.731-35.354-20.758-16.866,12.974-66.166,31.461-85.14,40.543-9.406,4.541,22.218,17.839,26.272,26.434,4.379,9.406-7.622,33.407-5.676,31.948,17.839-7.946,76.221-26.11,91.952-38.273C522.433,116.823,527.785,94.281,521.461,83.74Z" transform="translate(248.213 38.184)"/>
    <path id="Path_308" data-name="Path 308" class="cls-1" d="M538.843,41.511c-10.379-12.163-27.731-17.352-42.327-11.352a16.823,16.823,0,0,0-7.784,3.892c-22.218,18.974-55.463,51.571-50.76,78.329,2.27,12.649,6.649,28.7,16.217,37.786,4.379,4.216,39.57,11.028,44.6,11.676,5.676,1.46,11.514-.324,16.7-3.406a30.525,30.525,0,0,0,7.3-5.676,83.11,83.11,0,0,0,13.3-16.379c8.433-13.46,12.812-29.191,14.6-44.922C552.466,74.108,550.52,55.133,538.843,41.511Z" transform="translate(272.021 17.166)"/>
    <path id="Path_309" data-name="Path 309" class="cls-2" d="M537.241,52.569c-7.3,1.3-13.622,2.757-20.92,1.3-7.46-1.622-13.3-5.676-19.785-9.568-10.7-6.649-23.191-10.541-34.056-3.892a34.515,34.515,0,0,0-4.054-2.595c4.379-7.136-3.406-18.325-11.676-12.487-11.352,7.946-17.839,18.163-19.3,32.11-1.622,15.893.162,33.083,1.135,48.976.811,13.785,12,16.866,24.164,12.974,12.812-4.216,21.407-13.947,27.083-25.785,2.757-5.676,5.189-11.514,10.865-14.758,7.136-4.054,14.109-2.108,21.407.162,11.514,3.406,25.623,5.838,35.353-3.73C557.026,65.705,551.513,50.137,537.241,52.569Z" transform="translate(265.353 14.702)"/>
    <path id="Path_310" data-name="Path 310" class="cls-3" d="M582.377,32.891c-4.054-12.649-13.947-19.947-26.6-22.7-13.46-2.919-58.544-21.082-78-.324-4.379,4.7-20.758,26.921-20.758,34.218-21.082-5.19-32.921-8.433-54-13.622a6.079,6.079,0,0,0-7.3,4.054c-.162.324-.162.487-.324.811a5.793,5.793,0,0,0,2.757,6.649c.162.162,35.353,8.271,57.085,13.46.162.324,46.543,12.325,60.166,16.379,12.649,3.73,48,16.217,61.139,17.839C580.918,90.138,589.351,54.136,582.377,32.891Z" transform="translate(245.678 0)"/>
    <path id="Path_311" data-name="Path 311" class="cls-3" d="M540.129,80.7c-65.355-7.46-135.738,4.7-190.065,43.138-13.136,9.244-25.623,19.461-36.489,31.3C301.9,167.785,292.168,182.056,282.113,196l-6.811,9.244c-.162.162-.162.324-.324.487-1.3,1.46-2.433,2.919-3.73,4.379-4.541,5.189-9.406,10.055-14.271,14.758-9.73,9.406-20.109,18.488-28.867,28.867-10.7,12.649-19.3,25.623-24.65,41.354-7.946,23.353-.649,53.517,26.758,59.031,13.3,2.595,24.164-1.46,35.84-7.136,3.406-1.784,6.973-3.406,10.379-5.027l5.352-2.433a7.9,7.9,0,0,0,1.135-.487c.162,0,.324-.162.649-.162,7.3-2.433,14.433-5.352,21.893-7.3,3.73-.973,7.46-1.46,11.19-2.433.162,0,.324,0,.324-.162,2.108-.162,4.379-.487,6.487-.487q4.865-.243,9.73,0c1.622,0,3.243.162,4.865.324h1.622a70.245,70.245,0,0,1,6.811,2.108c1.622.487,3.081.973,4.7,1.46.324.162.649.162.973.324a74.483,74.483,0,0,1,7.946,4.216,9.941,9.941,0,0,1,.973.649c.649.487,1.784,1.3,2.27,1.622,5.189,4.7,9.082,10.541,13.947,15.406,33.732,32.759,85.789,10.055,99.736-27.894,13.622-37.137,43.949-80.924,49.462-87.086,12.812-14.109,27.407-61.788,31.461-81.086C567.374,113.782,556.67,82.483,540.129,80.7Z" transform="translate(124.619 48.847)"/>
    <path id="Path_312" data-name="Path 312" class="cls-1" d="M644.038,427.273c-2.919-14.758-21.569-31.786-23.028-33.083-8.271-8.109-16.866-16.055-25.623-23.515-34.543-33.732-65.842-70.707-106.223-97.79a.159.159,0,0,1-.162-.162c-.649-.811-38.273-99.574-53.192-142.225-1.3-3.73-8.919-19.3-27.731-19.3-27.083.162-30.488,27.569-28.38,40.381,1.46,8.919,55.787,145.144,72.329,163.794,21.893,24.812,66.653,47.192,93.087,67.139A400.307,400.307,0,0,0,583.061,408.3c4.379,2.595,8.919,5.19,13.46,7.46a26.348,26.348,0,0,0,.649,3.081c4.216,11.676,8.6,23.353,12.812,34.867,3.73,10.217,15.731,11.19,21.569,3.568C634.632,456.464,647.119,443,644.038,427.273Z" transform="translate(235.75 69.106)"/>
    <path id="Path_313" data-name="Path 313" class="cls-1" d="M413.339,222.337c13.3-6.487,28.7-14.109,41.029-24.326A367.583,367.583,0,0,0,469.126,149.2c1.3-6.487,2.27-12.812,2.919-18.65a70.433,70.433,0,0,0-17.839-22.542c-18-14.758-41.678-19.461-63.085-8.919-20.434,10.217-31.624,30.975-39.57,51.409-7.622,19.461-12.812,46.057-2.27,65.517a34.05,34.05,0,0,0,28.7,18.163C390.473,234.5,402.636,227.526,413.339,222.337Z" transform="translate(213.46 58.029)"/>
    <path id="Path_314" data-name="Path 314" class="cls-2" d="M428.967,526.126c-.811-10.055-45.084-29.677-54.976-35.191-5.189-2.919-32.434-4.217-34.218,0-4.7,11.028-9.892,25.461-8.6,37.462,1.46,13.136,72.329,10.379,81.9,9.73C422.48,537.478,429.778,535.694,428.967,526.126Z" transform="translate(205.779 303.516)"/>
    <path id="Path_315" data-name="Path 315" class="cls-2" d="M10.871,563.313c10.217,0,37.948-46.543,44.6-55.949,3.406-5.027,2.757-29.029-1.3-31.137a110.363,110.363,0,0,0-33.407-11.514C11.357,462.928.167,536.554.005,546.285-.157,555.691.978,563.313,10.871,563.313Z" transform="translate(0 288.871)"/>
    <path id="Path_316" data-name="Path 316" class="cls-2" d="M294.073,524.568a17.8,17.8,0,0,0-17.352,5.676,20.124,20.124,0,0,0-8.6,11.352c-1.946,6.325-1.946,13.947.811,20.109,7.3,16.542,30.164,15.082,38.435.162C314.507,548.569,310.128,528.135,294.073,524.568Z" transform="translate(165.851 325.832)"/>
    <path id="Path_317" data-name="Path 317" class="cls-2" d="M420.773,525.768a17.8,17.8,0,0,0-17.352,5.676,20.124,20.124,0,0,0-8.6,11.352c-1.946,6.325-1.946,13.947.811,20.109,7.3,16.542,30.164,15.082,38.435.162C441.207,549.931,436.828,529.335,420.773,525.768Z" transform="translate(244.623 326.578)"/>
    <path id="Path_318" data-name="Path 318" class="cls-4" d="M574.186,515.986c-26.434,4.7-53.355,4.541-80.113,4.379l-84.816-.973-168.334-1.946c-15.731-.162-15.731,24.164,0,24.326l171.416,1.946,84.654.973c28.056.324,55.949-.162,83.518-5.189C596.079,536.744,589.43,513.229,574.186,515.986Z" transform="translate(142.457 320.629)"/>
  </g>
</svg>
