<svg xmlns="http://www.w3.org/2000/svg" viewBox="1126.49 1640 619.408 1094.214">
  <defs>
    <style>
      .cls-1 {
        fill: #586688;
      }

      .cls-2 {
        fill: #422d1e;
      }

      .cls-3 {
        fill: #f5bc8e;
      }

      .cls-4 {
        fill: #442d1d;
      }

      .cls-5 {
        fill: #b85d3f;
      }

      .cls-6 {
        fill: #e9a45c;
      }

      .cls-7 {
        fill: #402d1e;
      }
    </style>
  </defs>
  <g id="Group_186" data-name="Group 186" transform="translate(1126.397 1639.953)">
    <path id="Path_241" data-name="Path 241" class="cls-1" d="M162.422,714.706c-1.562-10.651-4.118-20.733-9.23-30.247-2.84-5.254-9.656-4.26-12.78,0a29.148,29.148,0,0,0-3.55,6.532c-1.42-6.674-12.354-8.52-14.343-.568-2.414,9.8-12.78,15.479-20.449,20.875-8.094,5.822-17.183,11.077-24.425,18.035-14.059,13.349-5.4,31.1,14.485,24.567,10.366-3.408,20.591-7.953,30.957-11.5,5.822-1.988,11.5-3.834,17.325-5.68,4.686-1.42,10.082-2.414,14.485-4.686C163.7,727.344,163.7,723.368,162.422,714.706Z" transform="translate(29.672 285.986)"/>
    <path id="Path_242" data-name="Path 242" class="cls-1" d="M216.266,702.069a5.726,5.726,0,0,0-4.828-4.97c-1.562-3.976-4.4-6.958-9.23-7.668a1.8,1.8,0,0,1-.852-.142c1.988-7.384-9.088-13.064-13.491-5.538-4.544,7.668-33.939,16.047-37.063,17.325-5.112,2.13-7.242,6.958-7.668,12.213-1.136,11.928,6.39,12.78,18.035,14.343,7.668.994,15.337,1.7,23,2.414,6.674.71,14.769,2.84,21.443.852C219.816,726.636,217.97,713.571,216.266,702.069Z" transform="translate(60.037 285.7)"/>
    <path id="Path_243" data-name="Path 243" class="cls-2" d="M321,382.39c-.284-8.662-9.514-12.781-16.047-9.94-4.686-5.68-14.484-7.526-18.177.71l-.852,2.13.994-7.242c.852-7.242-6.532-11.5-12.922-10.792.426-2.556.71-5.254,1.136-7.81.852-5.964-1.562-11.786-7.668-13.633-5.4-1.562-12.5,1.846-13.633,7.668-1.278,6.958-2.7,13.775-3.976,20.733a11.564,11.564,0,0,0-11.076-2.84c-2.556-4.118-7.81-6.816-12.5-5.68-3.834-4.686-11.5-6.532-16.9-1.562-3.834,3.55-7.526,7.1-11.218,10.792-3.124-1.562-6.674-1.846-9.8.142,1.562-2.7,3.124-5.538,4.686-8.236,4.118-7.242-1.846-15.621-8.52-16.9-4.686-4.118-12.781-4.828-17.041,2.13C136.817,393.182,83,535.756,79.163,554.642c-7.668,39.193,36.779,286.709,37.489,289.833,1.846,8.094,37.489-4.26,37.347-5.68,2.556-6.248-9.94-205.624-19.881-279.893,7.668-9.94,66.033-82.647,86.481-109.77,2.556-2.84,5.112-5.822,7.526-8.662-1.136,36.211-7.81,169.838-7.952,198.95-.142,9.656-.284,19.455-.142,29.111-1.136,21.159-6.958,157.2-6.816,168.418.142,5.538,28.259,16.473,32.093,3.408,1.136-3.976,51.832-254.616,66.175-364.528C315.6,445.014,321.992,413.489,321,382.39Z" transform="translate(32.84 140.88)"/>
    <path id="Path_244" data-name="Path 244" class="cls-3" d="M236.487,76.705,230.381,80.4l-.284-5.964c-.284-7.952-8.8-10.366-13.917-7.242a8.591,8.591,0,0,0-5.4,2.414,9.468,9.468,0,0,0-7.668,5.964c-.142.284-.142.426-.284.71a10.145,10.145,0,0,0-2.13,1.136,7.174,7.174,0,0,0-3.834,3.266,7.592,7.592,0,0,0-4.828,4.26,8.474,8.474,0,0,0-4.118,7.242c-.426,9.8,1.136,55.24,1.988,60.068.852,4.4,49.7-.142,49.7-2.982C239.469,126.975,237.765,106.242,236.487,76.705Z" transform="translate(78.868 27.649)"/>
    <path id="Path_245" data-name="Path 245" class="cls-3" d="M191.893,21.383c11.786-8.378,28.259-9.23,39.9-.71a16.177,16.177,0,0,1,6.106,5.254c15.337,21.585,9.372,55.808-.568,78.387-4.686,10.65-11.786,23.147-22.153,29.253a22.859,22.859,0,0,1-14.2,3.124c-5.4,0-10.082-2.7-13.917-6.674a27.317,27.317,0,0,1-5.254-6.674,72.244,72.244,0,0,1-8.094-17.325c-4.544-13.775-4.97-28.543-2.982-42.886C172.722,47.228,178.544,30.9,191.893,21.383Z" transform="translate(71.204 6.146)"/>
    <path id="Path_246" data-name="Path 246" class="cls-4" d="M246.2,650.314c-3.124-40.9-12.922-82.505-37.915-115.734-20.165-26.839-46.152-58.364-79.239-64.47-3.834-1.136-9.94-1.7-12.5-1.988-32.377-3.55-61.772,16.473-79.381,43.17C17.57,540.97,8.2,578.459,3.369,613.25-6.287,683.117,5.5,755.4,37.45,818.164A307.536,307.536,0,0,0,65.283,863.18c10.508,13.917,23,25.419,39.9,30.957,33.371,10.792,69.015-3.266,92.587-27.691,25.987-26.981,39.051-64.044,44.732-100.4C248.328,727.991,249.18,688.371,246.2,650.314Zm-14.343,82.221c-2.414,34.507-8.946,69.725-26.555,99.972-15.763,26.981-42.176,50.27-74.837,50.838-16.047.284-31.383-4.97-43.028-16.189C75.65,855.8,66.562,841.027,58.467,826.968c-32.093-54.956-47-119.143-44.022-182.477,1.7-35.785,8.946-72.849,23.715-105.652,12.78-28.4,38.2-58.08,71.145-57.228.71,0,2.982.568,9.514,1.136,29.821,2.84,53.962,31.241,72.991,53.678,21.443,25.561,32.519,57.938,37.489,90.6C234.7,661.674,234.27,697.744,231.856,732.535Z" transform="translate(0 196.444)"/>
    <path id="Path_247" data-name="Path 247" class="cls-4" d="M482.071,588.852c-4.686-36.069-12.5-74.979-32.661-105.794-8.946-13.775-20.733-26.555-36.637-32.377-5.538-1.988-19.739-3.408-32.235-1.136-12.638,2.272-23.573,8.236-27.549,11.928-10.65,10.224-18.887,25.987-22.579,36.5-10.792,30.673-12.07,65.607-12.5,97.7-.426,35.927,2.414,72,7.242,107.64,4.118,31.667,7.1,65.891,21.585,94.718,12.922,25.987,38.625,46.01,67.737,49.56,14.342,1.7,28.543-1.562,39.193-11.644,11.218-10.508,16.473-25.561,19.171-40.329,6.248-33.655,9.656-68.447,11.786-102.528C486.9,658.434,486.615,623.359,482.071,588.852ZM463.894,760.11c-2.982,23-3.408,62.766-30.247,72-25.135,8.8-55.24-10.792-68.873-30.957-14.911-22.295-18.461-50.412-22.437-76.257a888.563,888.563,0,0,1-9.656-93.156c-1.562-33.939-.994-68.447,4.544-101.96,2.272-13.775,5.538-27.833,12.212-40.187,3.408-6.532,12.07-19.881,21.3-23.147,18.461-6.816,37.347-3.266,44.732,1.136,11.36,6.958,19.6,18.461,26.129,29.963,14.059,24.993,20.591,54.388,24.993,82.647C475.964,639.69,471.562,700.61,463.894,760.11Z" transform="translate(133.484 188.324)"/>
    <path id="Path_248" data-name="Path 248" class="cls-4" d="M114.755,615.209c-1.562-8.662-5.112-17.751-10.65-24.709-4.26-5.254-11.076-6.958-15.763-2.556-13.917,1.562-15.195,29.963-15.337,40.33-.142,8.094.426,17.041,6.532,23a20.779,20.779,0,0,0,20.449,4.686C116.175,650.853,117.311,628.984,114.755,615.209ZM95.726,643.894c-10.508,3.124-10.082-11.645-9.8-17.893a71.054,71.054,0,0,1,1.42-13.349c.568-2.84,1.7-10.082,3.976-12.5a.5.5,0,0,0,.284-.142,5.2,5.2,0,0,0,3.266-.568,32.138,32.138,0,0,1,1.846,2.84,65.2,65.2,0,0,1,3.408,7.1,50.947,50.947,0,0,1,2.84,12.212C103.536,628.132,103.82,641.48,95.726,643.894Z" transform="translate(30.62 245.891)"/>
    <path id="Path_249" data-name="Path 249" class="cls-4" d="M398.949,571.131c-4.4-5.112-10.65-7.1-16.9-4.118s-9.088,9.372-10.082,15.9a38.8,38.8,0,0,0-.568,5.4c.568,10.792.71,29.4,11.218,39.052,4.4,4.118,10.792,5.254,16.047,1.988,5.964-3.692,8.236-11.218,9.514-17.751C410.736,598.254,408.037,581.782,398.949,571.131Zm-3.408,39.336c-.426,1.988-1.278,8.094-4.4,7.242-2.272-.71-3.266-7.952-3.834-9.94-2.84-11.645-2.13-24.141-2.272-24.567.71-2.7,1.988-5.254,4.4-3.692,2.414,1.42,4.118,7.242,4.828,9.514A40.9,40.9,0,0,1,395.541,610.467Z" transform="translate(155.969 237.569)"/>
    <path id="Path_250" data-name="Path 250" class="cls-4" d="M537.565,320.471c-28.259,11.786-58.08,18.177-88.043,22.863a55.374,55.374,0,0,0-8.094,1.278c-34.791,4.97-69.725,9.088-104.658,13.633-8.946,1.136-9.088,15.337,0,14.2,34.649-4.4,69.441-8.52,104.09-13.491,3.55,42.318,8.378,84.351,14.485,126.385a3209.8,3209.8,0,0,0-329.026-45.726c1.846-12.78,3.976-25.561,5.4-38.341a45.676,45.676,0,0,0,5.822,4.544,78.93,78.93,0,0,0,18.177,7.81c11.786,3.55,24.567,0,26.271-13.775,1.42-10.934-6.674-25.135-14.911-31.951-4.686-3.834-10.366-4.97-16.189-5.822-7.952-.994-15.195-3.692-22.579-6.958-12.5-5.538-25.7-10.792-39.62-7.384-5.68,1.42-12.78,4.828-15.9,10.082a8.843,8.843,0,0,0-1.42,5.4,10.714,10.714,0,0,0,.71,9.94c3.124,4.97,9.514,5.822,14.769,6.958,10.508,2.414,22.153,4.26,31.667,9.94-1.42,17.183-4.26,34.223-6.674,51.264a12.428,12.428,0,0,0-.284,2.272,3.529,3.529,0,0,0-.142,1.136c-2.982,21.3-4.828,42.744-5.822,64.186-2.13,46.578-.568,93.3-1.42,140.017-.284,17.467-.994,34.933-2.272,52.258h-.284c-8.946-1.7-12.07,6.674-3.124,8.52.994.142,1.278,5.538,2.272,5.822-.426,4.544,6.532,9.514,5.964,14.059-.994,9.088,5.822,8.52,6.816-.426.426-3.692.852-7.384,1.136-11.076,22.011,3.692,44.164,6.532,66.459,8.236,14.627,1.136,29.253,1.7,43.88,1.988,5.4,0,10.934-.142,16.473-.284a46.585,46.585,0,0,0-8.946,25.845c-.284,12.07,6.106,27.549,16.331,36.353-17.609,1.136-36.5-3.834-52.542-7.952-32.377-8.236-64.9-16.473-97.274-24.709-8.8-2.272-17.751,8.378-8.8,10.65,32.8,8.378,70.719,19.881,103.664,28.117,27.833,6.958,60.92,14.484,87.333-.994a30.2,30.2,0,0,0,3.55-2.272v.142c3.834,11.36,2.982,22.579,4.26,34.223,1.136,11.077,5.538,20.733,15.763,25.987a96.991,96.991,0,0,0,13.064,5.4,35.6,35.6,0,0,0,21.159,5.112c1.136.142,2.13.426,3.266.568,6.39,1.136,12.78-6.816,6.958-11.928a37.145,37.145,0,0,0-32.235-8.946,38.763,38.763,0,0,1-6.816-3.55c-9.372-6.248-6.958-20.023-7.668-29.679a81.713,81.713,0,0,0-6.816-27.975,36.471,36.471,0,0,0,6.532-14.059c2.556-12.5-2.7-26.129-10.082-36.069a41.621,41.621,0,0,0-9.088-8.946,8.293,8.293,0,0,0-.568-2.556c-39.477-90.315-83.641-181.909-157.342-249.645a6.667,6.667,0,0,0-2.272-1.42c.568-5.4,1.136-10.792,1.846-16.047a3147.611,3147.611,0,0,1,332.009,46.294,3.126,3.126,0,0,0,1.136.142c9.514,63.05,25.135,140.443,40.33,202.358,2.13,8.8,12.638-9.656,10.508-18.6a2124.17,2124.17,0,0,1-41.608-218.546c10.082,4.118,15.053-5.4,16.473-16.473,3.266-14.343-.852-37.063-18.745-31.241-.284.142-.426.142-.71.284a10.954,10.954,0,0,0-2.7,1.136c-2.414-20.591-4.4-41.324-6.106-62.056,29.537-4.686,58.79-11.076,86.481-22.579C549.636,330.7,546.086,316.921,537.565,320.471ZM287.352,754.44a23.1,23.1,0,0,1-.142,13.207,80.939,80.939,0,0,0-12.354-13.775c-6.816-6.106-16.9,3.976-10.082,10.082a72.224,72.224,0,0,1,13.491,15.9c-1.136.852-2.272,1.7-3.55,2.556a38.214,38.214,0,0,1-4.118,2.272,6.4,6.4,0,0,0-4.4-1.562c-11.076-.142-19.171-17.893-19.6-27.123-.426-8.236,5.112-25.135,15.195-26.7a13.288,13.288,0,0,1,2.272.568C276.133,732.571,284.086,742.8,287.352,754.44ZM264.2,714.962h-1.7c-16.047-3.124-34.365-.994-49.986-1.42a692.884,692.884,0,0,1-96.848-9.8c5.4-72.139-.284-144.845,5.112-216.984C186.528,549.952,227.709,632.6,264.2,714.962ZM469.261,436.348a5.328,5.328,0,0,0,.142-1.42c.284,1.136.426,2.272.568,2.84,0,.426.142.852.142,1.278a17.632,17.632,0,0,1-.426,3.834,8.431,8.431,0,0,1-.426-.994A10.471,10.471,0,0,1,469.261,436.348Z" transform="translate(29.565 134.352)"/>
    <path id="Path_251" data-name="Path 251" class="cls-3" d="M97.161,341.163c-.994-4.4-5.4-7.952-10.082-4.686-8.8,6.39-22.437,5.112-27.549,16.331-4.4,9.8,1.7,24.567,11.5,29.111a8.538,8.538,0,0,0,11.5-3.834,10.239,10.239,0,0,0,.426-7.668c-.284-1.136-3.692-6.248-3.55-6.674-.426.852,7.81-.284,8.378-.284a25.58,25.58,0,0,0,7.81-2.13,15.051,15.051,0,0,0,8.662-13.348C104.546,343.293,100.853,341.021,97.161,341.163Z" transform="translate(24.356 140.784)"/>
    <path id="Path_252" data-name="Path 252" class="cls-5" d="M238.174,16.518c-9.94-2.7-22.011-4.544-32.8-2.7-21.017,3.408-25.987,21.727-26.129,23A40.254,40.254,0,0,0,187.9,68.918c6.39,7.952,15.479,14.059,20.591,22.863,6.39,11.076-1.562,26.271,6.39,36.211,8.52,10.508,22.721,1.846,30.247-5.254,8.236-7.81,13.633-18.035,22.153-25.419,9.94-8.52,18.035-15.763,18.745-29.821C287.308,41.369,260.895,22.625,238.174,16.518Z" transform="translate(75.051 5.473)"/>
    <path id="Path_253" data-name="Path 253" class="cls-3" d="M323.794,332.088a15.638,15.638,0,0,0-2.556-.284,15.194,15.194,0,0,0-2.272-1.988c-2.7-1.988-5.964.426-6.532,3.124-2.272-2.414-6.39-1.988-7.526,1.42-.284-.426-.426-.852-.71-1.278-1.7-2.7-6.816-2.982-7.952.426h0c-1.988-2.272-5.822-1.278-7.1,1.136-2.272-1.136-5.4-.568-6.248,2.7-2.13,8.094,6.674,17.751,11.36,23.715s13.774,4.544,20.307,2.272a17.932,17.932,0,0,0,9.656-7.81,2.633,2.633,0,0,0,.994-.284C337,350.833,336.717,334.5,323.794,332.088Z" transform="translate(118.655 138.214)"/>
    <path id="Path_254" data-name="Path 254" class="cls-6" d="M402.967,386.386c-4.4-9.23-8.662-18.461-13.065-27.691-11.218-24-7.242-23.431-18.6-47.43,2.13-20.733,1.988-41.608-1.7-62.766-4.4-24.709-13.065-48.708-24.141-71-10.082-20.165-24.283-39.761-44.874-50.412-17.183-8.8-46.436-9.372-75.973,7.81-59.074,34.365-70.009,107.5-77.677,145.129C113.844,367.784,79.053,414.929,73.94,429.84c-1.278,3.692.142,8.094,2.84,10.792,24,24.283,51.122-10.082,66.316-26.7,8.378-9.23,16.615-18.6,24.425-28.4-2.272,11.786-4.544,23.573-6.39,35.5-1.988,13.349-3.834,28.543,9.656,36.211,19.029,10.65,42.6,12.5,64.612,13.065,2.7.426,5.254.852,7.952,1.136,11.36,1.7,22.863,3.692,33.655,7.526,10.65,3.692,20.733,8.8,32.235,9.514,23.147,1.278,34.933-18.887,37.915-39.051a333,333,0,0,0,3.266-41.182c7.952,15.195,8.946,15.053,11.928,19.313,4.4,5.964,11.644,7.242,17.325,2.272,9.8-8.378,33.8,1.562,33.229-18.461C413.049,402.717,406.517,393.629,402.967,386.386Z" transform="translate(30.82 50.828)"/>
    <path id="Path_255" data-name="Path 255" class="cls-7" d="M302.3,28.807c-3.55-11.076-12.212-17.467-23.289-19.881C267.22,6.37,227.742-9.534,210.7,8.642c-3.834,4.118-18.177,23.573-18.177,29.963-18.461-4.4-28.827-7.384-47.288-11.786a5.323,5.323,0,0,0-6.39,3.55c-.142.284-.142.426-.284.71a5.072,5.072,0,0,0,2.414,5.822c.142.142,30.957,7.242,49.986,11.786.142.284,40.756,10.792,52.684,14.343,11.076,3.266,42.034,14.2,53.536,15.621C300.875,78.935,308.4,47.41,302.3,28.807Z" transform="translate(58.076 0)"/>
    <path id="Path_256" data-name="Path 256" class="cls-1" d="M335.9,335.826c-1.136-27.407-2.84-54.956-4.26-82.363-.71-13.775-1.42-27.407-2.13-41.182-.568-12.07,1.136-32.377-5.68-44.732-11.218-20.023-35.359-26.7-57.086-26.129-23.573.568-48.14,4.118-69.3,15.195a155.132,155.132,0,0,0-6.674-20.875c-.426-.994-1.136-2.84-1.136-2.84l-12.213,9.088s.71,1.7.994,2.556c4.828,12.781,7.668,26.413,9.372,40.046,2.556,20.733,4.4,41.892,3.55,62.624s-5.4,41.04-16.331,58.932c-7.242,11.786-16.473,22.437-25.845,32.661-.568.71-1.846,1.988-1.846,1.988L144.9,365.079a20.831,20.831,0,0,0,1.42-1.562c10.792-11.786,22.153-23.431,31.951-36.211-.71,10.65-1.562,24.709,3.692,33.655,5.538,9.514,19.455,10.792,29.253,12.638a271.594,271.594,0,0,0,38.767,3.834c10.65.426,71,.994,80.8-16.189a37.791,37.791,0,0,0,4.26-11.786A60.129,60.129,0,0,0,335.9,335.826Z" transform="translate(60.827 55.805)"/>
  </g>
</svg>
