<svg xmlns="http://www.w3.org/2000/svg" viewBox="354 4530 344.318 990.016">
  <defs>
    <style>
      .cls-1 {
        fill: #f5bc8e;
      }

      .cls-2 {
        fill: #442d1d;
      }

      .cls-3 {
        fill: #566688;
      }

      .cls-4 {
        fill: #f5dfce;
      }
    </style>
  </defs>
  <g id="Group_182" data-name="Group 182" transform="translate(354.002 4530.032)">
    <path id="Path_172" data-name="Path 172" class="cls-1" d="M115.527,665.555c-3.137-16.969-6.7-33.8-10.838-50.481a8.674,8.674,0,0,0-8.413-7.13c-3.28-2-7.843-1.283-11.123,1.284a7.826,7.826,0,0,0-5.276,1.426c-6.845,5.134-6.132,10.125-4.563,19.109,1.711,9.7,5.276,19.394,7.986,28.806,2.282,8.128,3.422,19.536,12.121,23.244,3.993,1.711,3.565,1.711,7.273-.57l1.711-1.283a13.992,13.992,0,0,0,5.134-2.852A10.7,10.7,0,0,0,115.527,665.555Z" transform="translate(31.638 258.515)"/>
    <path id="Path_173" data-name="Path 173" class="cls-1" d="M256.363,667.571s-19.536-36.078-28.663-50.623c-2.709-4.278-6.7-5.134-10.267-4.136-3.85-.856-7.843,1.284-10.125,4.706a7.636,7.636,0,0,0-4.563,2.995c-4.848,6.987-7.273,13.832-2.852,21.818,4.706,8.556,25.24,29.376,25.24,29.376S244.1,683.4,246.809,680.12a11.9,11.9,0,0,0,1.141-1.711,16.233,16.233,0,0,0,3.993-4.278A20.619,20.619,0,0,0,256.363,667.571Z" transform="translate(84.169 260.918)"/>
    <path id="Path_174" data-name="Path 174" class="cls-1" d="M216.976,367.614c-2.567-6.845-9.269-11.123-6.845-4.278a9.832,9.832,0,0,0,.428,1.141,4.8,4.8,0,0,0-1.426,3.993,1.809,1.809,0,0,0,.143.856,7.95,7.95,0,0,0-4.135.713c-3.28-4.135-11.551-1-9.982,5.276,1.854,7.415,2.424,13.547,1.141,21.1-1,5.989-1.854,11.408,0,17.255a6.1,6.1,0,0,0,6.417,3.993,6.065,6.065,0,0,1-.285,1.569c-.57,2.567-2,4.991-1.711,7.7a8.386,8.386,0,0,0,6.987,7.986c4.421.713,7.13-2.282,9.269-5.847C228.527,408.683,225.1,389.432,216.976,367.614Z" transform="translate(83.057 153.322)"/>
    <path id="Path_175" data-name="Path 175" class="cls-1" d="M17.709,330.98a12.892,12.892,0,0,0-7.273,1.141c-7.415,3.565-8.984,14.973-9.412,22.246-.57,7.843,1.711,18.253,8.984,22.388,6.417,3.85,14.688.143,16.827-6.845l.143-.285a11.369,11.369,0,0,0,.428-2.139,8.212,8.212,0,0,0,.713-4.135c-.143-4.849-1.141-10.7,2.709-14.118C40.525,340.391,28.119,326.274,17.709,330.98Z" transform="translate(0.402 140.616)"/>
    <path id="Path_176" data-name="Path 176" class="cls-2" d="M328.637,764.109c-4.563-8.556-62.032-111.371-82.281-147.45A424.762,424.762,0,0,0,217.408,571.6c-1.711-60.605,10.267-144.455,5.419-204.918-.57-6.417-3.565-12.406-8.556-15.829a19.387,19.387,0,0,0-18.823-15.686,11.523,11.523,0,0,0-2.282.143,18.628,18.628,0,0,0-16.542-9.839,18.1,18.1,0,0,0-13.69,5.989,17.49,17.49,0,0,0-13.4-5.7c-10.98,0-18.538,8.841-19.251,19.251-.143,2.139-.285,4.135-.428,6.274-.143-1.141-.285-2.424-.428-3.565A10.853,10.853,0,0,0,128,343.436c-2.852-9.127-11.836-12.691-20.249-11.693-2.139-13.4-19.679-18.538-30.089-12.121a18.356,18.356,0,0,0-13.262,7.7A17.851,17.851,0,0,0,46.572,331.6a18.28,18.28,0,0,0-10.41,5.276C25.894,347,23.613,351.849,13.631,362.259,1.937,374.523.369,387.927,3.649,404.041c5.419,27.807,50.766,184.954,61.319,225.88C71.812,656.588,92.2,749.564,98.621,762.113c6.845,13.547,45.347-2.281,45.347-3.565-.143-9.7-7.415-65.6-9.554-77.575-3.993-23.1-7.273-46.2-10.125-69.447-5.7-47.629-8.556-95.543-10.7-143.457,13.119-2.567,10.98,5.419,12.121,10.7,4.991,21.961,21.39,110.658,27.094,128.484.57,1.711,99.678,133.475,139.321,184.526C298.405,799.9,335.339,776.658,328.637,764.109Z" transform="translate(0.915 135.005)"/>
    <path id="Path_177" data-name="Path 177" class="cls-3" d="M125.99,651.645c2.424,4.849,3.137,20.82-1.283,24.955-1.141,3.85-64.884,39.358-69.589,27.38-3.85-9.7,21.533-37.362,32.656-49.34a55.988,55.988,0,0,0,4.991-5.562l31.23-4.278,2,6.845Z" transform="translate(23.314 274.706)"/>
    <path id="Path_178" data-name="Path 178" class="cls-3" d="M261.39,657.845c2.424,4.849,3.137,20.82-1.283,24.955-1.141,3.851-64.884,39.358-69.589,27.38-3.85-9.7,21.533-37.362,32.656-49.34a56.05,56.05,0,0,0,4.991-5.561L259.394,651l2,6.845Z" transform="translate(80.996 277.347)"/>
    <path id="Path_179" data-name="Path 179" class="cls-4" d="M312.868,475.672c-3.28-18.538-18.966-182.1-74.153-280.924-18.966-34.082-49.91-56.327-83.992-72.3-1-.856-39.786-1.141-40.5-.428C35.651,166.227,18.4,260.629,6.56,342.91A684.694,684.694,0,0,0,0,423.194a15.666,15.666,0,0,0,13.547,15.4c4.991.57,11.265-1.426,14.688-5.7,12.549,12.406,27.95,20.677,44.919,26.952,23.1,8.556,47.486,14.4,71.728,18.538,13.4,2.282,26.809,3.993,40.356,5.134,12.549,1.141,43.493,1.283,43.493,1.283s2.424-28.52,3.422-41.069c1-13.832,3.422-70.16,3.565-72.3,4.278,10.98,12.549,46.916,16.542,58.039,6.56,17.825,12.691,35.793,18.538,53.9C273.8,492.071,314.579,484.8,312.868,475.672Z" transform="translate(0 51.824)"/>
    <path id="Path_180" data-name="Path 180" class="cls-1" d="M136.464,106.3c-.285-18.681-.428-13.69-3.565-32.228a7.063,7.063,0,0,0-2.282-3.993,9.55,9.55,0,0,0-3.85-5.419,10.681,10.681,0,0,0-.57-2.282,18.549,18.549,0,0,0-5.276-9.554,37.614,37.614,0,0,0-4.278-12.977c-18.11-32.941-60.32-8.841-68.734,19.394-7.415,25.1-8.128,63.315,13.119,81.711,7.415,6.417,17.54,8.556,26.952,7.13.57,8.841,1.283,17.683,1.854,26.666.285,3.85,50.766,5.134,50.2-5.134C139.316,147.228,137.89,121.275,136.464,106.3Z" transform="translate(18.402 10.217)"/>
    <path id="Path_181" data-name="Path 181" class="cls-2" d="M156.614,29.96c-1.141-.57-21.675-8.556-31.515-10.838C113.264,16.413,87.881,2.866,87.168,2.438a30.026,30.026,0,0,0-24.813.428c-12.549,5.7-18.538,20.392-14.831,33.8,3.708,12.977,15.686,20.107,28.378,22.1,5.7.856,15.4,2.567,19.536,12.549C98.005,77.3,99,83.72,104.565,87.143c3.85,2.424,10.267,2.852,12.834,6.7,2.852,4.135-1,9.269-.856,13.832.143,6.987,4.848,13.262,11.693,14.688,12.549,2.567,25.24-13.975,31.515-22.816C172.3,81.3,181,43.079,156.614,29.96Z" transform="translate(19.784 0)"/>
    <path id="Path_182" data-name="Path 182" class="cls-2" d="M32.548,185.7c-9.554,22.959-16.114,47.771-21.248,72.584,23.244,5.276,46.345,10.41,69.589,15.686,47.629,10.7,96.4,24.1,145.6,22.959,15.116-.285,30.089-2.424,45.062-4.991,2.852-.428,5.7-1,8.413-1.426a675,675,0,0,0-22.388-72.441c-1.569.285-3.28.57-4.848.856-2.709.428-7.843,2.424-10.41,1.711,5.7-.713,6.417-.856,2-.285-1.854.143-3.708.428-5.419.57-7.273.57-14.688.713-21.961.57s-14.688-.713-21.961-1.426c-2.424-.285-14.545-.57-3.708-.285-3.565-.143-7.415-1.141-10.98-1.711-14.118-2.424-28.092-5.419-42.067-8.556C102.993,201.529,67.77,193.686,32.548,185.7Z" transform="translate(4.815 79.124)"/>
  </g>
</svg>
