<svg xmlns="http://www.w3.org/2000/svg" viewBox="291 11420 768.417 925.461">
  <defs>
    <style>
      .cls-1 {
        fill: #f5bc8e;
      }

      .cls-2 {
        fill: #566688;
      }

      .cls-3 {
        fill: #f3dfce;
      }

      .cls-4 {
        fill: #442d1d;
      }

      .cls-5 {
        fill: #f5dfce;
      }

      .cls-6 {
        fill: #f7a354;
      }

      .cls-7 {
        fill: #dca9b7;
      }
    </style>
  </defs>
  <g id="Group_188" data-name="Group 188" transform="translate(291.115 11420.033)">
    <path id="Path_280" data-name="Path 280" class="cls-1" d="M404.22,563.887c-.644-15.7-1.158-31.408-1.8-47.112a6.462,6.462,0,0,0-.257-1.545c0-7.852,0-15.575.257-23.427.129-6.694-7.852-8.624-11.328-4.763a6.142,6.142,0,0,0-6.307,5.664c-.257,2.575-.515,5.02-.772,7.595a5.148,5.148,0,0,0-2.317,1.287c-3.862,3.476-3.089,8.5-2.961,13.258,0,5.793.258,11.585.515,17.378.644,12.229,1.931,24.329,3.733,36.429C383.625,572.125,404.349,566.2,404.22,563.887Z" transform="translate(108.772 139.334)"/>
    <path id="Path_281" data-name="Path 281" class="cls-2" d="M434.7,574.821v-.129c-.129-1.673,12.744-133.614,17.892-171.458,1.287-9.4,10.04-58.183-11.456-67.451-56.9-24.715-115.979-32.309-174.419-24.071-2.317-1.8,69.639,90.234,57.8,70.154a498.653,498.653,0,0,1,82,1.8c.129.258.386.515.515.772-11.456,29.992-9.912,63.2-8.109,94.611A873.358,873.358,0,0,0,411.4,582.545C411.654,583.188,435.6,575.207,434.7,574.821Z" transform="translate(76.624 88.624)"/>
    <path id="Path_282" data-name="Path 282" class="cls-3" d="M380.345,542.581c.129.515-2.574,12.615,2.188,16.863.644,4.119,46.34,17.635,48.786,16.219.386,0,10.427-.644,5.02-9.654-6.951-11.456-31.794-30.893-32.7-31.28V534.6Z" transform="translate(109.091 153.56)"/>
    <path id="Path_283" data-name="Path 283" class="cls-4" d="M329.685,570.238c-29.22-15.833-63.2-19.566-95.9-18.922-41.706.772-83.541,6.565-124.99,10.555-9.011.9-9.139,15.061,0,14.16,33.854-3.347,67.708-7.208,101.691-9.526,29.864-2.06,60.5-2.188,89.462,6.565,13.645,4.119,29.735,10.555,39.647,20.982,4.505,4.763,6.565,10.684,1.931,16.09-5.02,5.921-13,6.951-20.209,6.436-8.753-.644-17.506-3.476-26-5.278-8.882-1.931-17.764-3.476-26.774-4.891-16.863-2.7-33.854-4.505-50.974-5.535a534.48,534.48,0,0,0-59.212-.257c-19.18,1.03-42.993,6.951-61.658,1.03-8.753-2.7-9.011,10.426-.386,13.13,18.279,5.792,37.2,1.416,55.866.257a517.884,517.884,0,0,1,119.969,6.307c8.882,1.545,17.764,3.347,26.646,5.278,9.654,2.188,19.566,4.891,29.477,4.248,14.16-1.03,29.735-10.684,30.25-26.388C358.905,587.744,342.558,577.189,329.685,570.238Z" transform="translate(25.879 158.342)"/>
    <path id="Path_284" data-name="Path 284" class="cls-4" d="M586.583,466.965c-53.162-4.119-105.553,9.268-154.081,30.121-24.071,10.3-47.37,22.4-70.283,35.141-11.2,6.307-22.4,12.615-32.953,20.081-10.941,7.595-21.368,15.833-32.824,22.784a198.977,198.977,0,0,1-50.2,21.5c16.476-75.174,29.735-153.051,12.357-229.255-2.06-8.882-15.7-5.149-13.645,3.733,17.378,76.075,2.574,154.21-13.9,229-4.248.772-17.378,2.574-21.625,3.089-8.882,1.03-.129,14.159,8.882,13.13a220.067,220.067,0,0,0,69.639-20.338c23.17-11.328,42.478-28.577,64.619-41.706,45.053-26.9,93.453-51.36,144.427-64.49,29.349-7.466,59.47-10.813,89.591-8.5C595.723,481.9,595.594,467.737,586.583,466.965Z" transform="translate(59.122 104.058)"/>
    <path id="Path_285" data-name="Path 285" class="cls-4" d="M341.871,558.828c-10.3-7.852-24.2-8.625-36.042-3.99a54.449,54.449,0,0,0-20.467,14.674c-12.1,11.07-18.407,28.705-19.437,44.667-1.545,23.427,13.13,41.577,36.943,43.379,10.427.772,21.368-1.8,29.735-8.367,9.139-7.08,14.546-19.18,18.922-29.606C359.635,599.633,360.793,573.374,341.871,558.828Zm.772,46.984c-2.832,10.427-8.367,23.427-15.833,31.28-7.08,7.466-18.922,9.139-28.576,6.951-10.555-2.317-17.635-9.526-19.308-20.338-1.8-11.714,1.287-25.745,8.238-36.428a6.748,6.748,0,0,0,1.287-1.416,47.364,47.364,0,0,1,3.862-5.02c3.218-3.347,10.684-10.169,14.417-12.357a30.8,30.8,0,0,1,7.466-2.832c10.555-2.574,20.724,1.287,26.131,10.942C345.475,585.6,345.347,596.029,342.643,605.812Z" transform="translate(76.381 158.552)"/>
    <path id="Path_286" data-name="Path 286" class="cls-4" d="M221.869,388.708c-48.786,70.54-85.987,148.16-122.8,225.264-3.862,8.238,8.238,15.318,12.229,7.208,36.815-77.234,74.015-154.724,122.8-225.393C239.246,388.322,227.018,381.242,221.869,388.708Z" transform="translate(28.272 110.745)"/>
    <path id="Path_287" data-name="Path 287" class="cls-1" d="M292.186,574.385c-.772-5.406-9.268-8.5-11.971-2.446l-.772,1.931a5.928,5.928,0,0,0-2.961,2.06,5.257,5.257,0,0,0-5.278,3.218c-.644,1.287.772-11.2.129-9.912-1.287.386-10.427,40.419-12.229,48.013-.772,3.347,22.655,19.308,24.2,12.744,6.05-25.616,3.218-25.616,9.268-51.232A6.967,6.967,0,0,0,292.186,574.385Z" transform="translate(74.449 163.333)"/>
    <path id="Path_288" data-name="Path 288" class="cls-2" d="M280.554,312.857c-2.317-1.8-4.634-3.6-7.08-5.278a14.315,14.315,0,0,0-12.1-2.188c-9.268-4.119-19.952,2.06-23.3,10.813a15.871,15.871,0,0,0-9.4,3.6A19.14,19.14,0,0,0,221.728,335c-3.99,5.406-4.248,12.872-1.159,19.308,12.486,25.873,32.438,47.112,52.776,66.936,14.674,14.288,30.25,28.705,43.122,44.023L328.31,481.1c.386.386.644.9,1.03,1.287-6.822,8.882-10.941,20.081-14.674,30.765-7.08,20.724-29.091,105.939-36.428,145.328-3.476,3.476,29.477,10.684,28.963,7.852,11.971-41.835,17.764-51.1,35.141-91.007q14.481-33.21,31.28-65.262c23.17-44.023-23.556-106.968-35.4-126.92C365.768,381.466,339.123,304.619,280.554,312.857Z" transform="translate(62.782 87.351)"/>
    <path id="Path_289" data-name="Path 289" class="cls-3" d="M262.6,595.3c-3.475,3.476-9.011,16.734-6.565,21.625-.257,3.6,43.122,53.034,50.845,44.409,7.852-8.882-14.8-55.351-15.318-58.183L262.6,595.3Z" transform="translate(73.399 170.995)"/>
    <path id="Path_290" data-name="Path 290" class="cls-1" d="M459.332,225.6c-1.03,0-30.765,2.317-34.5,4.891a6.356,6.356,0,0,0-2.317,2.574.126.126,0,0,0-.129.129,6.76,6.76,0,0,0-2.961,4.119l-.386,1.158a7.251,7.251,0,0,0,.386,4.377c-.772,3.218.515,6.951,4.377,7.723,2.961.644-1.8-5.921,1.158-6.179,8.5,4.505,23.556,5.149,31.022,2.832a59.516,59.516,0,0,0,7.466-2.7c.644,6.822,11.328,9.268,12.486,1.673C477.482,235.385,470.917,225.216,459.332,225.6Z" transform="translate(120.339 64.805)"/>
    <path id="Path_291" data-name="Path 291" class="cls-5" d="M329.284,172.665c-.9-10.04-7.981-18.665-18.665-18.665-9.4,0-19.566,8.624-18.665,18.665.644,6.951,1.03,13.773,1.287,20.6-5.921,3.089-9.525,9.525-10.3,16.605-2.06,18.793-3.99,37.716-6.05,56.509-3.347,20.209-8.5,40.161-16.605,58.955-2.317,5.406-3.218,10.941-1.287,16.09-.644.772-1.159,1.545-1.8,2.317a13,13,0,0,0-2.317,5.278c-3.733,1.931-7.595,3.733-11.456,5.406-9.268,3.99-11.328,17.635-6.694,25.487,5.535,9.525,16.219,10.684,25.487,6.694,10.169-4.377,32.824-4.634,41.964-29.091A418.73,418.73,0,0,0,329.284,172.665Z" transform="translate(67.344 44.242)"/>
    <path id="Path_292" data-name="Path 292" class="cls-1" d="M306.678,51.55c-4.763-4.119-11.971-5.149-16.348.9-.772,1.159-1.545,2.188-2.317,3.347h-1.159a13.613,13.613,0,0,0-7.08,1.931,14.468,14.468,0,0,0-5.792,4.119l-2.7,3.862a18.757,18.757,0,0,0-2.06,9.525c.258,1.673.644,3.218.9,4.891a21.471,21.471,0,0,0,1.03,2.574c-1.931,4.634-3.862,9.268-5.664,14.031a217.912,217.912,0,0,0-7.595,20.6c-1.931,6.307,3.218,13.258,9.268,14.546a11.42,11.42,0,0,0,8.109-1.03,12.364,12.364,0,0,0,4.119,3.218,12.847,12.847,0,0,0,3.475,2.832,14.319,14.319,0,0,0,19.823-6.179c3.476-6.822,4.505-15.7,6.565-23.041,3.862-14.674,9.268-29.606,10.04-44.924C319.679,55.412,313.114,51.293,306.678,51.55Z" transform="translate(73.988 13.85)"/>
    <path id="Path_293" data-name="Path 293" class="cls-1" d="M352.19,32.3c-7.466-25.487-45.7-47.112-62.044-17.506A36.9,36.9,0,0,0,286.284,26.5a17.272,17.272,0,0,0-4.763,8.624c-3.347,14.031-1.931,30.25,1.8,44.023,3.218,12.1,10.427,23.427,21.368,29.477,11.07,6.05,25.873,5.921,35.656-2.574C359.4,89.449,358.755,55.08,352.19,32.3Z" transform="translate(80.351 0.152)"/>
    <path id="Path_294" data-name="Path 294" class="cls-6" d="M370.576,11.08C356.288-2.179,334.405-2.694,316.126,4.9c-15.061,6.307-20.982,15.962-29.864,28.319-4.248,5.921-10.04,17.764-37.33,27.547a158.239,158.239,0,0,0-30.25,14.159c-16.09,9.011-30.765,21.239-39,38.1-9.525,19.695-9.268,43.122,3.862,60.757,7.981,14.417,24.457,24.586,41.964,23.17a69.193,69.193,0,0,0,41.449-18.15c9.654-8.753,48.4-50.974,63.331-92.165,2.317-6.307.515-21.625,10.555-30.893,5.664-5.278,24.843-12.872,30.121-14.932C389.627,33.606,380.1,19.962,370.576,11.08Z" transform="translate(49.736 0)"/>
    <path id="Path_295" data-name="Path 295" class="cls-7" d="M456.514,243.575a182.631,182.631,0,0,1-26-6.436c-2.7-.9-5.535-1.931-8.109-3.089q-25.68-56.574-55.737-111.088c-11.2-18.279-36.042-22.269-50.2-18.922-33.082,10.427-49.687,36.3-60.5,55.866-22.784,41.062-80.323,171.716-81.1,172.746a35.652,35.652,0,0,0-2.188,2.961,109.719,109.719,0,0,1-12.1,12.357c-.386.257-2.7,2.06-3.089,2.317-1.545,1.03-3.089,2.06-4.763,2.961-3.476,2.188-7.08,4.119-10.555,6.436a82.469,82.469,0,0,0-19.308,17.249c-11.585,14.546-18.536,32.181-18.665,50.974-.129,19.308,6.951,37.587,15.447,54.578,13.773,27.289,30.507,60.113,58.569,75.174,10.04,5.406,21.239,7.723,32.438,4.248,9.783-2.961,17.506-9.912,24.071-17.378,26.9-30.25,49.944-76.461,55.994-93.967,5.793-16.863,11.2-33.725,16.219-50.845a1017.179,1017.179,0,0,0,35.785-193.341c4.505,6.951,9.011,13.773,13.516,20.724,12.615,19.18,24.329,40.419,41.835,55.737,2.832,2.574,19.437,7.208,36.686,8.238,14.546.9,29.22,1.03,43.894.9,10.684-.129,33.082-.9,42.736-1.159a4.9,4.9,0,0,0,4.763-4.634l2.06-23.17a4.824,4.824,0,0,0-3.99-5.278C510.835,254.774,469.772,245.892,456.514,243.575Z" transform="translate(29.962 29.584)"/>
    <path id="Path_296" data-name="Path 296" class="cls-4" d="M259.8,525.515c-11.2-23.814-28.963-43.251-53.42-52.905-3.475-1.545-5.664-2.961-7.981-3.218-33.082-4.891-65.906-7.595-97.443,5.921-25.358,10.813-45.182,30.765-60.113,53.549C24.748,553.447,13.806,581.9,6.6,610.343c-7.981,31.795-10.427,66.421,1.545,97.443,10.04,26.259,28.576,48.657,55.093,59.341,28.448,11.456,62.559,9.654,90.878-1.287,29.349-11.2,51.489-31.408,69.51-56.767,18.794-26.646,35.013-56.252,43.122-88.046C274.856,588.975,273.826,555.636,259.8,525.515ZM255.29,599.53c-4.119,28.963-16.477,56.252-31.537,80.967-14.8,24.328-31.794,47.756-56.9,62.3-23.3,13.387-51.36,19.308-78.135,15.189-26.9-4.248-48.142-19.952-60.757-44.023-13.258-25.1-14.8-54.45-10.04-82a267.048,267.048,0,0,1,26.646-78.907c12.615-23.942,30.121-46.34,54.192-59.6,28.062-15.447,61.014-14.159,91.908-10.04.386.129.9.386,1.287.515C240.873,497.325,261.726,553.061,255.29,599.53Z" transform="translate(0 133.683)"/>
    <path id="Path_297" data-name="Path 297" class="cls-4" d="M641.288,517.17c-11.07-18.922-27.933-34.111-47.112-44.924-15.318-8.753-52.519-21.754-80.58-10.813-.644.257-1.287.644-1.931.9-42.993,20.338-76.976,58.569-96.284,102.077-13.13,29.735-20.338,62.044-22.784,94.482-2.317,30.893-3.347,65.648,12.229,93.453,13.645,24.457,40.548,38.874,67.837,41.32,31.022,2.832,61.014-9.01,85.987-26.774,48.657-34.755,82-90.363,93.066-148.8C658.022,584.492,659.052,547.548,641.288,517.17ZM639.1,598.394c-6.05,53.034-31.022,103.622-70.154,140.05-20.853,19.566-46.984,36.042-75.817,39.518-24.329,2.961-51.489-4.248-67.965-23.17-19.051-22.011-19.051-54.45-18.021-81.868,1.03-29.606,6.05-59.727,16.348-87.531,16.863-45.954,48.528-87.917,92.809-108,30.893-14.031,62.688,3.733,71.312,8.753C601,494,613.1,504.04,622.495,516.655,640.258,540.6,642.318,569.689,639.1,598.394Z" transform="translate(112.415 131.344)"/>
    <path id="Path_298" data-name="Path 298" class="cls-4" d="M123.3,574.741c-1.8-5.921-6.179-11.714-12.229-13.645a12.087,12.087,0,0,0-10.813,2.446,55.791,55.791,0,0,0-9.139,9.139C87,577.959,83.4,584.267,83.4,591.218c-.129,12.357,11.07,24.2,23.814,19.437C119.829,605.892,127.037,587.227,123.3,574.741Zm-13.258,13.9c-1.287,3.347-5.02,11.714-10.04,10.169-4.377-1.416-4.248-7.852-3.089-11.2.772-2.317,5.02-9.911,8.5-12.229a3.886,3.886,0,0,1,3.476-.644,10.374,10.374,0,0,1,2.317,4.376C111.977,582.207,111.2,585.683,110.046,588.643Z" transform="translate(23.987 161.046)"/>
    <path id="Path_299" data-name="Path 299" class="cls-4" d="M519.636,584.073a25.023,25.023,0,0,0-12.743-16.09c-5.535-2.574-10.427-.9-14.932,2.188-11.843,6.436-18.021,21.625-14.546,34.626,3.218,11.971,16.605,20.467,28.577,15.576C518.864,614.966,522.21,596.3,519.636,584.073Zm-12.486,10.04c-.386,5.535-1.673,15.318-9.268,14.674-6.179-.515-8.882-6.951-8.625-12.486a17.911,17.911,0,0,1,9.783-15.318,2.693,2.693,0,0,0,.772-.515c2.574-.772,4.634,1.416,6.05,3.862C507.665,587.419,507.407,590.766,507.15,594.113Z" transform="translate(136.882 162.785)"/>
    <path id="Path_300" data-name="Path 300" class="cls-4" d="M538.91,531.329c.515-27.933-3.733-54.063-10.427-81.1-3.862-15.7-7.852-31.408-11.714-47.112a7.86,7.86,0,0,0,2.574-1.159,36.839,36.839,0,0,0,5.535,4.505c3.476,2.188,7.337,1.287,9.912-1.8a26.554,26.554,0,0,0,5.921-15.189c1.158-6.565.643-14.031-1.673-19.308s-7.466-9.654-13.13-10.427c-6.822-1.545-12.357,4.119-15.318,10.169a20.531,20.531,0,0,0-1.287,2.961c-.386-1.8-.9-3.476-1.287-5.278-7.08-29.477-11.714-58.183-4.763-89.72.386-1.545.9-12.872,0-16.734a34.441,34.441,0,0,0-14.546-21.11c-6.951-4.634-15.061-6.179-23.3-6.565a149.672,149.672,0,0,0-16.991-.129,4.574,4.574,0,0,0-1.287-.257c-3.218-.257-6.565-.515-9.783-.772-7.981-.644-9.783,10.169-3.99,13.258,1.03,1.545,20.982,1.673,25.487,1.8,6.05.129,12.744,0,18.407,2.446A20.555,20.555,0,0,1,489.223,263.2c1.416,4.763-1.545,18.021-1.158,19.308-4.763,22.784-2.7,46.083,1.931,68.867,5.535,27.933,13.258,55.479,20.081,83.026,6.822,27.675,14.417,55.093,14.8,83.8.386,27.8-.772,56.509-4.376,84.056a408.426,408.426,0,0,1-8.882,46.34c-1.673,6.951-3.6,13.9-5.406,20.724-1.673,6.05,12.357,8.109,14.546.129,1.416-5.02,2.7-9.912,3.99-14.932,3.089-13,5.921-26,8.11-39.132C537.366,587.709,538.4,559.261,538.91,531.329Z" transform="translate(123.529 66.726)"/>
    <path id="Path_301" data-name="Path 301" class="cls-1" d="M466.8,233.122a.126.126,0,0,0-.129-.129,1.637,1.637,0,0,0-1.8-.9,1.7,1.7,0,0,0-1.545-.257c-.129-.129-.257-.386-.515-.515a1.963,1.963,0,0,0-2.574-.129h0a1.741,1.741,0,0,0-2.832.257,2.067,2.067,0,0,0-1.416.644c-.9-.772-1.8-1.545-2.7-2.188a111.993,111.993,0,0,0-3.99,2.574c-.515-.129-1.158-.386-1.673-.515h-.258c-.9-.644-1.8-1.545-2.832-2.446-1.8-1.673-4.505,1.03-2.7,2.7a22.548,22.548,0,0,0,5.921,4.505c3.862,3.089,6.822,6.822,10.427,10.427,2.06,2.06,5.02,3.6,7.852,2.188C471.7,246.766,471.31,236.726,466.8,233.122Z" transform="translate(126.768 65.782)"/>
    <path id="Path_302" data-name="Path 302" class="cls-4" d="M279.788,627.151a19.589,19.589,0,0,0-5.406-.773,48.85,48.85,0,0,0-15.7-1.03c-4.505.515-7.595,4.763-6.951,8.624a7.7,7.7,0,0,0,5.02,8.5c7.337,2.446,23.685,6.565,26.774-3.99a3.229,3.229,0,0,0,.515-.9C286.1,633.33,284.422,628.438,279.788,627.151Z" transform="translate(72.302 179.563)"/>
    <path id="Path_303" data-name="Path 303" class="cls-4" d="M412.624,560.331c-1.03-.644-2.188-1.287-3.218-1.8a6.911,6.911,0,0,0-2.832-1.673,40.592,40.592,0,0,0-15.7-1.931c-4.763.386-8.238,5.793-6.822,9.912-1.931,2.832-3.991,5.664-5.793,8.5a120.722,120.722,0,0,1-10.941,15.575c-7.337,8.367-18.15,15.7-29.735,13.258-8.882-1.931-12.743,11.714-3.733,13.645,15.962,3.476,31.151-3.733,42.092-15.318,5.921-6.307,10.555-13.645,15.189-20.982,1.287-2.06,3.218-4.505,5.02-7.08a14.031,14.031,0,0,0,3.347.386,26.312,26.312,0,0,0,9.525.644C415.842,572.817,418.932,564.45,412.624,560.331Z" transform="translate(94.447 159.367)"/>
  </g>
</svg>
