<svg xmlns="http://www.w3.org/2000/svg" viewBox="334 10054.762 393.266 907.535">
  <defs>
    <style>
      .cls-1 {
        fill: #422d1e;
      }

      .cls-2 {
        fill: #f5bc8e;
      }

      .cls-3 {
        fill: #402d1e;
      }

      .cls-4 {
        fill: #f5dfce;
      }

      .cls-5 {
        fill: #b85d3f;
      }

      .cls-6 {
        fill: #92b3c8;
      }

      .cls-7 {
        fill: #ffeee0;
      }
    </style>
  </defs>
  <g id="Group_195" data-name="Group 195" transform="translate(334.107 10054.801)">
    <path id="Path_319" data-name="Path 319" class="cls-1" d="M31.283,162.056c-1.353-9.227-3.568-18.331-5.659-27.435-2.338-10.334-22.022.369-22.022,4.06-.246,1.23,4.429,24.483,6.4,32.849,0,.246.123.369.123.615,0,6.521,8.612,12.3,14.887,6.521-3.076,2.953.369.615,1.6-.246a13.185,13.185,0,0,0,4.06-4.183C32.76,170.422,31.9,166.116,31.283,162.056Z" transform="translate(0.852 30.002)"/>
    <path id="Path_320" data-name="Path 320" class="cls-2" d="M135.644,673.575c-4.306-5.167-14.271-1.845-15.133,4.552a.74.74,0,0,1-.123.492,8.916,8.916,0,0,0-3.2,6.767c-.246,7.5-1.353,14.887-1.968,22.391-.492,6.4-1.476,14.271.738,20.423a9.268,9.268,0,0,0,9.1,6.4c4.429-.123,9.1-3.691,10.581-12.3C139.581,700.765,139.458,678.127,135.644,673.575Z" transform="translate(26.41 154.543)"/>
    <path id="Path_321" data-name="Path 321" class="cls-2" d="M174.493,341.968c-.861-9.1-54.379,1.968-59.177,2.953-4.8,32.726-.369,326.642-.123,444.5,0,14.148,17.593,17.716,20.3,7.874,38.877-140.745,26.82-192.91,26.82-192.91C166.619,565.02,179.66,368.173,174.493,341.968Z" transform="translate(26.069 77.94)"/>
    <path id="Path_322" data-name="Path 322" class="cls-2" d="M295.74,641c-6.151-2.584-13.533,4.8-11.442,10.95,0,.123.123.369.123.492a8.984,8.984,0,0,0,.369,7.5c3.2,6.767,5.659,13.779,8.489,20.792,2.461,5.905,5.29,13.41,9.965,17.716a9.541,9.541,0,0,0,10.95,1.6c3.937-2.215,6.4-7.382,3.814-15.748C311.857,663.39,301.276,643.337,295.74,641Z" transform="translate(65.375 147.504)"/>
    <path id="Path_323" data-name="Path 323" class="cls-2" d="M231.627,322.273c-3.937-8.243-64.467,21.038-68.527,23.745,4.429,20.3,18.946,143.329,58.439,246.427,23.252,60.653,84.029,131.641,101.007,165.474,6.4,12.672,23.129.369,20.3-9.6-31.126-110.357-77.016-169.042-77.016-169.042C267.675,584.694,245.653,345.033,231.627,322.273Z" transform="translate(37.585 73.89)"/>
    <path id="Path_324" data-name="Path 324" class="cls-1" d="M354.038,684.559c-9.6-33.833-31.126-86.859-31.126-86.859l-37.278,23.868s39.615,55.732,48.1,72.587C340.012,706.827,356.744,694.524,354.038,684.559ZM114.5,644.943s.492,62.007.492,84.767c0,14.148,17.593,17.716,20.3,7.874,9.842-35.432,20.669-90.057,20.669-90.057Z" transform="translate(26.393 137.654)"/>
    <path id="Path_325" data-name="Path 325" class="cls-3" d="M144.493,705.724c-7.382-1.968-22.022-1.722-22.022-1.722s-26.082,15.133-34.694,22.145c-3.322,2.707-6.521,5.782-6.274,10.089.123,4.06,3.445,7.259,7.5,8.489,4.429,1.23,9.227.369,13.656,0,4.552-.369,24.729-3.691,35.063-5.413a8.619,8.619,0,0,0,7.013-7.382C145.478,722.579,146.954,706.339,144.493,705.724Z" transform="translate(18.791 162.133)"/>
    <path id="Path_326" data-name="Path 326" class="cls-3" d="M317.385,669.1c-7.382,1.6-20.423,8.612-20.423,8.612s-16.24,25.467-20.669,35.555c-1.722,3.814-3.2,8.12-.984,11.934,1.968,3.568,6.4,4.921,10.457,4.06,4.429-.861,8.366-3.937,12.18-6.274,3.937-2.461,20.177-14.641,28.666-20.915a8.467,8.467,0,0,0,2.83-9.719C326,683.62,319.846,668.61,317.385,669.1Z" transform="translate(63.169 154.095)"/>
    <path id="Path_327" data-name="Path 327" class="cls-2" d="M320.426,373.631c-.123-13.164-20.3-153.171-61.515-192.787a10.236,10.236,0,0,0-3.814-2.215l-.738-1.476c-4.552-8.243-19.193-2.707-15.748,6.521a9.038,9.038,0,0,0-2.953,11.319c.123.246.123.369.246.615a9.21,9.21,0,0,0-5.044,12.426c10.457,22.76,20.915,45.644,31.372,68.4,6.767,17.47,30.634,81.691,35.186,94.855-5.659,9.842-.984,45.029,2.338,50.811,3.2,5.536,11.688,5.659,14.887,0C322.148,408.694,320.426,375.723,320.426,373.631Z" transform="translate(52.993 39.879)"/>
    <path id="Path_328" data-name="Path 328" class="cls-2" d="M133.019,210.478c-1.6-7.5-8.735-9.473-15.379-8.735a10.626,10.626,0,0,0-4.8.369c-2.83-1.722-6.4-1.845-8.981.738-3.445-3.2-9.35-4.06-12.8.984a446,446,0,0,0-26.82,44.906c-.615-1.23-1.23-2.461-1.968-3.691C50.59,223.4,33.243,192.885,32.627,192.27h0c-.738-3.076-1.476-6.028-2.338-9.1-2.461-9.1-4.675-32.234-12.18-38.754-4.8-4.183-15.748,15.01-16.363,16.855A30.87,30.87,0,0,0,7.9,192.516a26.122,26.122,0,0,0,4.429,3.691c0,.615,4.675,33.341,13.41,55.486Q32.2,267.933,39.763,283.8c1.476,3.076,9.473,19.07,23.129,20.915,10.95,1.476,22.022-11.811,23.622-13.41a178.944,178.944,0,0,0,29.773-38.139,216.235,216.235,0,0,0,10.088-19.931C129.205,226.964,134.373,217.368,133.019,210.478Z" transform="translate(0 33.129)"/>
    <path id="Path_329" data-name="Path 329" class="cls-1" d="M188.076,395.177c-.738-10.211-16.24-17.1-27.312-16.609a20.56,20.56,0,0,0-8.489,2.091A30.905,30.905,0,0,0,133.7,373.4c-15.994-.369-25.713,13.656-26.7,28.174-.738,10.211-8-.123-8,10.211,0,5.536.369,227.727,0,235.6-.492,10.334,9.965,9.842,20.177,9.35,2.953-.123,33.095-1.722,43.183-1.722,10.827.123,19.07,1.476,19.316-9.1C183.4,588.948,192.013,452.017,188.076,395.177Z" transform="translate(22.82 85.999)"/>
    <path id="Path_330" data-name="Path 330" class="cls-1" d="M243.878,361.258c-3.322-9.719-21.407,3.445-31.988,6.89a23.313,23.313,0,0,0-7.751,4.183,29.581,29.581,0,0,0-19.808-2.092c-15.625,3.814-21.284,19.808-18.577,34.079,1.968,10.088-13.9-2.953-11.2,7.013,1.476,5.29,59.054,204.6,60.653,212.348,2.215,10.088,14.271,16.978,24.114,13.9,2.83-.861,31.5-10.334,41.338-12.8,10.581-2.707,16.363-13.779,13.9-24.114C281.4,545.063,262.332,415.267,243.878,361.258Z" transform="translate(35.546 82.395)"/>
    <path id="Path_331" data-name="Path 331" class="cls-4" d="M311.991,195.243c-8-11.2-23.13-46.505-69.512-69.758-16.732-8.366-62.007-14.271-88.458-1.968C141.6,129.3,132.368,134.59,125.478,140,93.368,162.64,78.358,188.845,70.484,199.8c-4.429,6.028-7.628,13.533-7.382,21.161.369,9.473,6.644,15.625,13.656,20.792,7.259,5.413,14.517,10.7,21.9,15.994-.246,21.284-.246,45.275-.123,67.051a13.372,13.372,0,0,0-.123,2.215,822.749,822.749,0,0,1-4.183,102.975C92.383,447.453,100.5,522.255,155.62,538c4.306,1.23,9.6-1.353,10.581-6.028,2.953-13.9,5.782-27.682,8.612-41.584,2.83,15.5,5.659,30.88,8.366,46.382.861,4.675,6.275,6.644,10.581,6.028,42.322-6.028,88.827-43.675,93.379-47.12,10.827-8.366,8.735-144.067-.738-244.336,6.4-4.675,12.8-9.227,19.069-14.025,7.013-5.29,13.287-11.442,13.656-20.792C319.618,208.776,316.42,201.271,311.991,195.243Z" transform="translate(14.554 26.834)"/>
    <path id="Path_332" data-name="Path 332" class="cls-2" d="M164.01,64.127c10.088-1.23,23.5,5.413,24.114,17.1.738,14.517,3.2,52.9,1.107,57.332-.246.492-.492,1.107-.738,1.6-4.306,9.6-14.025,6.151-24.483,3.691-10.827-2.461-15.748-2.461-15.871-13.041-.123-15.256-.615-28.666-1.23-42.691C146.293,77.414,151.953,65.727,164.01,64.127Z" transform="translate(33.846 14.743)"/>
    <path id="Path_333" data-name="Path 333" class="cls-2" d="M120.54,27.781c11.073-7.136,21.776-16.24,34.325-12.3a14.289,14.289,0,0,1,6.767,2.707c19.562,14.148,35.432,35.186,33.464,57.7-.984,10.581-19.808,33.341-27.066,41.584a21.376,21.376,0,0,1-11.319,6.89c-4.675,1.6-9.473.615-14.025-1.722a30.866,30.866,0,0,1-6.521-4.183A66.958,66.958,0,0,1,124.108,105.9C116.111,95.2,104.055,38.485,120.54,27.781Z" transform="translate(25.889 3.354)"/>
    <path id="Path_334" data-name="Path 334" class="cls-5" d="M217.082,32.366c-1.968-13.41-9.965-24.606-23.253-28.789-6.151-1.968-13.041-2.091-19.439-1.476-3.322.369-20.423,2.215-25.1,3.691a32.4,32.4,0,0,0-4.306-3.076c-6.028-3.568-14.025-4.06-19.562.861a14.423,14.423,0,0,0-4.306,7.628,2.094,2.094,0,0,0-.123.861,19.174,19.174,0,0,0-4.552-2.091C102.3,6.406,96.883,22.892,102.173,33.35a26.807,26.807,0,0,0,13.779,12.8c1.845,1.968,41.215,16.24,55.609,10.7,16.609-6.4,19.931,7.874,18.577,17.962-1.845,14.517-13.533,31.372-2.461,33.218,3.445.615,7.013,3.568,10.211-.984C209.577,90.927,218.8,44.545,217.082,32.366Z" transform="translate(23.096 0)"/>
    <path id="Path_335" data-name="Path 335" class="cls-6" d="M298.871,240.738c0-2.338.123-4.675.123-7.013l8.12.738a36.511,36.511,0,0,0,8.366-9.1c-5.413-.492-10.827-.984-16.363-1.476.123-6.767.246-13.533.492-20.3.246-8.858.492-17.716.615-26.574-2.707-4.06-5.782-8.489-9.473-13.164v2.215c-16.363-1.722-32.726-3.2-49.089-4.675.738-11.934,1.476-23.868,2.338-35.8-.738-.369-1.476-.861-2.338-1.23A73.34,73.34,0,0,0,234.4,121.4c-.861,13.041-1.722,25.959-2.584,39-17.47-1.476-35.063-2.953-52.533-4.183.984-13.533,1.353-18.823,2.461-32.234q-4.983.369-9.965,1.107c-.984,12.918-1.353,17.593-2.338,30.511-14.271-.984-28.543-1.968-42.814-2.83.615-5.536,1.23-11.2,1.845-16.732-1.353.984-2.707,1.968-3.937,2.83-2.338,1.722-4.675,3.322-6.767,5.044-.246,2.707-.615,5.413-.861,8.243-1.107-.123-2.215-.123-3.445-.246-1.6-.123-3.322-.123-4.921-.246-3.445,3.076-6.767,6.275-9.719,9.35,5.659.246,11.319.615,16.978.984-1.353,13.041-2.707,26.082-4.06,39.246-2.707-.369-5.413-.738-8.12-1.23-10.581-1.6-21.161-3.2-31.618-4.921q-1.292,2.03-2.584,3.691a47.553,47.553,0,0,0-3.322,5.29c14.887,2.338,29.773,4.675,44.66,6.89-1.353,14.025-2.584,28.051-3.691,41.953-2.338-.369-4.552-.738-6.89-1.107-4.06-.615-8.12-1.353-12.18-2.091,3.2,2.338,6.4,4.675,9.719,7.013v4.429c2.83.492,5.659.984,8.612,1.476-1.107,13.779-2.215,27.682-3.2,41.461-1.845-.123-3.691-.246-5.536-.246v9.842c1.6.123,3.2.123,4.8.246-1.23,16.978-2.215,33.956-3.2,51.057-.492,0-1.107-.123-1.6-.123-.123,3.322-.246,6.521-.369,9.842.492,0,.984.123,1.353.123-.861,15.994-1.722,32.111-2.338,48.1a15.685,15.685,0,0,1-2.338-.123c-.246,2.091-.369,4.06-.615,6.151-.123.984-.123,2.215-.246,3.691a19.925,19.925,0,0,1,2.707.123L95.012,450.5c0,1.476-.123,2.953-.123,4.306a152.279,152.279,0,0,0,8.858,31.865c.123-3.076.123-6.275.246-9.35,14.64,1.476,29.4,2.83,44.044,4.306-.984,17.347-1.845,34.694-2.707,52.041a58.775,58.775,0,0,0,9.227,3.322c.123,0,.246.123.492.123.861-18.208,1.845-36.294,2.83-54.5,20.546,1.968,40.969,3.691,61.515,5.536-.246,15.5-.369,31-.492,46.5,3.322-1.23,6.644-2.707,9.842-4.183.123-13.9.246-27.682.369-41.584,18.823,1.6,37.524,3.2,56.347,4.552v1.6c.246-.123.369-.369.492-.369,9.842-7.628,8.981-120.815,1.6-216.777-17.47-1.968-34.817-4.06-52.287-6.274.615-14.764,1.353-29.527,2.091-44.29,17.1,1.968,34.079,3.691,51.18,5.413-.123,5.044-.246,10.211-.246,15.256C292.228,245.536,295.549,243.076,298.871,240.738Zm-173.1-78.247c14.394.861,28.789,1.845,43.183,2.83-1.107,14.394-2.215,28.912-3.2,43.306-14.64-1.968-29.4-3.937-44.044-6.151C122.939,189.189,124.293,175.9,125.769,162.492ZM120.6,212.811v-.492c14.764,2.092,29.527,4.183,44.29,6.151-.984,14.271-2.091,28.666-3.076,42.937-15.01-2.215-30.019-4.552-45.029-6.89C118.141,240.615,119.372,226.713,120.6,212.811Zm29.281,239.784c-.369,6.4-.738,12.8-.984,19.193-14.764-1.353-29.527-2.83-44.29-4.306.369-11.442.738-23.006,1.23-34.448,15.01.615,30.019,1.107,45.152,1.845Zm1.6-27.559c-15.133-.615-30.142-1.23-45.275-1.845.738-15.871,1.476-31.742,2.338-47.612,15.256,1.353,30.388,2.707,45.644,4.06C153.2,394.894,152.343,410.026,151.482,425.036Zm3.322-54.994c-8.735-.738-17.593-1.6-26.328-2.338-6.4-.615-12.918-1.23-19.316-1.722.984-17.1,2.092-34.2,3.2-51.426,15.256.861,30.511,1.845,45.767,2.83C157.019,334.856,155.911,352.449,154.8,370.042Zm-31.249-64.713c-3.568-.246-7.013-.369-10.58-.615.984-13.533,1.968-26.943,3.076-40.477,15.01,2.461,30.019,4.675,45.152,6.89-.861,12.18-1.6,24.237-2.461,36.417C147.053,306.8,135.242,306.067,123.555,305.329Zm96.455,161.66c0,3.691-.123,7.5-.123,11.2-20.423-1.722-40.723-3.568-61.146-5.536.738-12.426,1.353-24.975,2.092-37.4q29.9,1.292,59.792,2.953C220.379,447.8,220.133,457.393,220.01,466.989Zm.738-38.631c-19.808-.984-39.615-1.968-59.423-2.83.861-15.01,1.722-29.9,2.707-44.906,19.316,1.722,38.508,3.322,57.824,4.921ZM222.1,375.7c-19.193-1.6-38.385-3.2-57.578-4.921L167.845,318c18.7,1.23,37.278,2.584,55.978,4.06C223.208,340.023,222.716,357.862,222.1,375.7Zm2.215-63.36q-27.866-2.215-55.732-4.06c.738-11.934,1.6-23.745,2.338-35.678,18.208,2.584,36.417,5.167,54.625,7.5C225.177,290.811,224.685,301.638,224.316,312.341Zm1.722-42.076c-18.208-2.338-36.294-4.921-54.5-7.5.984-14.394,1.968-28.789,3.076-43.183,17.839,2.338,35.678,4.552,53.518,6.521C227.391,240.984,226.776,255.625,226.038,270.265Zm2.707-53.764c-17.839-2.091-35.555-4.183-53.395-6.521.246-2.83.369-5.659.615-8.489.861-11.811,1.722-23.622,2.707-35.432,17.593,1.353,35.063,2.707,52.656,4.183C230.344,185.621,229.483,201,228.745,216.5Zm57.209,259.838V483.6c-18.7-1.476-37.524-2.953-56.224-4.552.246-13.41.369-26.82.738-40.231,18.577.984,37.155,2.091,55.855,3.2C286.076,453.456,286.076,464.9,285.953,476.339Zm.369-44.167c-18.577-1.107-37.155-2.215-55.732-3.2.369-14.148.615-28.42,1.107-42.568l54.994,4.429C286.568,404.49,286.322,418.392,286.322,432.172Zm.492-51.3c-18.331-1.476-36.54-2.83-54.871-4.429.492-17.839,1.107-35.8,1.722-53.641,17.962,1.476,35.8,2.953,53.764,4.675C287.183,345.313,286.937,363.152,286.814,380.868Zm1.353-93.133c-.123,9.965-.369,19.931-.492,30.019-17.839-1.6-35.678-3.2-53.518-4.675.369-10.581.861-21.161,1.353-31.742C252.981,283.675,270.574,285.767,288.168,287.735Zm-49.7-70.127c.615-11.442,1.23-22.76,1.845-34.2l.738-12.18c16.486,1.476,32.972,3.076,49.335,4.8-.369,15.625-.738,31.372-1.107,47C272.42,221.3,255.442,219.454,238.464,217.609Z" transform="translate(15.247 27.966)"/>
    <path id="Path_336" data-name="Path 336" class="cls-7" d="M214.23,120.291a113.062,113.062,0,0,0-20.3-3.691c-6.4,4.429-15.379,6.644-22.022,6.89a35.335,35.335,0,0,1-19.562-4.8,69.309,69.309,0,0,0-14.517,4.8c-1.476.738-2.953,1.353-4.429,2.091,10.334,10.827,25.713,16.24,40.6,15.01C187.9,139.237,206.356,133.086,214.23,120.291Z" transform="translate(30.746 26.861)"/>
  </g>
</svg>
