<svg xmlns="http://www.w3.org/2000/svg" viewBox="317 5910 425.255 947.965">
  <defs>
    <style>
      .cls-1 {
        fill: #f5bc8e;
      }

      .cls-2 {
        fill: #422d1e;
      }

      .cls-3 {
        fill: #442d1d;
      }

      .cls-4 {
        fill: #8db3c9;
      }

      .cls-5 {
        fill: #f5dfce;
      }

      .cls-6 {
        fill: #b15e42;
      }

      .cls-7 {
        fill: #e0ac82;
      }

      .cls-8 {
        fill: #9e543b;
      }

      .cls-9 {
        fill: #92b3c8;
      }

      .cls-10 {
        fill: #7a9aad;
      }
    </style>
  </defs>
  <g id="Group_181" data-name="Group 181" transform="translate(316.971 5909.962)">
    <path id="Path_146" data-name="Path 146" class="cls-1" d="M328.79,144.748h0a337.974,337.974,0,0,0-22.784-56.112,12.931,12.931,0,0,0-3.272-4.121c-.606-1.575-32.358,18.664-30.419,24.6a495.09,495.09,0,0,0,24.844,60.232C302.007,178.8,329.154,145.717,328.79,144.748Z" transform="translate(57.684 17.884)"/>
    <path id="Path_147" data-name="Path 147" class="cls-1" d="M282.482,645.205c2.909,49.083,8.6,141.673.606,148.823a15.282,15.282,0,0,1-14.058,3.393c-6.908-1.939-8.968-7.15-9.332-13.573-2.787-48.6-15.876-133.311-17.694-182.03C240.913,577.217,282,638.055,282.482,645.205Z" transform="translate(51.274 126.294)"/>
    <path id="Path_148" data-name="Path 148" class="cls-2" d="M292.046,756.529c.485,4.605,3.272,19.027-1.454,21.572-6.787,3.636-69.807,10.907-70.291,0-.364-8.968,28-23.754,40.357-30.177,3.151-1.575,8.6,11.029,8.6,11.029l22.784-2.424Z" transform="translate(46.679 158.462)"/>
    <path id="Path_149" data-name="Path 149" class="cls-3" d="M330.517,348.833c-6.666-4.605-13.937-.969-21.815-2.06-20.118-2.909-46.053-7.635-66.292-6.544-4.605.242-10.18,8.847-10.786,12.119-19.876,119.374-10.544,240.687,9.816,359.334,5.817,33.934,9.453,52.84,16.6,86.41,2.666,12.119,35.024,8.12,35.267,1.7,2.909-71.382.848-142.764,8.483-213.782,3.878-35.267,32.843-176.213,36.721-211.843C339.728,364.345,339.97,355.5,330.517,348.833Z" transform="translate(46.747 72.059)"/>
    <path id="Path_150" data-name="Path 150" class="cls-1" d="M327.085,644.155c9.938,48.234,28.965,139.007,22.057,147.248a15.552,15.552,0,0,1-13.452,5.454c-7.15-.848-9.938-5.817-11.271-12.119-9.817-47.75-35.025-129.554-43.871-177.546C276.185,582.832,325.631,637.126,327.085,644.155Z" transform="translate(59.389 127.344)"/>
    <path id="Path_151" data-name="Path 151" class="cls-2" d="M352.08,753.82c1.212,4.484,5.938,18.421,1.7,21.572-6.181,4.605-67.5,20.845-69.564,10.18-1.575-8.726,24.238-27.511,35.509-35.63,2.788-2.06,10.18,9.695,10.18,9.695l22.178-5.817Z" transform="translate(60.209 158.867)"/>
    <path id="Path_152" data-name="Path 152" class="cls-3" d="M329.641,345.44c-7.272-3.636-13.937,1.091-21.936,1.091-20.36,0-46.659-.848-66.534,3.151-4.605.969-8.847,10.3-8.847,13.452-2.3,121.071,24.36,239.718,61.687,354.123,10.665,32.722,16.967,50.9,28.965,83.138,4.363,11.634,35.873,2.909,35.146-3.394-7.393-71.018-19.875-141.31-22.42-212.692-1.333-35.388,6.908-179.122,5.817-214.873C341.033,359.377,340.064,350.53,329.641,345.44Z" transform="translate(49.198 72.906)"/>
    <path id="Path_153" data-name="Path 153" class="cls-4" d="M342.568,124.535c-8.6-6.544-17.936-1.575-24.6,5.332a11.747,11.747,0,0,0-3.515,2.666c-14.664,15.876-47.992,36.964-65.322,87.743-15.755,45.932-27.268,172.214-20.481,185.908,3.151,6.3,38.539,7.635,54.779,6.423,14.907-1.091,30.661-1.939,45.326-5.09,14.543-3.151,24.966-13.089,29.328-27.147,3.878-12.846,3.272-27.026,4.242-40.236,2.3-32.116,7.514-63.5,13.452-95.136C381.107,215.308,372.5,147.441,342.568,124.535Z" transform="translate(48.027 25.735)"/>
    <path id="Path_154" data-name="Path 154" class="cls-1" d="M207.034,506.961c-10.422-3.636-23.39,4.242-31.51,10.18a145.358,145.358,0,0,0-30.177,30.177c-4-3.757-11.15-4.726-15.391,1.091C101.476,588.524,6.583,761.465,9.612,771.766a15.644,15.644,0,0,0,10.18,10.423c6.787,2.06,11.513-1.333,15.149-6.544,28.238-39.751,125.312-200.209,152.7-240.566C201.459,514.6,221.819,511.93,207.034,506.961Z" transform="translate(2.016 107.231)"/>
    <path id="Path_155" data-name="Path 155" class="cls-1" d="M151.546,489.315c-10.786,2.545-17.573,16-21.33,25.329a149.479,149.479,0,0,0-9.574,41.569c-5.332-1.091-12,1.939-12.362,9.089-2.909,49.083,8.6,246.019,16.6,253.291a15.283,15.283,0,0,0,14.058,3.393c6.908-1.939,9.332-7.15,9.332-13.573.242-51.628.848-144.945,2.666-193.786C151.91,589.9,166.695,485.8,151.546,489.315Z" transform="translate(22.843 103.669)"/>
    <path id="Path_156" data-name="Path 156" class="cls-2" d="M117.82,758.528c-.485,4.605-3.272,19.027,1.454,21.572,6.787,3.635,69.807,10.907,70.291,0,.364-8.968-28-23.754-40.357-30.177-3.151-1.576-8.6,11.029-8.6,11.029l-22.784-2.424Z" transform="translate(24.696 158.886)"/>
    <path id="Path_157" data-name="Path 157" class="cls-2" d="M10.659,719.6C7.75,723.236-2.188,734.022.479,738.627c3.878,6.666,53.446,46.3,59.505,37.327,4.969-7.393-11.15-34.9-18.179-46.9-1.818-3.03-13.21,4.848-13.21,4.848L10.659,719.6Z" transform="translate(0 152.489)"/>
    <path id="Path_158" data-name="Path 158" class="cls-5" d="M226.816,342.263c0-7.514-2.666-11.756-9.938-13.937-6.544-1.939-16.24.727-19.269,7.393a131.838,131.838,0,0,0-6.544,17.452c-.848-8.362-1.818-16.6-2.909-24.966-.97-7.271-9.332-12.6-16.119-12.846-7.15-.121-14.785,4.969-16.6,12.119-.242.848-.364,1.7-.606,2.545a17.585,17.585,0,0,0-7.514,2.787c.97-6.06,1.818-12.119,2.666-18.179,1.212-9.089-8.12-17.088-16.6-17.331-10.059-.242-16.118,7.514-17.33,16.6-2.06,16.118.97,16.118-1.939,31.631-1.454,7.635-8.362,24.481-11.513,31.51C83.809,419.584,69.388,518.113,55.572,589.858c-4.484,23.39-14.543,44.841-15.27,67.989-.606.848-1.091,1.576-1.575,2.181-3.03,4.605-5.7,9.453-6.666,14.907-1.7,9.453,2.909,20.724,12.6,23.875,5.211,1.7,10.18.485,15.028-1.7,4.363-1.818,5.7-1.454,9.089,2.181,7.15,7.514,12.725,17.331,24.238,18.421a19.6,19.6,0,0,0,13.816-4c3.878-2.909,6.423-6.908,11.634-6.787,10.059.121,19.148,8.12,28.117,11.877,9.453,3.878,20.36,5.454,29.571.121a39.761,39.761,0,0,0,5.211-4c.727-.727,2.545-3.03,3.757-3.757-.121.121.364.243.727.485,2.424,1.091,4.363,3.757,6.666,5.211,9.453,6.181,21.451,3.151,28.6-5.09,4.484-5.332,6.3-11.392,6.666-17.815,4-6.06,5.938-13.695,7.15-23.026C236.753,655.665,226.573,381.893,226.816,342.263Z" transform="translate(6.715 62.995)"/>
    <path id="Path_159" data-name="Path 159" class="cls-6" d="M220.19,409.759s-6.544-110.042-6.666-111.618c-4-63.747.606-80.835-34.54-119.738l-1.454-1.454a17.085,17.085,0,0,0-16.6-4.242,14.617,14.617,0,0,0-12,1.939c-.606.364-1.212.848-1.818,1.212-.121,0-.121,0-.242.121-14.543,5.09-28.844,16.24-37.933,29.207C83.728,240.818,72.7,460.781,72.7,460.781s22.542,5.211,56.354-2.424C182.863,446.117,220.19,409.759,220.19,409.759Z" transform="translate(15.4 36.461)"/>
    <path id="Path_160" data-name="Path 160" class="cls-1" d="M165.411,132.1c-3.272-1.333-7.514-.364-8.847,3.878-1.454-3.393-5.7-5.938-9.817-3.393-6.06,3.757-5.938,11.756-6.908,17.936-.848,5.454-1.7,10.786-2.545,16.24-3.636-.364-7.635,2.06-7.393,6.787.364,7.514,1.939,15.513,7.514,20.845,6.3,4.726,20.6,3.393,23.875-.485,5.575-6.544,6.423-16.846,8-24.966a191.519,191.519,0,0,0,3.515-31.025C172.8,133.794,168.926,131.734,165.411,132.1Z" transform="translate(27.52 27.868)"/>
    <path id="Path_161" data-name="Path 161" class="cls-1" d="M131.947,101.4c1.939-24.966,28.6-47.628,53.809-28,17.573,13.573,19.512,44.6,18.664,58.051-.606,11.756-5.09,23.632-13.937,31.267-8.968,7.756-22.663,10.422-33.328,4.484C136.31,155.448,130.25,123.575,131.947,101.4Z" transform="translate(27.899 13.97)"/>
    <path id="Path_162" data-name="Path 162" class="cls-1" d="M239.6,72.918c-.242-24.966,24.238-49.931,51.143-32.722,18.664,12,23.269,42.66,23.754,56.112.364,11.756-4.727,17.573-12.968,26.056s-23.269,20.724-34.3,15.755C245.3,128.423,239.721,95.1,239.6,72.918Z" transform="translate(50.769 7.304)"/>
    <path id="Path_163" data-name="Path 163" class="cls-7" d="M317.934,231.6c-2.666-3.878-6.787-4.242-10.786-2.787-8.847,2.909-18.058,7.756-24.117,15.028a30.34,30.34,0,0,0-5.938,10.786c-.606,2.424-2.666,15.634-2.666,17.452-11.513,11.271-25.814,20.118-39.63,27.874a275.5,275.5,0,0,1-26.9,13.089c-3.03,1.212-5.938,2.545-8.847,3.878-7.393-9.938-17.815-18.542-25.693-26.541-2.06-3.514-36.479-57.324-52.84-72.957-4.363-4.121-16.967-4.363-21.087,1.576C94.7,225.908,93,233.422,96.759,250.389c5.332,24,62.414,83.986,86.531,103.74,1.576,1.333,7.877,4.727,26.662.242,13.695-3.272,26.783-10.786,38.175-18.785a175.008,175.008,0,0,0,53.082-59.142c.606-.969,4.121-4.605,5.09-5.938a69.6,69.6,0,0,0,12.119-27.147C319.267,239.239,320.358,235.119,317.934,231.6Z" transform="translate(20.064 45.432)"/>
    <path id="Path_164" data-name="Path 164" class="cls-6" d="M120.7,213.507c-4.363-4.12-18.3-5.332-22.421.606-4.727,6.908-8.362,17.452-4.605,34.3,3.393,15.27,7.514,30.54,31.025,55.385,2.545-1.333,34.9-24.481,40.842-32.964C160.207,262.105,136.089,228.293,120.7,213.507Z" transform="translate(19.515 44.502)"/>
    <path id="Path_165" data-name="Path 165" class="cls-3" d="M332.152,7.748c-10.786-8.483-24.481-9.211-37.327-5.817-10.544,2.909-19.512,9.574-29.813,13.089-10.665,3.636-19.269,8.241-25.814,18.542l-.364.364c-11.15,11.513-5.454,30.662,8.12,37.448,13.21,6.544,24.723.848,37.812-1.818,9.211-1.939,21.451-.606,31.752-3.393,12.24-3.272,22.784-12.119,26.662-24.36C347.058,29.078,342.332,15.868,332.152,7.748Z" transform="translate(49.354 0)"/>
    <path id="Path_166" data-name="Path 166" class="cls-3" d="M329.974,39.97a6.928,6.928,0,0,0-.848-.97,3.011,3.011,0,0,1-.121-.97c-1.333-6.06-5.817-11.028-12.483-10.423a11.728,11.728,0,0,0-6.787,3.151A28.583,28.583,0,0,0,295.8,34.153a21.157,21.157,0,0,0-6.3,5.454c-8.6-.97-17.209.242-21.451,9.332a18.069,18.069,0,0,0,1.576,16.846c3.151,4.969,7.877,6.544,12.362,9.938,6.544,4.969,4.969,15.876,7.635,22.784,4.605,12,20.239,14.785,28.238,4.484,6.423-8.241,10.3-20.6,13.21-30.54C333.973,62.754,336.518,48.7,329.974,39.97Z" transform="translate(56.501 5.832)"/>
    <path id="Path_167" data-name="Path 167" class="cls-1" d="M341.726,181.625c-19.027-8.241-33.085,13.452-35.388,16.482-10.544,13.816-50.295,63.747-63.383,70.9-12.483,6.666-73.563,18.664-89.318,18.785-3.393-6.06-9.938-9.211-16.24-11.15-4.969-1.576-16.967-2.424-17.694-2.424-12.24.242-13.573,3.272-14.3,8.12-.242,1.454,2.909,12.846,2.909,13.331.364,20.239,33.812,15.028,34.782,14.664,1.091.364,75.987,19.148,143.006-20.118,13.816-8.12,66.534-76.23,66.05-85.44C351.785,203.076,356.754,188.169,341.726,181.625Z" transform="translate(22.328 38.088)"/>
    <path id="Path_168" data-name="Path 168" class="cls-8" d="M162.8,242.726c-8.968-9.938-19.391-18.664-29.207-27.753-3.393-3.151-8.6,1.939-5.09,5.09,7.15,6.544,14.543,13.089,21.451,19.875a114.557,114.557,0,0,1,9.211,9.574c4.969,6.06-1.454,12.362-4.848,17.694-2.545,3.878,3.757,7.635,6.3,3.636,2.909-4.363,7.635-9.574,8.483-14.907C169.831,250.725,166.074,246.362,162.8,242.726Z" transform="translate(26.979 45.339)"/>
    <path id="Path_169" data-name="Path 169" class="cls-9" d="M324.538,181.279a20.283,20.283,0,0,1-4.121-1.333c-18.421-6.666-32.843,12.362-35.146,15.391-10.544,13.816-50.295,67.019-63.383,74.048-3.151,1.7-9.332,3.757-17.088,5.817,3.757,11.634,10.544,27.632,15.028,39.024a170.173,170.173,0,0,0,47.022-19.148c13.816-8.12,66.9-80.229,66.413-89.44C332.9,203.821,338.959,193.762,324.538,181.279Z" transform="translate(43.395 37.828)"/>
    <path id="Path_170" data-name="Path 170" class="cls-3" d="M206.74,69.981c-9.7-13.452-20.845-14.3-37.085-13.331-14.422.848-31.146,10.059-40.357,21.815-10.665,13.695-9.211,28.844-15.27,44.477-2.545,6.666-10.059,9.211-16,12a106.517,106.517,0,0,0-9.817,4.969C74.762,145,63.733,155.179,59.37,169.237c-2.666,8.483-1.818,17.088.97,25.45,2.3,7.029,3.757,8.847,1.454,15.876C58.037,222.319,46.4,233.469,39.01,245.224a72.76,72.76,0,0,0-10.665,44.235c1.333,15.876,7.514,31.631,18.785,43.144,12.24,12.483,31.268,17.088,46.3,6.666,14.058-9.7,15.513-26.056,18.785-41.205,1.091-4.848,1.939-6.06,5.332-8.362,5.454-3.636,11.634-6.06,17.209-9.7,25.329-16.24,35.024-48.6,25.571-75.866,9.453-8.726,16.6-19.875,19.269-32.6,1.939-8.726-4.363-25.329-6.908-33.813-.485-1.454-8.6-27.753,10.423-40.963,4.605-3.151,23.148-8.362,28.117-16.24C213.405,77.131,207.1,70.344,206.74,69.981Z" transform="translate(5.946 11.937)"/>
    <path id="Path_171" data-name="Path 171" class="cls-10" d="M325.885,190.646c-.606-9.574-5.7-20.724-17.088-19.633-4.605.364-4.727,7.635,0,7.272,12.725-1.091,10.3,19.512,8.6,27.026-2.181,9.453-6.544,18.179-11.756,26.42-11.029,17.209-25.693,32.479-40.842,46.3-3.515,3.151,1.7,8.241,5.09,5.09,18.663-16.967,37.933-36.842,48.84-60.111C323.582,212.945,326.734,201.8,325.885,190.646Z" transform="translate(55.863 36.217)"/>
  </g>
</svg>
