<svg xmlns="http://www.w3.org/2000/svg" viewBox="204 -660 40.626 36.098"><defs><style>.cls-1 { fill: #f07474; }</style></defs><g id="PfbGly.tif_1_"><g id="Group_202" data-name="Group 202"><path id="Path_337" data-name="Path 337" class="cls-1" d="M207.61-623.9h-.657a2.962 2.962 0 0 1-1.64-.46 2.785 2.785 0 0 1-1.182-1.774 3.84 3.84 0 0 1-.13-.853v-.46c0-.065 0-.065.066-.13a3.8 3.8 0 0 1 .59-1.838c1.05-1.772 2.036-3.48 3.086-5.25 4.135-7.352 8.4-14.7 12.667-21.988.327-.59.72-1.18 1.05-1.772a2.853 2.853 0 0 1 2.1-1.444c.2-.065.458-.065.655-.13h.13c.264.066.592.066.854.13a3.1 3.1 0 0 1 1.9 1.38c.984 1.706 2.035 3.48 3.02 5.185 4.66 7.942 9.253 15.883 13.913 23.825a3.216 3.216 0 0 1 .46 1.247c.065.263.065.525.13.788v.263c0 .066 0 .13-.066.13-.066.264-.066.526-.13.79A2.54 2.54 0 0 1 242-624.1c-.2 0-.394.066-.59.066h-.526c-.2 0-.394-.066-.59-.066h-32.028a1.467 1.467 0 0 1-.656.2zm18.05-12.67a.5.5 0 0 1 .065-.262c.066-.656.2-1.313.263-2.035.13-1.247.328-2.428.525-3.675.13-1.116.328-2.3.525-3.413a6.782 6.782 0 0 0 .13-2.3 2.5 2.5 0 0 0-1.443-2.1 3.848 3.848 0 0 0-2.1-.328 2.648 2.648 0 0 0-2.3 2.166 6.38 6.38 0 0 0 .066 2.232c.264 1.706.46 3.413.723 5.12.2 1.51.394 2.952.59 4.462 0 .13.067.13.2.13h2.758zm-4.53 4.858c.066.2.066.46.13.722a3.157 3.157 0 0 0 4.858 1.575 2.876 2.876 0 0 0 .525-4.266 3.314 3.314 0 0 0-3.675-.79 2.936 2.936 0 0 0-1.838 2.758z"/></g></g></svg>