<svg xmlns="http://www.w3.org/2000/svg" viewBox="4429.5 -1318.5 80.87 92.002"><defs><style>.cls-1, .cls-5 { fill: none; stroke-miterlimit: 10; } .cls-1 { stroke: #8e8e8e; stroke-width: 1.5px; } .cls-2 { fill: #f9b8b8; } .cls-3 { fill: #d7d8d7; } .cls-4 { fill: #9fd4ad; } .cls-5 { stroke: #f9b8b8; }</style></defs><g id="Group_180" data-name="Group 180" transform="translate(4429.5 -1318.5)"><path id="Path_138" data-name="Path 138" class="cls-1" d="M46.697 80.23h-11.2a13.332 13.332 0 0 1-13.29-13.288v-39.17a13.332 13.332 0 0 1 13.29-13.288h11.27a13.332 13.332 0 0 1 13.288 13.29v39.17A13.437 13.437 0 0 1 46.697 80.23z"/><circle id="Ellipse_72" data-name="Ellipse 72" class="cls-2" cx="8.905" cy="8.905" r="8.905" transform="translate(34.104 20.05)"/><circle id="Ellipse_73" data-name="Ellipse 73" class="cls-1" cx="8.905" cy="8.905" r="8.905" transform="translate(31.878 17.893)"/><circle id="Ellipse_74" data-name="Ellipse 74" class="cls-3" cx="8.905" cy="8.905" r="8.905" transform="translate(34.104 40.018)"/><circle id="Ellipse_75" data-name="Ellipse 75" class="cls-1" cx="8.905" cy="8.905" r="8.905" transform="translate(31.878 37.86)"/><circle id="Ellipse_76" data-name="Ellipse 76" class="cls-3" cx="8.905" cy="8.905" r="8.905" transform="translate(34.104 60.75)"/><circle id="Ellipse_77" data-name="Ellipse 77" class="cls-1" cx="8.905" cy="8.905" r="8.905" transform="translate(31.878 58.663)"/><g id="Group_173" data-name="Group 173"><path id="Path_139" data-name="Path 139" class="cls-4" d="M43.775 3.84V2.727h1.67v-1.67h1.044v1.67h1.67V3.77h-1.67v1.67h-1.045v-1.6z"/></g><g id="Group_174" data-name="Group 174"><path id="Path_140" data-name="Path 140" class="cls-4" d="M3.63 68.543V67.5H5.3v-1.67h1.114v1.67h1.67v1.044h-1.67v1.67H5.3v-1.67z"/></g><g id="Group_175" data-name="Group 175"><path id="Path_141" data-name="Path 141" class="cls-4" d="M30.764 88.788v-1.043h1.67v-1.67h1.113v1.67h1.67v1.044h-1.67v1.67h-1.044v-1.67z"/></g><g id="Group_176" data-name="Group 176"><path id="Path_142" data-name="Path 142" class="cls-4" d="M69.726 52.68v-1.043h1.67v-1.67h1.044v1.67h1.67v1.044h-1.6v1.67h-1.044v-1.67z"/></g><g id="Group_177" data-name="Group 177"><path id="Path_143" data-name="Path 143" class="cls-4" d="M11.91 12.467v-.765h1.252V10.45h.765v1.25h1.253v.766h-1.252v1.253h-.765v-1.253z"/></g><g id="Group_178" data-name="Group 178"><path id="Path_144" data-name="Path 144" class="cls-4" d="M.778 51.01v-.56h.9v-.9h.557v.9h.9v.556h-.9v.9h-.622v-.9H.778z"/></g><g id="Group_179" data-name="Group 179"><path id="Path_145" data-name="Path 145" class="cls-4" d="M78.074 36.122v-.56h.9v-.9h.557v.9h.9v.556h-.9v.9h-.556v-.9z"/></g><circle id="Ellipse_78" data-name="Ellipse 78" class="cls-5" cx="2.713" cy="2.713" r="2.713" transform="translate(22.764 .5)"/><circle id="Ellipse_79" data-name="Ellipse 79" class="cls-5" cx="2.713" cy="2.713" r="2.713" transform="translate(9.266 78.214)"/><circle id="Ellipse_80" data-name="Ellipse 80" class="cls-5" cx="2.018" cy="2.018" r="2.018" transform="translate(.5 22.416)"/><circle id="Ellipse_81" data-name="Ellipse 81" class="cls-5" cx="2.018" cy="2.018" r="2.018" transform="translate(68.125 76.683)"/><circle id="Ellipse_82" data-name="Ellipse 82" class="cls-5" cx="1.6" cy="1.6" r="1.6" transform="translate(73.413 9.614)"/><circle id="Ellipse_83" data-name="Ellipse 83" class="cls-5" cx="1.6" cy="1.6" r="1.6" transform="translate(77.17 62.35)"/><circle id="Ellipse_84" data-name="Ellipse 84" class="cls-5" cx="1.6" cy="1.6" r="1.6" transform="translate(69.17 28.33)"/><circle id="Ellipse_85" data-name="Ellipse 85" class="cls-5" cx="1.322" cy="1.322" r="1.322" transform="translate(61.725 8.014)"/><circle id="Ellipse_86" data-name="Ellipse 86" class="cls-5" cx="1.322" cy="1.322" r="1.322" transform="translate(51.358 88.858)"/><circle id="Ellipse_87" data-name="Ellipse 87" class="cls-5" cx="1.322" cy="1.322" r="1.322" transform="translate(9.614 35.078)"/></g></svg>