<svg xmlns="http://www.w3.org/2000/svg" viewBox="282.5 -1318.5 80.869 92"><defs><style>.cls-1, .cls-4 { fill: none; stroke-miterlimit: 10; } .cls-1 { stroke: #8e8e8e; stroke-width: 1.5px; } .cls-2 { fill: #9fd4ad; } .cls-3 { fill: #d7d8d7; } .cls-4 { stroke: #f9b8b8; }</style></defs><g id="Group_113" data-name="Group 113" transform="translate(282.5 -1318.5)"><path id="Path_99" data-name="Path 99" class="cls-1" d="M46.695 80.23h-11.2a13.332 13.332 0 0 1-13.29-13.29V27.773a13.332 13.332 0 0 1 13.29-13.288h11.27a13.332 13.332 0 0 1 13.288 13.288v39.17a13.437 13.437 0 0 1-13.358 13.287z"/><circle id="Ellipse_18" data-name="Ellipse 18" class="cls-2" cx="8.905" cy="8.905" r="8.905" transform="translate(31.877 60.054)"/><circle id="Ellipse_19" data-name="Ellipse 19" class="cls-3" cx="8.905" cy="8.905" r="8.905" transform="translate(34.103 20.05)"/><circle id="Ellipse_20" data-name="Ellipse 20" class="cls-1" cx="8.905" cy="8.905" r="8.905" transform="translate(31.877 17.893)"/><circle id="Ellipse_21" data-name="Ellipse 21" class="cls-3" cx="8.905" cy="8.905" r="8.905" transform="translate(34.103 40.017)"/><circle id="Ellipse_22" data-name="Ellipse 22" class="cls-1" cx="8.905" cy="8.905" r="8.905" transform="translate(31.877 37.86)"/><circle id="Ellipse_23" data-name="Ellipse 23" class="cls-1" cx="8.905" cy="8.905" r="8.905" transform="translate(29.998 58.314)"/><g id="Group_106" data-name="Group 106"><path id="Path_100" data-name="Path 100" class="cls-2" d="M43.774 3.84V2.727h1.67v-1.67h1.044v1.67h1.67V3.77h-1.67v1.67h-1.044v-1.6z"/></g><g id="Group_107" data-name="Group 107"><path id="Path_101" data-name="Path 101" class="cls-2" d="M3.63 68.54V67.5H5.3v-1.67h1.114v1.67h1.67v1.044h-1.67v1.67H5.3v-1.67z"/></g><g id="Group_108" data-name="Group 108"><path id="Path_102" data-name="Path 102" class="cls-2" d="M30.764 88.786v-1.043h1.67v-1.67h1.113v1.67h1.67v1.044h-1.67v1.67h-1.044v-1.67z"/></g><g id="Group_109" data-name="Group 109"><path id="Path_103" data-name="Path 103" class="cls-2" d="M69.724 52.68v-1.044h1.67v-1.67h1.044v1.67h1.67v1.044h-1.6v1.67h-1.044v-1.67z"/></g><g id="Group_110" data-name="Group 110"><path id="Path_104" data-name="Path 104" class="cls-2" d="M11.91 12.467v-.765h1.252V10.45h.765v1.25h1.253v.766h-1.252v1.253h-.765v-1.253z"/></g><g id="Group_111" data-name="Group 111"><path id="Path_105" data-name="Path 105" class="cls-2" d="M.778 51.01v-.562h.9v-.9h.557v.9h.9v.557h-.9v.9h-.622v-.9z"/></g><g id="Group_112" data-name="Group 112"><path id="Path_106" data-name="Path 106" class="cls-2" d="M78.073 36.12v-.56h.9v-.9h.557v.9h.9v.557h-.9v.9h-.557v-.9z"/></g><circle id="Ellipse_24" data-name="Ellipse 24" class="cls-4" cx="2.713" cy="2.713" r="2.713" transform="translate(22.763 .5)"/><circle id="Ellipse_25" data-name="Ellipse 25" class="cls-4" cx="2.713" cy="2.713" r="2.713" transform="translate(9.266 78.212)"/><circle id="Ellipse_26" data-name="Ellipse 26" class="cls-4" cx="2.018" cy="2.018" r="2.018" transform="translate(.5 22.415)"/><circle id="Ellipse_27" data-name="Ellipse 27" class="cls-4" cx="2.018" cy="2.018" r="2.018" transform="translate(68.124 76.68)"/><circle id="Ellipse_28" data-name="Ellipse 28" class="cls-4" cx="1.6" cy="1.6" r="1.6" transform="translate(73.41 9.614)"/><circle id="Ellipse_29" data-name="Ellipse 29" class="cls-4" cx="1.6" cy="1.6" r="1.6" transform="translate(77.168 62.35)"/><circle id="Ellipse_30" data-name="Ellipse 30" class="cls-4" cx="1.6" cy="1.6" r="1.6" transform="translate(69.167 28.33)"/><circle id="Ellipse_31" data-name="Ellipse 31" class="cls-4" cx="1.322" cy="1.322" r="1.322" transform="translate(61.723 8.014)"/><circle id="Ellipse_32" data-name="Ellipse 32" class="cls-4" cx="1.322" cy="1.322" r="1.322" transform="translate(51.357 88.856)"/><circle id="Ellipse_33" data-name="Ellipse 33" class="cls-4" cx="1.322" cy="1.322" r="1.322" transform="translate(9.614 35.077)"/></g></svg>