<svg xmlns="http://www.w3.org/2000/svg" viewBox="521.5 -1318.5 80.87 92.002"><defs><style>.cls-1 { fill: #d7d8d7; } .cls-2, .cls-5 { fill: none; stroke-miterlimit: 10; } .cls-2 { stroke: #8e8e8e; stroke-width: 1.5px; } .cls-3 { fill: #f8eb79; } .cls-4 { fill: #9fd4ad; } .cls-5 { stroke: #f9b8b8; }</style></defs><g id="Group_200" data-name="Group 200" transform="translate(521.5 -1318.5)"><g id="Group_114" data-name="Group 114" transform="translate(31.878 17.893)"><circle id="Ellipse_34" data-name="Ellipse 34" class="cls-1" cx="8.905" cy="8.905" r="8.905" transform="translate(2.226 2.157)"/><circle id="Ellipse_35" data-name="Ellipse 35" class="cls-2" cx="8.905" cy="8.905" r="8.905"/></g><path id="Path_107" data-name="Path 107" class="cls-2" d="M46.697 80.23h-11.2a13.332 13.332 0 0 1-13.29-13.288v-39.17a13.332 13.332 0 0 1 13.29-13.288h11.27a13.332 13.332 0 0 1 13.288 13.29v39.17A13.437 13.437 0 0 1 46.697 80.23z"/><g id="Group_115" data-name="Group 115" transform="translate(31.878 58.385)"><circle id="Ellipse_36" data-name="Ellipse 36" class="cls-1" cx="8.905" cy="8.905" r="8.905" transform="translate(2.226 2.157)"/><circle id="Ellipse_37" data-name="Ellipse 37" class="cls-2" cx="8.905" cy="8.905" r="8.905"/></g><circle id="Ellipse_38" data-name="Ellipse 38" class="cls-3" cx="8.905" cy="8.905" r="8.905" transform="translate(31.878 40.018)"/><circle id="Ellipse_39" data-name="Ellipse 39" class="cls-2" cx="8.905" cy="8.905" r="8.905" transform="translate(30 38.278)"/><g id="Group_116" data-name="Group 116"><path id="Path_108" data-name="Path 108" class="cls-4" d="M43.775 3.84V2.727h1.67v-1.67h1.044v1.67h1.67V3.77h-1.67v1.67h-1.045v-1.6z"/></g><g id="Group_117" data-name="Group 117"><path id="Path_109" data-name="Path 109" class="cls-4" d="M3.63 68.543V67.5H5.3v-1.67h1.114v1.67h1.67v1.044h-1.67v1.67H5.3v-1.67z"/></g><g id="Group_118" data-name="Group 118"><path id="Path_110" data-name="Path 110" class="cls-4" d="M30.764 88.788v-1.043h1.67v-1.67h1.113v1.67h1.67v1.044h-1.67v1.67h-1.044v-1.67z"/></g><g id="Group_119" data-name="Group 119"><path id="Path_111" data-name="Path 111" class="cls-4" d="M69.726 52.68v-1.043h1.67v-1.67h1.044v1.67h1.67v1.044h-1.6v1.67h-1.044v-1.67z"/></g><g id="Group_120" data-name="Group 120"><path id="Path_112" data-name="Path 112" class="cls-4" d="M11.91 12.467v-.765h1.252V10.45h.765v1.25h1.253v.766h-1.252v1.253h-.765v-1.253z"/></g><g id="Group_121" data-name="Group 121"><path id="Path_113" data-name="Path 113" class="cls-4" d="M.778 51.01v-.56h.9v-.9h.557v.9h.9v.556h-.9v.9h-.622v-.9H.778z"/></g><g id="Group_122" data-name="Group 122"><path id="Path_114" data-name="Path 114" class="cls-4" d="M78.074 36.122v-.56h.9v-.9h.557v.9h.9v.556h-.9v.9h-.556v-.9z"/></g><circle id="Ellipse_40" data-name="Ellipse 40" class="cls-5" cx="2.713" cy="2.713" r="2.713" transform="translate(22.764 .5)"/><circle id="Ellipse_41" data-name="Ellipse 41" class="cls-5" cx="2.713" cy="2.713" r="2.713" transform="translate(9.266 78.214)"/><circle id="Ellipse_42" data-name="Ellipse 42" class="cls-5" cx="2.018" cy="2.018" r="2.018" transform="translate(.5 22.416)"/><circle id="Ellipse_43" data-name="Ellipse 43" class="cls-5" cx="2.018" cy="2.018" r="2.018" transform="translate(68.125 76.683)"/><circle id="Ellipse_44" data-name="Ellipse 44" class="cls-5" cx="1.6" cy="1.6" r="1.6" transform="translate(73.413 9.614)"/><circle id="Ellipse_45" data-name="Ellipse 45" class="cls-5" cx="1.6" cy="1.6" r="1.6" transform="translate(77.17 62.35)"/><circle id="Ellipse_46" data-name="Ellipse 46" class="cls-5" cx="1.6" cy="1.6" r="1.6" transform="translate(69.17 28.33)"/><circle id="Ellipse_47" data-name="Ellipse 47" class="cls-5" cx="1.322" cy="1.322" r="1.322" transform="translate(61.725 8.014)"/><circle id="Ellipse_48" data-name="Ellipse 48" class="cls-5" cx="1.322" cy="1.322" r="1.322" transform="translate(51.358 88.858)"/><circle id="Ellipse_49" data-name="Ellipse 49" class="cls-5" cx="1.322" cy="1.322" r="1.322" transform="translate(9.614 35.078)"/></g></svg>