<svg xmlns="http://www.w3.org/2000/svg" viewBox="41 -1349 29.342 49"><defs><style>.cls-1 { fill: #9fd4ad; }</style></defs><g id="Group_1" data-name="Group 1"><path id="Path_91" data-name="Path 91" class="cls-1" d="M41.1-1300c.484-1.356.872-2.615 1.356-3.97a137.576 137.576 0 0 1 9.974-23.338 43.822 43.822 0 0 1 6.488-9.2c.58-.678 1.356-1.26 1.937-1.937-.484.194-.872.29-1.356.484a13.756 13.756 0 0 0-4.456 3.68 45.35 45.35 0 0 0-7.17 11.426c-1.838 3.874-3.388 7.747-5.034 11.524-.1.29-.387.484-.58.775a3.925 3.925 0 0 1-.485-.872c-.194-1.065-.387-2.034-.484-3.1a33.872 33.872 0 0 1 .582-9.393 13.157 13.157 0 0 1 1.065-2.71 2.112 2.112 0 0 1 .387-.484c.387 1.065.775 2.13 1.162 3.292h.1c.1-.387.194-.678.29-1.065.485-2.13.776-4.26 1.357-6.39a15.392 15.392 0 0 1 5.23-8.04 20.49 20.49 0 0 0 1.064 2.035 11.272 11.272 0 0 1 .573-1.453 10.505 10.505 0 0 1 5.907-5.617c2.42-.968 4.94-1.743 7.36-2.71a33.828 33.828 0 0 0 3.297-1.454c.194-.194.29-.387.484-.484h.194c-.194 1.065-.387 2.034-.484 3.1-.29 1.55-.484 3.2-.678 4.745a9.1 9.1 0 0 1-3.874 6.2c-1.162.872-2.42 1.646-3.583 2.518a2.65 2.65 0 0 1-.484.387 34.834 34.834 0 0 0 3.485-.387v.1a3.77 3.77 0 0 0-2.13 2.42 7.642 7.642 0 0 1-4.94 5.23l-.58.29-.1.1a5.923 5.923 0 0 1 3.777 1.26 12.294 12.294 0 0 0-3.39 4.067c-.386.678-.87 1.453-1.258 2.13a9.964 9.964 0 0 1-4.064 3.38c-1.55.872-3 1.743-4.55 2.71a3.986 3.986 0 0 0-1.55 2.035 5.784 5.784 0 0 1-.58 1.065c-1.36 2.324-2.714 4.745-4.07 7.07-.1.193-.193.29-.29.483"/></g></svg>