<svg xmlns="http://www.w3.org/2000/svg" viewBox="354 4530 344.318 990.016"><defs><style>.cls-1 { fill: #f5bc8e; } .cls-2 { fill: #442d1d; } .cls-3 { fill: #566688; } .cls-4 { fill: #f5dfce; }</style></defs><g id="Group_182" data-name="Group 182"><path id="Path_172" data-name="Path 172" class="cls-1" d="M501.167 5454.102c-3.137-16.97-6.7-33.8-10.838-50.48a8.674 8.674 0 0 0-8.414-7.13c-3.28-2-7.843-1.284-11.123 1.283a7.826 7.826 0 0 0-5.276 1.426c-6.845 5.135-6.132 10.126-4.563 19.11 1.71 9.7 5.276 19.394 7.986 28.806 2.282 8.128 3.422 19.536 12.12 23.244 3.994 1.71 3.566 1.71 7.274-.57l1.71-1.283a13.992 13.992 0 0 0 5.135-2.852 10.7 10.7 0 0 0 5.987-11.553z"/><path id="Path_173" data-name="Path 173" class="cls-1" d="M694.534 5458.52s-19.536-36.077-28.663-50.622c-2.708-4.278-6.7-5.134-10.266-4.136-3.85-.856-7.843 1.284-10.125 4.706a7.636 7.636 0 0 0-4.564 2.995c-4.848 6.987-7.273 13.832-2.852 21.818 4.706 8.557 25.24 29.377 25.24 29.377s18.967 11.693 21.676 8.413a11.9 11.9 0 0 0 1.14-1.71 16.233 16.233 0 0 0 3.994-4.28 20.62 20.62 0 0 0 4.42-6.56z"/><path id="Path_174" data-name="Path 174" class="cls-1" d="M654.035 5050.968c-2.567-6.845-9.27-11.123-6.845-4.278a9.832 9.832 0 0 0 .428 1.14 4.8 4.8 0 0 0-1.426 3.994 1.81 1.81 0 0 0 .143.856 7.95 7.95 0 0 0-4.135.713c-3.28-4.135-11.55-1-9.982 5.276 1.854 7.414 2.424 13.546 1.14 21.1-1 5.988-1.853 11.407 0 17.254a6.1 6.1 0 0 0 6.418 3.993 6.065 6.065 0 0 1-.285 1.57c-.57 2.566-2 4.99-1.71 7.7a8.386 8.386 0 0 0 6.987 7.985c4.42.713 7.13-2.282 9.27-5.847 11.55-20.388 8.122-39.64-.002-61.457z"/><path id="Path_175" data-name="Path 175" class="cls-1" d="M372.113 5001.628a12.892 12.892 0 0 0-7.273 1.14c-7.415 3.566-8.984 14.974-9.412 22.247-.57 7.843 1.71 18.253 8.984 22.388 6.417 3.85 14.688.143 16.827-6.845l.142-.285a11.37 11.37 0 0 0 .428-2.14 8.212 8.212 0 0 0 .713-4.134c-.143-4.85-1.14-10.7 2.71-14.12 9.696-8.84-2.71-22.958-13.12-18.252z"/><path id="Path_176" data-name="Path 176" class="cls-2" d="M683.554 5429.146c-4.563-8.556-62.032-111.37-82.28-147.45a424.762 424.762 0 0 0-28.95-45.06c-1.71-60.604 10.268-144.454 5.42-204.917-.57-6.418-3.565-12.407-8.556-15.83a19.387 19.387 0 0 0-18.823-15.686 11.523 11.523 0 0 0-2.282.143 18.628 18.628 0 0 0-16.542-9.84 18.1 18.1 0 0 0-13.69 5.99 17.49 17.49 0 0 0-13.4-5.7c-10.98 0-18.537 8.84-19.25 19.25-.143 2.14-.285 4.136-.428 6.275-.143-1.14-.285-2.424-.428-3.565a10.853 10.853 0 0 0-1.427-4.284c-2.852-9.127-11.836-12.69-20.25-11.693-2.138-13.4-19.678-18.538-30.088-12.12a18.356 18.356 0 0 0-13.263 7.7 17.85 17.85 0 0 0-17.828 4.277 18.28 18.28 0 0 0-10.41 5.276c-10.27 10.124-12.55 14.973-22.532 25.383-11.694 12.264-13.262 25.668-9.982 41.782 5.42 27.807 50.766 184.954 61.32 225.88 6.843 26.667 27.23 119.643 33.652 132.192 6.845 13.547 45.347-2.28 45.347-3.565-.143-9.7-7.415-65.6-9.554-77.575-3.992-23.1-7.272-46.2-10.124-69.447-5.7-47.63-8.556-95.543-10.7-143.457 13.12-2.567 10.98 5.42 12.12 10.7 4.992 21.96 21.39 110.658 27.095 128.484.57 1.71 99.68 133.475 139.322 184.526 6.28 8.12 43.214-15.12 36.512-27.67z"/><path id="Path_177" data-name="Path 177" class="cls-3" d="M503.306 5456.383c2.424 4.85 3.137 20.82-1.283 24.955-1.14 3.85-64.884 39.358-69.59 27.38-3.85-9.7 21.534-37.362 32.657-49.34a55.988 55.988 0 0 0 4.99-5.562l31.23-4.278 2 6.845z"/><path id="Path_178" data-name="Path 178" class="cls-3" d="M696.388 5465.224c2.424 4.85 3.137 20.82-1.283 24.955-1.14 3.85-64.884 39.357-69.59 27.38-3.85-9.7 21.534-37.363 32.657-49.34a56.05 56.05 0 0 0 4.99-5.562l31.23-4.28 2 6.846z"/><path id="Path_179" data-name="Path 179" class="cls-4" d="M666.87 5057.528c-3.28-18.538-18.966-182.1-74.153-280.924-18.966-34.082-49.91-56.327-83.992-72.3-1-.856-39.786-1.14-40.5-.428-78.572 44.207-95.823 138.61-107.663 220.89a684.694 684.694 0 0 0-6.56 80.284 15.666 15.666 0 0 0 13.547 15.4c4.99.57 11.264-1.426 14.687-5.7 12.55 12.406 27.95 20.677 44.92 26.952 23.1 8.556 47.485 14.4 71.727 18.538 13.4 2.282 26.81 3.993 40.356 5.134 12.55 1.14 43.493 1.283 43.493 1.283s2.424-28.52 3.422-41.07c1-13.83 3.422-70.16 3.565-72.3 4.278 10.98 12.55 46.917 16.542 58.04 6.56 17.825 12.69 35.793 18.538 53.9 3.002 8.7 43.78 1.43 42.07-7.7z"/><path id="Path_180" data-name="Path 180" class="cls-1" d="M508.868 4646.55c-.285-18.682-.428-13.69-3.565-32.23a7.063 7.063 0 0 0-2.282-3.992 9.55 9.55 0 0 0-3.85-5.42 10.68 10.68 0 0 0-.57-2.28 18.55 18.55 0 0 0-5.275-9.555 37.614 37.614 0 0 0-4.278-12.977c-18.11-32.94-60.32-8.84-68.734 19.394-7.415 25.1-8.128 63.315 13.12 81.71 7.414 6.418 17.54 8.557 26.95 7.13.57 8.842 1.284 17.684 1.855 26.667.285 3.85 50.766 5.134 50.2-5.134-.718-22.386-2.144-48.34-3.57-63.314z"/><path id="Path_181" data-name="Path 181" class="cls-2" d="M530.4 4559.992c-1.14-.57-21.675-8.556-31.515-10.838-11.835-2.71-37.218-16.256-37.93-16.684a30.026 30.026 0 0 0-24.814.428c-12.548 5.7-18.537 20.392-14.83 33.8 3.708 12.977 15.686 20.107 28.378 22.1 5.7.856 15.4 2.567 19.536 12.55 2.567 5.984 3.562 12.404 9.127 15.827 3.85 2.424 10.268 2.852 12.835 6.7 2.852 4.135-1 9.27-.856 13.832.142 6.987 4.847 13.262 11.692 14.688 12.55 2.567 25.24-13.975 31.515-22.816 12.55-18.248 21.25-56.47-3.137-69.588z"/><path id="Path_182" data-name="Path 182" class="cls-2" d="M391.365 4794.856c-9.554 22.96-16.114 47.77-21.248 72.584 23.244 5.276 46.345 10.41 69.59 15.686 47.628 10.7 96.4 24.1 145.6 22.96 15.115-.286 30.088-2.425 45.06-4.992 2.853-.428 5.7-1 8.414-1.426a675 675 0 0 0-22.387-72.44c-1.57.284-3.28.57-4.848.855-2.71.428-7.843 2.424-10.41 1.71 5.7-.712 6.417-.855 2-.284-1.854.142-3.708.427-5.42.57-7.272.57-14.687.712-21.96.57s-14.688-.714-21.96-1.427c-2.425-.285-14.546-.57-3.71-.285-3.564-.143-7.414-1.14-10.98-1.71-14.117-2.425-28.09-5.42-42.066-8.557-35.23-7.985-70.453-15.828-105.675-23.814z"/></g></svg>