<svg xmlns="http://www.w3.org/2000/svg" viewBox="127 12699.681 880.281 901.319"><defs><style>.cls-1 { fill: #f5bc8e; } .cls-2 { fill: #422d1e; } .cls-3 { fill: #f97c64; } .cls-4 { fill: #402d1e; }</style></defs><g id="Group_189" data-name="Group 189"><path id="Path_304" data-name="Path 304" class="cls-1" d="M838.3 13245.15c-4.055-11.19-15.083-20.434-27.408-16.38a12.136 12.136 0 0 0-6 3.893 38.41 38.41 0 0 0-5.19-2.27c-10.866-3.892-17.84 9.244-13.785 17.84.973 2.107 1.946 4.053 2.92 6.162.648 1.3-11.677 4.216 2.27 3.243-60.815 13.785-114.332 232.392-115.792 235.474-2.92 6.325-1.3 16.542 7.3 17.84 6.325 1.134 5.514.323 11.676-1.785 6.974-2.27 87.414-136.874 103.304-160.07 14.758-21.406 32.92-42.975 40.38-68.273 3.568-11.348 4.38-24.484.325-35.674z"/><path id="Path_305" data-name="Path 305" class="cls-1" d="M426.867 13329.966c-5.676 1.946-11.19 4.216-16.7 6.65a9.28 9.28 0 0 0 3.243-6.326c13.947.81 19.136-20.758 4.54-23.677-25.622-5.19-48.164 7.46-69.733 19.947-20.434 12-152.117 116.6-182.93 152.928-7.136 8.6 4.865 17.028 17.352 12.974 45.894-15.244 105.41-50.11 148.386-72.49 20.758-10.867 73.3-35.354 92.925-48.166 18.65-12.163 3.73-5.352 16.38-24 6.162-8.596-3.73-21.408-13.463-17.84z"/><path id="Path_306" data-name="Path 306" class="cls-2" d="M709.697 13109.087c-11.19-10.865-22.38-21.73-33.57-32.76-5.19-5.026-11.19-6.324-16.542-5.188-2.757-2.27-5.514-4.542-8.433-6.812-7.622-6-17.352-8.11-25.623-1.46a22.522 22.522 0 0 0-5.028 6l-2.108-2.108c-6.325-6.487-13.947-7.136-20.272-4.216-2.757-4.054-5.352-8.27-7.784-12.487-5.838-9.892-17.84-10.865-26.6-6.487 1.784-9.892-3.892-19.947-13.785-22.7s-21.57 3.243-24 13.622c-3.892 16.217-2.595 32.272 1.622 47.516-5.838 8.11-11.352 16.542-16.866 24.974-14.272 22.055-106.06 153.9-113.36 164.767-6.648 10.054-16.7 22.054-19.3 33.893-3.89 17.352 9.245 22.7 18.65 35.19 8.92 12.164 9.57 12.164 17.353 25.138 6.973 11.515 20.92 12 30.488 3.893 19.3-16.055 147.9-140.44 166.39-164.93 6 5.028 136.06 86.44 143.52 84.493 16.7-4.54 71.68-32.92 81.573-47.192 7.628-11.032-89.35-99.902-126.326-133.147z"/><path id="Path_307" data-name="Path 307" class="cls-1" d="M896.682 12821.557c-5.352-8.92-26.272-27.73-35.354-20.758-16.866 12.973-66.166 31.46-85.14 40.542-9.406 4.54 22.218 17.84 26.272 26.434 4.38 9.406-7.622 33.407-5.676 31.948 17.84-7.946 76.22-26.11 91.952-38.273 8.918-6.81 14.27-29.352 7.946-39.893z"/><path id="Path_308" data-name="Path 308" class="cls-1" d="M937.872 12758.31c-10.38-12.163-27.73-17.352-42.327-11.352a16.823 16.823 0 0 0-7.784 3.892c-22.217 18.974-55.462 51.57-50.76 78.33 2.27 12.648 6.65 28.7 16.218 37.785 4.38 4.216 39.57 11.028 44.6 11.676 5.676 1.46 11.514-.323 16.7-3.405a30.525 30.525 0 0 0 7.3-5.676 83.11 83.11 0 0 0 13.3-16.38c8.433-13.46 12.812-29.19 14.6-44.922 1.777-17.35-.17-36.326-11.846-49.948z"/><path id="Path_309" data-name="Path 309" class="cls-2" d="M929.602 12766.904c-7.3 1.3-13.622 2.757-20.92 1.3-7.46-1.622-13.3-5.676-19.785-9.568-10.7-6.65-23.19-10.54-34.056-3.892a34.515 34.515 0 0 0-4.053-2.595c4.38-7.137-3.406-18.326-11.676-12.488-11.35 7.946-17.838 18.163-19.3 32.11-1.62 15.893.163 33.083 1.136 48.976.81 13.785 12 16.866 24.164 12.974 12.812-4.216 21.407-13.947 27.083-25.785 2.757-5.676 5.19-11.514 10.865-14.758 7.136-4.055 14.11-2.11 21.407.16 11.514 3.407 25.623 5.84 35.353-3.73 9.57-9.57 4.056-25.138-10.216-22.706z"/><path id="Path_310" data-name="Path 310" class="cls-3" d="M955.063 12732.524c-4.054-12.65-13.947-19.947-26.6-22.7-13.46-2.92-58.544-21.082-78-.324-4.38 4.7-20.758 26.92-20.758 34.218-21.082-5.19-32.92-8.433-54-13.622a6.08 6.08 0 0 0-7.3 4.054c-.162.324-.162.487-.324.81a5.793 5.793 0 0 0 2.758 6.65c.162.162 35.353 8.27 57.085 13.46.162.324 46.543 12.325 60.166 16.38 12.648 3.73 48 16.216 61.138 17.838 4.376.483 12.81-35.52 5.835-56.764z"/><path id="Path_311" data-name="Path 311" class="cls-3" d="M791.756 12829.18c-65.355-7.46-135.738 4.7-190.065 43.138-13.135 9.244-25.622 19.46-36.488 31.3-11.675 12.647-21.407 26.918-31.462 40.862l-6.81 9.244c-.163.162-.163.324-.325.487-1.3 1.46-2.433 2.92-3.73 4.38-4.54 5.19-9.406 10.055-14.27 14.758-9.73 9.406-20.11 18.488-28.868 28.867-10.7 12.65-19.3 25.623-24.65 41.354-7.946 23.352-.65 53.516 26.758 59.03 13.3 2.595 24.164-1.46 35.84-7.136 3.406-1.784 6.973-3.406 10.38-5.027l5.35-2.433a7.9 7.9 0 0 0 1.136-.487c.163 0 .325-.162.65-.162 7.3-2.433 14.433-5.352 21.893-7.3 3.73-.973 7.46-1.46 11.19-2.433.162 0 .324 0 .324-.162 2.108-.162 4.38-.487 6.487-.487q4.865-.243 9.73 0c1.622 0 3.243.162 4.865.324h1.62a70.245 70.245 0 0 1 6.812 2.108c1.622.487 3.08.973 4.7 1.46.324.162.65.162.973.324a74.483 74.483 0 0 1 7.946 4.215 9.94 9.94 0 0 1 .974.65c.65.486 1.784 1.3 2.27 1.62 5.19 4.7 9.082 10.542 13.947 15.407 33.733 32.76 85.79 10.055 99.737-27.894 13.622-37.137 43.95-80.924 49.462-87.086 12.81-14.11 27.406-61.788 31.46-81.086 9.41-44.754-1.293-76.053-17.834-77.836z"/><path id="Path_312" data-name="Path 312" class="cls-1" d="M1006.796 13196.012c-2.92-14.758-21.57-31.786-23.028-33.083-8.27-8.11-16.866-16.056-25.623-23.516-34.543-33.732-65.842-70.707-106.223-97.79a.16.16 0 0 1-.162-.162c-.65-.81-38.273-99.574-53.192-142.225-1.3-3.73-8.92-19.3-27.73-19.3-27.084.162-30.49 27.57-28.38 40.38 1.46 8.92 55.786 145.145 72.328 163.795 21.893 24.812 66.653 47.192 93.087 67.14a400.307 400.307 0 0 0 37.946 25.787c4.378 2.594 8.918 5.19 13.46 7.46a26.348 26.348 0 0 0 .648 3.08c4.216 11.676 8.6 23.353 12.812 34.867 3.73 10.217 15.73 11.19 21.57 3.568 3.08-.812 15.567-14.276 12.486-30.003z"/><path id="Path_313" data-name="Path 313" class="cls-1" d="M753.807 12980c13.3-6.488 28.7-14.11 41.03-24.327a367.583 367.583 0 0 0 14.757-48.81c1.3-6.488 2.27-12.813 2.92-18.65a70.433 70.433 0 0 0-17.84-22.543c-18-14.758-41.678-19.46-63.085-8.92-20.435 10.218-31.625 30.976-39.57 51.41-7.623 19.46-12.813 46.057-2.27 65.517a34.05 34.05 0 0 0 28.7 18.163c12.49.322 24.654-6.652 35.357-11.84z"/><path id="Path_314" data-name="Path 314" class="cls-2" d="M761.754 13529.275c-.81-10.055-45.084-29.677-54.976-35.19-5.19-2.92-32.434-4.218-34.218 0-4.7 11.027-9.892 25.46-8.6 37.46 1.46 13.137 72.33 10.38 81.9 9.73 9.407-.648 16.705-2.432 15.894-12z"/><path id="Path_315" data-name="Path 315" class="cls-2" d="M137.88 13551.817c10.216 0 37.947-46.543 44.6-55.95 3.405-5.026 2.756-29.028-1.3-31.136a110.363 110.363 0 0 0-33.408-11.513c-9.407-1.785-20.597 71.84-20.76 81.572-.16 9.405.974 17.027 10.867 17.027z"/><path id="Path_316" data-name="Path 316" class="cls-2" d="M586.932 13550.033a17.8 17.8 0 0 0-17.352 5.676 20.124 20.124 0 0 0-8.6 11.35c-1.946 6.326-1.946 13.948.81 20.11 7.3 16.542 30.165 15.082 38.436.162 7.14-13.298 2.76-33.732-13.294-37.3z"/><path id="Path_317" data-name="Path 317" class="cls-2" d="M792.404 13551.98a17.8 17.8 0 0 0-17.352 5.675 20.124 20.124 0 0 0-8.6 11.352c-1.946 6.325-1.946 13.947.81 20.11 7.3 16.54 30.165 15.08 38.436.16 7.14-13.135 2.76-33.73-13.294-37.298z"/><path id="Path_318" data-name="Path 318" class="cls-4" d="M843.65 13536.248c-26.433 4.7-53.354 4.54-80.112 4.38l-84.816-.974-168.334-1.946c-15.73-.162-15.73 24.164 0 24.326l171.416 1.946 84.654.973c28.056.324 55.95-.162 83.518-5.19 15.568-2.757 8.92-26.272-6.325-23.515z"/></g></svg>