<svg xmlns="http://www.w3.org/2000/svg" viewBox="317 5910 425.255 947.965"><defs><style>.cls-1 { fill: #f5bc8e; } .cls-2 { fill: #422d1e; } .cls-3 { fill: #442d1d; } .cls-4 { fill: #8db3c9; } .cls-5 { fill: #f5dfce; } .cls-6 { fill: #b15e42; } .cls-7 { fill: #e0ac82; } .cls-8 { fill: #9e543b; } .cls-9 { fill: #92b3c8; } .cls-10 { fill: #7a9aad; }</style></defs><g id="Group_181" data-name="Group 181"><path id="Path_146" data-name="Path 146" class="cls-1" d="M703.445 6072.594a337.974 337.974 0 0 0-22.784-56.112 12.93 12.93 0 0 0-3.27-4.12c-.607-1.576-32.36 18.663-30.42 24.6a495.09 495.09 0 0 0 24.844 60.23c4.848 9.454 31.995-23.63 31.63-24.598z"/><path id="Path_147" data-name="Path 147" class="cls-1" d="M650.727 6681.46c2.91 49.084 8.6 141.674.606 148.824a15.282 15.282 0 0 1-14.058 3.393c-6.908-1.94-8.968-7.15-9.332-13.573-2.787-48.6-15.876-133.31-17.694-182.03-1.092-24.6 39.995 36.237 40.477 43.387z"/><path id="Path_148" data-name="Path 148" class="cls-2" d="M655.696 6824.953c.485 4.605 3.272 19.027-1.454 21.572-6.787 3.636-69.807 10.907-70.29 0-.365-8.968 28-23.754 40.356-30.177 3.15-1.575 8.6 11.03 8.6 11.03l22.784-2.425z"/><path id="Path_149" data-name="Path 149" class="cls-3" d="M694.235 6330.854c-6.666-4.605-13.937-.97-21.815-2.06-20.118-2.91-46.053-7.635-66.292-6.544-4.605.242-10.18 8.847-10.786 12.12-19.876 119.373-10.544 240.686 9.816 359.333 5.817 33.934 9.453 52.84 16.6 86.41 2.666 12.12 35.024 8.12 35.267 1.7 2.91-71.382.848-142.764 8.483-213.782 3.878-35.266 32.843-176.212 36.72-211.842 1.218-9.822 1.46-18.667-7.993-25.334z"/><path id="Path_150" data-name="Path 150" class="cls-1" d="M703.445 6681.46c9.938 48.235 28.965 139.008 22.057 147.25a15.552 15.552 0 0 1-13.452 5.453c-7.15-.848-9.938-5.817-11.27-12.12-9.818-47.75-35.026-129.553-43.872-177.545-4.363-24.36 45.083 29.934 46.537 36.963z"/><path id="Path_151" data-name="Path 151" class="cls-2" d="M729.26 6822.65c1.212 4.483 5.938 18.42 1.7 21.57-6.18 4.606-67.5 20.846-69.564 10.18-1.575-8.725 24.238-27.51 35.51-35.63 2.787-2.06 10.18 9.696 10.18 9.696l22.177-5.817z"/><path id="Path_152" data-name="Path 152" class="cls-3" d="M695.81 6328.308c-7.272-3.636-13.937 1.09-21.936 1.09-20.36 0-46.66-.847-66.534 3.152-4.605.97-8.847 10.3-8.847 13.452-2.3 121.07 24.36 239.718 61.687 354.123 10.665 32.722 16.967 50.9 28.965 83.138 4.363 11.634 35.873 2.91 35.146-3.394-7.392-71.02-19.874-141.31-22.42-212.693-1.332-35.388 6.91-179.122 5.818-214.873-.486-10.06-1.455-18.906-11.878-23.996z"/><path id="Path_153" data-name="Path 153" class="cls-4" d="M707.566 6060.232c-8.6-6.544-17.936-1.575-24.6 5.332a11.747 11.747 0 0 0-3.515 2.666c-14.663 15.876-47.99 36.964-65.32 87.743-15.756 45.932-27.27 172.214-20.482 185.908 3.15 6.3 38.54 7.636 54.78 6.424 14.906-1.09 30.66-1.94 45.325-5.09 14.543-3.15 24.966-13.09 29.328-27.147 3.88-12.846 3.273-27.026 4.243-40.236 2.3-32.115 7.514-63.5 13.452-95.135 5.33-29.69-3.277-97.557-33.21-120.463z"/><path id="Path_154" data-name="Path 154" class="cls-1" d="M526.02 6524.154c-10.42-3.636-23.39 4.242-31.51 10.18a145.358 145.358 0 0 0-30.176 30.177c-4-3.756-11.15-4.725-15.39 1.092-28.48 40.115-123.374 213.056-120.345 223.357a15.644 15.644 0 0 0 10.18 10.422c6.786 2.06 11.512-1.333 15.148-6.544 28.238-39.75 125.312-200.21 152.7-240.566 13.818-20.48 34.178-23.15 19.393-28.118z"/><path id="Path_155" data-name="Path 155" class="cls-1" d="M491.36 6502.946c-10.786 2.545-17.573 16-21.33 25.33a149.48 149.48 0 0 0-9.574 41.568c-5.332-1.09-12 1.94-12.362 9.09-2.91 49.082 8.6 246.018 16.6 253.29a15.283 15.283 0 0 0 14.058 3.393c6.908-1.94 9.332-7.15 9.332-13.573.242-51.628.848-144.945 2.666-193.786.974-24.727 15.76-128.827.61-125.312z"/><path id="Path_156" data-name="Path 156" class="cls-2" d="M459.487 6827.376c-.485 4.605-3.272 19.027 1.454 21.572 6.788 3.635 69.808 10.907 70.292 0 .364-8.968-28-23.754-40.357-30.177-3.15-1.575-8.6 11.03-8.6 11.03l-22.784-2.424z"/><path id="Path_157" data-name="Path 157" class="cls-2" d="M327.63 6782.05c-2.91 3.637-12.847 14.423-10.18 19.028 3.878 6.666 53.446 46.3 59.505 37.327 4.97-7.393-11.15-34.9-18.18-46.9-1.817-3.03-13.21 4.848-13.21 4.848l-17.935-14.302z"/><path id="Path_158" data-name="Path 158" class="cls-5" d="M550.502 6315.22c0-7.514-2.666-11.756-9.938-13.937-6.544-1.94-16.24.727-19.27 7.393a131.838 131.838 0 0 0-6.543 17.452c-.847-8.362-1.817-16.6-2.908-24.966-.97-7.27-9.332-12.6-16.12-12.846-7.15-.12-14.784 4.97-16.6 12.12-.24.847-.363 1.7-.605 2.544a17.585 17.585 0 0 0-7.514 2.787c.97-6.06 1.818-12.12 2.666-18.18 1.21-9.088-8.12-17.087-16.6-17.33-10.06-.242-16.12 7.514-17.33 16.6-2.06 16.118.97 16.118-1.94 31.63-1.454 7.636-8.362 24.482-11.513 31.51-18.792 42.544-33.213 141.073-47.03 212.818-4.483 23.39-14.542 44.84-15.27 67.99-.605.847-1.09 1.575-1.574 2.18-3.03 4.605-5.7 9.453-6.666 14.907-1.7 9.453 2.91 20.724 12.6 23.875 5.21 1.7 10.18.485 15.028-1.7 4.363-1.818 5.7-1.454 9.09 2.18 7.15 7.515 12.724 17.332 24.237 18.422a19.6 19.6 0 0 0 13.816-4c3.878-2.91 6.423-6.91 11.634-6.788 10.06.12 19.148 8.12 28.117 11.877 9.452 3.877 20.36 5.453 29.57.12a39.76 39.76 0 0 0 5.21-4c.728-.727 2.546-3.03 3.758-3.757-.12.12.364.243.727.485 2.424 1.09 4.363 3.757 6.666 5.21 9.454 6.182 21.452 3.152 28.6-5.09 4.485-5.33 6.3-11.39 6.667-17.814 4-6.06 5.938-13.695 7.15-23.026 1.822-15.266-8.358-289.038-8.115-328.668z"/><path id="Path_159" data-name="Path 159" class="cls-6" d="M552.56 6356.182s-6.543-110.042-6.665-111.618c-4-63.747.606-80.835-34.54-119.738l-1.454-1.454a17.085 17.085 0 0 0-16.6-4.242 14.617 14.617 0 0 0-12 1.94c-.605.363-1.21.847-1.817 1.21-.12 0-.12 0-.242.122-14.542 5.09-28.843 16.24-37.932 29.207-25.21 35.63-36.237 255.594-36.237 255.594s22.543 5.21 56.355-2.424c53.81-12.24 91.136-48.598 91.136-48.598z"/><path id="Path_160" data-name="Path 160" class="cls-1" d="M509.902 6069.93c-3.272-1.333-7.514-.364-8.847 3.878-1.454-3.393-5.7-5.938-9.817-3.393-6.06 3.757-5.938 11.756-6.908 17.936-.848 5.455-1.7 10.787-2.545 16.24-3.636-.363-7.635 2.06-7.393 6.788.364 7.514 1.94 15.513 7.514 20.845 6.3 4.726 20.6 3.393 23.875-.485 5.576-6.544 6.424-16.846 8-24.966a191.52 191.52 0 0 0 3.516-31.025c-.005-4.123-3.88-6.183-7.394-5.817z"/><path id="Path_161" data-name="Path 161" class="cls-1" d="M476.817 6025.332c1.94-24.966 28.6-47.628 53.81-28 17.572 13.573 19.51 44.6 18.663 58.05-.606 11.757-5.09 23.633-13.937 31.268-8.968 7.756-22.663 10.422-33.328 4.484-20.845-11.754-26.905-43.627-25.208-65.802z"/><path id="Path_162" data-name="Path 162" class="cls-1" d="M607.34 5990.184c-.242-24.966 24.238-49.93 51.143-32.722 18.664 12 23.27 42.66 23.754 56.112.364 11.756-4.727 17.573-12.968 26.056s-23.27 20.724-34.3 15.755c-21.93-9.696-27.51-43.02-27.63-65.2z"/><path id="Path_163" data-name="Path 163" class="cls-7" d="M654.97 6186.994c-2.667-3.878-6.788-4.242-10.787-2.787-8.847 2.91-18.058 7.756-24.117 15.028a30.34 30.34 0 0 0-5.938 10.786c-.606 2.425-2.666 15.635-2.666 17.453-11.513 11.27-25.814 20.118-39.63 27.874a275.5 275.5 0 0 1-26.9 13.09c-3.03 1.21-5.938 2.544-8.847 3.877-7.393-9.938-17.815-18.542-25.693-26.54-2.06-3.515-36.48-57.325-52.84-72.958-4.363-4.12-16.967-4.363-21.087 1.576-4.73 6.91-6.43 14.424-2.67 31.39 5.33 24 62.413 83.987 86.53 103.74 1.576 1.334 7.877 4.728 26.662.243 13.695-3.272 26.783-10.786 38.175-18.785a175.008 175.008 0 0 0 53.082-59.142c.606-.97 4.12-4.605 5.09-5.938a69.6 69.6 0 0 0 12.12-27.147c.848-4.12 1.94-8.24-.485-11.76z"/><path id="Path_164" data-name="Path 164" class="cls-6" d="M457.186 6167.97c-4.363-4.12-18.3-5.33-22.42.607-4.728 6.908-8.363 17.452-4.606 34.3 3.393 15.27 7.514 30.54 31.025 55.385 2.545-1.333 34.9-24.48 40.842-32.964-5.334-8.73-29.452-42.54-44.84-57.327z"/><path id="Path_165" data-name="Path 165" class="cls-3" d="M698.477 5917.71c-10.786-8.483-24.48-9.21-37.327-5.817-10.544 2.91-19.512 9.574-29.813 13.09-10.665 3.635-19.27 8.24-25.814 18.54l-.364.365c-11.15 11.513-5.455 30.662 8.12 37.448 13.21 6.544 24.722.848 37.81-1.818 9.212-1.94 21.452-.606 31.753-3.393 12.24-3.272 22.784-12.12 26.662-24.36 3.878-12.725-.848-25.935-11.028-34.055z"/><path id="Path_166" data-name="Path 166" class="cls-3" d="M703.446 5955.764a6.928 6.928 0 0 0-.848-.97 3.01 3.01 0 0 1-.12-.97c-1.334-6.06-5.818-11.028-12.484-10.423a11.728 11.728 0 0 0-6.787 3.152 28.583 28.583 0 0 0-13.935 3.395 21.157 21.157 0 0 0-6.3 5.454c-8.6-.97-17.21.243-21.45 9.333a18.07 18.07 0 0 0 1.575 16.846c3.15 4.968 7.877 6.543 12.362 9.937 6.543 4.97 4.968 15.876 7.634 22.784 4.605 12 20.24 14.786 28.238 4.485 6.423-8.24 10.3-20.6 13.21-30.54 2.903-9.697 5.448-23.75-1.096-32.48z"/><path id="Path_167" data-name="Path 167" class="cls-1" d="M681.025 6129.675c-19.027-8.24-33.085 13.452-35.388 16.482-10.544 13.816-50.295 63.747-63.383 70.9-12.483 6.666-73.563 18.664-89.318 18.785-3.393-6.06-9.938-9.21-16.24-11.15-4.97-1.576-16.967-2.424-17.694-2.424-12.24.242-13.573 3.272-14.3 8.12-.242 1.454 2.91 12.846 2.91 13.33.363 20.24 33.81 15.03 34.78 14.665 1.092.364 75.988 19.148 143.007-20.118 13.815-8.12 66.533-76.23 66.05-85.44-.366-1.7 4.603-16.606-10.425-23.15z"/><path id="Path_168" data-name="Path 168" class="cls-8" d="M506.75 6198.027c-8.968-9.938-19.39-18.664-29.207-27.753-3.393-3.15-8.6 1.94-5.09 5.09 7.15 6.544 14.543 13.09 21.45 19.875a114.557 114.557 0 0 1 9.212 9.573c4.97 6.06-1.454 12.362-4.848 17.694-2.545 3.878 3.757 7.635 6.3 3.636 2.91-4.363 7.635-9.574 8.483-14.907.73-5.21-3.026-9.573-6.3-13.21z"/><path id="Path_169" data-name="Path 169" class="cls-9" d="M684.904 6129.07a20.283 20.283 0 0 1-4.12-1.334c-18.422-6.666-32.844 12.362-35.147 15.39-10.544 13.817-50.295 67.02-63.383 74.05-3.15 1.7-9.332 3.756-17.088 5.816 3.757 11.634 10.544 27.632 15.028 39.024a170.173 170.173 0 0 0 47.022-19.148c13.816-8.12 66.9-80.23 66.413-89.44-.364-1.817 5.695-11.876-8.726-24.36z"/><path id="Path_170" data-name="Path 170" class="cls-3" d="M529.657 5991.88c-9.7-13.452-20.845-14.3-37.085-13.33-14.422.847-31.146 10.058-40.357 21.814-10.665 13.695-9.21 28.844-15.27 44.477-2.545 6.667-10.06 9.212-16 12a106.517 106.517 0 0 0-9.817 4.97c-13.45 5.09-24.478 15.268-28.84 29.326-2.667 8.483-1.82 17.088.97 25.45 2.3 7.03 3.756 8.847 1.453 15.876-3.756 11.756-15.393 22.906-22.783 34.66a72.76 72.76 0 0 0-10.665 44.236c1.333 15.876 7.514 31.63 18.785 43.144 12.24 12.483 31.268 17.088 46.3 6.666 14.058-9.7 15.513-26.056 18.785-41.205 1.09-4.848 1.94-6.06 5.332-8.362 5.454-3.635 11.634-6.06 17.21-9.7 25.328-16.24 35.023-48.6 25.57-75.865 9.453-8.726 16.6-19.875 19.27-32.6 1.938-8.726-4.364-25.33-6.91-33.813-.484-1.454-8.6-27.753 10.424-40.963 4.605-3.152 23.148-8.363 28.117-16.24 2.177-3.39-4.128-10.177-4.488-10.54z"/><path id="Path_171" data-name="Path 171" class="cls-10" d="M698.72 6136.825c-.607-9.574-5.7-20.724-17.09-19.633-4.604.364-4.726 7.635 0 7.272 12.726-1.09 10.3 19.512 8.6 27.026-2.18 9.453-6.543 18.18-11.755 26.42-11.03 17.21-25.693 32.48-40.842 46.3-3.515 3.15 1.7 8.24 5.09 5.09 18.663-16.967 37.933-36.842 48.84-60.11 4.853-10.066 8.005-21.21 7.156-32.365z"/></g></svg>