<svg xmlns="http://www.w3.org/2000/svg" viewBox="334 10054.762 393.266 907.535"><defs><style>.cls-1 { fill: #422d1e; } .cls-2 { fill: #f5bc8e; } .cls-3 { fill: #402d1e; } .cls-4 { fill: #f5dfce; } .cls-5 { fill: #b85d3f; } .cls-6 { fill: #92b3c8; } .cls-7 { fill: #ffeee0; }</style></defs><g id="Group_195" data-name="Group 195"><path id="Path_319" data-name="Path 319" class="cls-1" d="M366.242 10246.86c-1.353-9.228-3.568-18.332-5.66-27.436-2.337-10.334-22.02.37-22.02 4.06-.247 1.23 4.428 24.483 6.4 32.85 0 .245.122.368.122.614 0 6.52 8.612 12.3 14.887 6.52-3.075 2.954.37.616 1.6-.245a13.185 13.185 0 0 0 4.06-4.183c2.09-3.815 1.23-8.12.612-12.18z"/><path id="Path_320" data-name="Path 320" class="cls-2" d="M496.16 10882.92c-4.305-5.168-14.27-1.846-15.132 4.55a.74.74 0 0 1-.123.493 8.916 8.916 0 0 0-3.2 6.767c-.246 7.5-1.353 14.887-1.968 22.39-.492 6.4-1.476 14.272.738 20.424a9.268 9.268 0 0 0 9.1 6.4c4.43-.123 9.1-3.69 10.58-12.3 3.943-21.535 3.82-44.173.006-48.725z"/><path id="Path_321" data-name="Path 321" class="cls-2" d="M534.67 10474.71c-.862-9.1-54.38 1.967-59.178 2.952-4.8 32.726-.37 326.642-.123 444.5 0 14.148 17.592 17.716 20.3 7.874 38.876-140.745 26.82-192.91 26.82-192.91 4.305-39.365 17.346-236.212 12.18-262.417z"/><path id="Path_322" data-name="Path 322" class="cls-2" d="M695.222 10843.305c-6.15-2.584-13.533 4.8-11.442 10.95 0 .123.123.37.123.492a8.984 8.984 0 0 0 .37 7.5c3.2 6.767 5.658 13.78 8.488 20.792 2.462 5.904 5.29 13.41 9.966 17.715a9.54 9.54 0 0 0 10.95 1.6c3.937-2.215 6.4-7.382 3.814-15.748-6.15-20.912-16.732-40.965-22.268-43.302z"/><path id="Path_323" data-name="Path 323" class="cls-2" d="M603.32 10450.964c-3.938-8.243-64.468 21.038-68.528 23.745 4.43 20.3 18.946 143.328 58.44 246.426 23.25 60.653 84.028 131.64 101.006 165.474 6.4 12.672 23.13.37 20.3-9.6-31.126-110.357-77.016-169.042-77.016-169.042 1.845 5.417-20.177-234.244-34.203-257.004z"/><path id="Path_324" data-name="Path 324" class="cls-1" d="M714.538 10877.014c-9.6-33.833-31.126-86.86-31.126-86.86l-37.278 23.87s39.615 55.73 48.1 72.586c6.278 12.672 23.01.37 20.304-9.596zM475 10837.398s.492 62.007.492 84.767c0 14.148 17.593 17.716 20.3 7.874 9.842-35.433 20.67-90.058 20.67-90.058z"/><path id="Path_325" data-name="Path 325" class="cls-3" d="M497.39 10922.658c-7.38-1.968-22.02-1.722-22.02-1.722s-26.083 15.133-34.695 22.145c-3.322 2.708-6.52 5.783-6.274 10.09.124 4.06 3.446 7.26 7.5 8.49 4.43 1.23 9.228.368 13.657 0 4.552-.37 24.73-3.692 35.063-5.414a8.62 8.62 0 0 0 7.013-7.382c.743-9.35 2.22-25.59-.242-26.206z"/><path id="Path_326" data-name="Path 326" class="cls-3" d="M714.66 10877.996c-7.38 1.6-20.422 8.612-20.422 8.612s-16.24 25.467-20.67 35.555c-1.72 3.814-3.2 8.12-.983 11.934 1.968 3.568 6.4 4.92 10.457 4.06 4.43-.86 8.366-3.937 12.18-6.274 3.937-2.46 20.177-14.64 28.666-20.915a8.467 8.467 0 0 0 2.83-9.72c-3.442-8.732-9.596-23.742-12.057-23.252z"/><path id="Path_327" data-name="Path 327" class="cls-2" d="M707.526 10468.31c-.123-13.163-20.3-153.17-61.515-192.786a10.236 10.236 0 0 0-3.813-2.215l-.738-1.477c-4.553-8.243-19.194-2.707-15.75 6.52a9.038 9.038 0 0 0-2.952 11.32c.123.246.123.37.246.615a9.21 9.21 0 0 0-5.044 12.426c10.457 22.76 20.915 45.644 31.372 68.4 6.767 17.47 30.634 81.69 35.186 94.855-5.66 9.84-.984 45.028 2.338 50.81 3.2 5.536 11.688 5.66 14.887 0 7.505-13.406 5.783-46.377 5.783-48.47z"/><path id="Path_328" data-name="Path 328" class="cls-2" d="M467.126 10298.408c-1.6-7.5-8.735-9.473-15.38-8.735a10.626 10.626 0 0 0-4.8.37c-2.83-1.723-6.4-1.846-8.98.737-3.445-3.2-9.35-4.06-12.8.984a446 446 0 0 0-26.82 44.906c-.615-1.23-1.23-2.46-1.968-3.69-11.68-21.65-29.028-52.165-29.644-52.78-.738-3.076-1.476-6.028-2.338-9.1-2.46-9.1-4.675-32.234-12.18-38.754-4.8-4.183-15.748 15.01-16.363 16.855a30.87 30.87 0 0 0 6.154 31.246 26.122 26.122 0 0 0 4.43 3.69c0 .616 4.674 33.342 13.41 55.487q6.46 16.24 14.023 32.107c1.476 3.076 9.473 19.07 23.13 20.915 10.95 1.476 22.02-11.81 23.62-13.41a178.944 178.944 0 0 0 29.774-38.14 216.235 216.235 0 0 0 10.088-19.93c2.83-6.27 7.998-15.867 6.644-22.757z"/><path id="Path_329" data-name="Path 329" class="cls-1" d="M545.003 10535.977c-.738-10.21-16.24-17.1-27.312-16.61a20.56 20.56 0 0 0-8.488 2.092 30.905 30.905 0 0 0-18.575-7.26c-15.994-.37-25.713 13.656-26.7 28.174-.738 10.21-8-.123-8 10.21 0 5.537.37 227.728 0 235.6-.492 10.335 9.965 9.843 20.177 9.35 2.953-.122 33.095-1.72 43.183-1.72 10.827.122 19.07 1.475 19.316-9.1 1.724-56.966 10.337-193.897 6.4-250.737z"/><path id="Path_330" data-name="Path 330" class="cls-1" d="M613.53 10498.454c-3.32-9.72-21.406 3.445-31.987 6.89a23.313 23.313 0 0 0-7.75 4.183 29.58 29.58 0 0 0-19.81-2.092c-15.624 3.814-21.283 19.808-18.576 34.08 1.968 10.087-13.9-2.954-11.2 7.012 1.476 5.29 59.054 204.6 60.653 212.348 2.215 10.088 14.27 16.978 24.114 13.9 2.83-.86 31.5-10.334 41.338-12.8 10.58-2.707 16.363-13.78 13.9-24.114-13.16-55.6-32.227-185.397-50.68-239.406z"/><path id="Path_331" data-name="Path 331" class="cls-4" d="M660.652 10276.878c-8-11.2-23.13-46.505-69.512-69.758-16.732-8.366-62.007-14.27-88.458-1.968-12.42 5.783-21.653 11.073-28.543 16.483-32.11 22.64-47.12 48.845-54.995 59.8-4.43 6.028-7.628 13.533-7.382 21.16.37 9.474 6.644 15.626 13.656 20.793 7.258 5.413 14.516 10.7 21.9 15.994-.247 21.284-.247 45.275-.124 67.05a13.372 13.372 0 0 0-.123 2.216 822.75 822.75 0 0 1-4.183 102.975c-1.846 17.465 6.27 92.267 61.39 108.012 4.307 1.23 9.6-1.353 10.582-6.028 2.953-13.9 5.782-27.682 8.612-41.584 2.83 15.5 5.66 30.88 8.366 46.382.86 4.675 6.275 6.644 10.58 6.028 42.323-6.028 88.828-43.675 93.38-47.12 10.827-8.366 8.735-144.067-.738-244.336 6.4-4.675 12.8-9.227 19.07-14.025 7.012-5.29 13.286-11.442 13.655-20.792.492-7.75-2.706-15.254-7.135-21.282z"/><path id="Path_332" data-name="Path 332" class="cls-2" d="M531.963 10133.67c10.088-1.23 23.5 5.414 24.114 17.1.738 14.518 3.2 52.9 1.107 57.333-.246.492-.492 1.107-.738 1.6-4.306 9.6-14.025 6.15-24.483 3.69-10.827-2.46-15.748-2.46-15.87-13.04-.124-15.256-.616-28.666-1.23-42.69-.617-10.705 5.043-22.392 17.1-23.992z"/><path id="Path_333" data-name="Path 333" class="cls-2" d="M480.536 10085.936c11.073-7.136 21.776-16.24 34.325-12.3a14.29 14.29 0 0 1 6.768 2.707c19.562 14.148 35.432 35.186 33.464 57.7-.984 10.58-19.808 33.34-27.066 41.584a21.376 21.376 0 0 1-11.32 6.89c-4.674 1.6-9.472.615-14.024-1.722a30.866 30.866 0 0 1-6.52-4.183 66.958 66.958 0 0 1-12.058-12.557c-7.997-10.7-20.053-67.415-3.568-78.12z"/><path id="Path_334" data-name="Path 334" class="cls-5" d="M574.285 10087.167c-1.968-13.41-9.965-24.606-23.253-28.79-6.15-1.967-13.04-2.09-19.44-1.475-3.32.37-20.422 2.215-25.1 3.69a32.4 32.4 0 0 0-4.305-3.075c-6.028-3.568-14.025-4.06-19.562.86a14.423 14.423 0 0 0-4.306 7.63 2.094 2.094 0 0 0-.124.86 19.174 19.174 0 0 0-4.552-2.09c-14.14-3.57-19.558 12.916-14.268 23.374a26.807 26.807 0 0 0 13.78 12.8c1.844 1.97 41.214 16.24 55.608 10.7 16.61-6.4 19.93 7.875 18.577 17.963-1.844 14.517-13.532 31.372-2.46 33.218 3.445.616 7.013 3.57 10.21-.983 11.69-16.12 20.913-62.5 19.195-74.68z"/><path id="Path_335" data-name="Path 335" class="cls-6" d="M648.225 10323.505c0-2.338.123-4.675.123-7.013l8.12.738a36.51 36.51 0 0 0 8.366-9.1c-5.413-.492-10.827-.984-16.363-1.476.124-6.767.247-13.533.493-20.3.246-8.858.492-17.716.615-26.574-2.707-4.06-5.782-8.49-9.473-13.164v2.215c-16.363-1.72-32.726-3.2-49.09-4.674.74-11.934 1.477-23.868 2.34-35.8-.74-.37-1.477-.86-2.34-1.23a73.34 73.34 0 0 0-7.26-2.96c-.862 13.042-1.723 25.96-2.585 39-17.47-1.475-35.063-2.952-52.533-4.182.984-13.533 1.353-18.823 2.46-32.234q-4.982.37-9.964 1.107c-.984 12.918-1.353 17.593-2.338 30.51-14.27-.983-28.543-1.967-42.814-2.83.616-5.535 1.23-11.2 1.846-16.73-1.353.983-2.707 1.967-3.937 2.83-2.34 1.72-4.676 3.32-6.768 5.043-.246 2.707-.615 5.413-.86 8.243-1.108-.123-2.216-.123-3.446-.246-1.6-.123-3.322-.123-4.92-.246-3.446 3.077-6.768 6.276-9.72 9.35 5.66.247 11.32.616 16.978.985-1.353 13.04-2.707 26.082-4.06 39.246-2.707-.368-5.413-.737-8.12-1.23-10.58-1.6-21.16-3.2-31.618-4.92q-1.292 2.03-2.584 3.69a47.553 47.553 0 0 0-3.322 5.29c14.887 2.34 29.773 4.676 44.66 6.89-1.353 14.026-2.584 28.052-3.69 41.954-2.34-.37-4.553-.738-6.89-1.107-4.06-.615-8.12-1.353-12.18-2.09 3.2 2.337 6.4 4.674 9.718 7.012v4.428c2.83.492 5.66.984 8.612 1.476-1.107 13.78-2.215 27.682-3.2 41.46-1.845-.122-3.69-.245-5.536-.245v9.84c1.6.124 3.2.124 4.8.247-1.23 16.978-2.215 33.956-3.2 51.057-.492 0-1.107-.123-1.6-.123-.123 3.323-.246 6.522-.37 9.843.493 0 .985.123 1.354.123-.86 15.994-1.722 32.11-2.338 48.1a15.685 15.685 0 0 1-2.338-.123c-.246 2.09-.37 4.06-.615 6.15-.123.985-.123 2.216-.246 3.692a19.925 19.925 0 0 1 2.708.123l-.732 17.72c0 1.475-.123 2.952-.123 4.305a152.28 152.28 0 0 0 8.858 31.865c.124-3.076.124-6.275.247-9.35 14.64 1.476 29.4 2.83 44.044 4.306-.983 17.347-1.844 34.694-2.706 52.04a58.775 58.775 0 0 0 9.227 3.323c.124 0 .247.123.493.123.86-18.208 1.845-36.294 2.83-54.5 20.546 1.968 40.97 3.69 61.515 5.536-.246 15.5-.37 31-.492 46.5 3.322-1.23 6.644-2.707 9.842-4.183l.37-41.584c18.822 1.6 37.523 3.2 56.346 4.55v1.6c.246-.122.37-.368.492-.368 9.842-7.628 8.98-120.815 1.6-216.777-17.47-1.968-34.817-4.06-52.287-6.274.614-14.763 1.352-29.526 2.09-44.29 17.1 1.97 34.08 3.692 51.18 5.414-.123 5.044-.246 10.21-.246 15.256 3.938-2.457 7.26-4.917 10.58-7.255zm-173.1-78.247c14.394.86 28.79 1.845 43.183 2.83-1.107 14.394-2.215 28.912-3.2 43.306-14.64-1.968-29.4-3.937-44.044-6.15 1.23-13.288 2.583-26.577 4.06-39.985zm-5.17 50.32v-.492c14.763 2.092 29.526 4.183 44.29 6.15-.985 14.272-2.092 28.667-3.077 42.938-15.01-2.215-30.02-4.552-45.03-6.89 1.357-13.902 2.588-27.804 3.816-41.706zm29.28 239.784c-.37 6.4-.738 12.8-.984 19.193-14.763-1.353-29.526-2.83-44.29-4.306.37-11.443.74-23.007 1.23-34.45 15.01.616 30.02 1.108 45.153 1.846zm1.6-27.56c-15.133-.614-30.142-1.23-45.275-1.844.738-15.87 1.476-31.742 2.338-47.612 15.256 1.353 30.388 2.707 45.644 4.06-.988 15.255-1.845 30.387-2.706 45.397zm3.322-54.993c-8.735-.74-17.593-1.6-26.328-2.34-6.4-.614-12.92-1.23-19.317-1.72.984-17.1 2.092-34.2 3.2-51.427 15.256.86 30.51 1.845 45.767 2.83-1.107 17.47-2.215 35.063-3.326 52.656zm-31.25-64.714c-3.567-.246-7.012-.37-10.58-.615.985-13.532 1.97-26.942 3.077-40.476 15.01 2.46 30.02 4.675 45.152 6.89-.86 12.18-1.6 24.237-2.46 36.417-11.69-.743-23.5-1.476-35.187-2.214zm96.456 161.66c0 3.69-.123 7.5-.123 11.2-20.423-1.722-40.723-3.568-61.146-5.536.738-12.426 1.353-24.975 2.092-37.4q29.9 1.292 59.792 2.953c-.245 9.594-.49 19.187-.614 28.783zm.738-38.63c-19.807-.985-39.614-1.97-59.422-2.83.86-15.01 1.722-29.9 2.707-44.907 19.316 1.72 38.508 3.32 57.824 4.92zm1.354-52.66c-19.193-1.6-38.385-3.2-57.578-4.92l3.323-52.78c18.7 1.23 37.277 2.585 55.977 4.06-.615 17.964-1.107 35.803-1.723 53.64zm2.215-63.36q-27.867-2.214-55.733-4.06c.738-11.933 1.6-23.744 2.338-35.677 18.208 2.583 36.417 5.166 54.625 7.5-.37 10.708-.86 21.535-1.23 32.238zm1.72-42.075c-18.207-2.337-36.293-4.92-54.5-7.5.985-14.393 1.97-28.788 3.077-43.182 17.84 2.338 35.678 4.552 53.518 6.52-.74 14.883-1.355 29.524-2.093 44.164zm2.708-53.763c-17.84-2.09-35.555-4.183-53.395-6.52.246-2.83.37-5.66.615-8.49.86-11.81 1.722-23.622 2.707-35.432 17.593 1.353 35.063 2.707 52.656 4.183-.982 15.38-1.843 30.76-2.58 46.26zm57.21 259.838v7.262c-18.7-1.476-37.525-2.953-56.225-4.552.246-13.41.37-26.82.738-40.23 18.578.983 37.156 2.09 55.856 3.2-.246 11.438-.246 22.882-.37 34.32zm.368-44.167c-18.577-1.107-37.155-2.215-55.732-3.2.37-14.148.615-28.42 1.107-42.568l54.995 4.43c-.123 13.657-.37 27.56-.37 41.34zm.492-51.3c-18.33-1.476-36.54-2.83-54.87-4.43.49-17.838 1.106-35.8 1.72-53.64 17.963 1.476 35.8 2.953 53.765 4.675-.246 17.837-.492 35.676-.615 53.392zm1.353-93.133c-.122 9.965-.368 19.93-.49 30.02-17.84-1.6-35.68-3.2-53.52-4.676.37-10.582.862-21.162 1.354-31.743 17.47 2.335 35.064 4.427 52.658 6.395zm-49.7-70.127c.616-11.442 1.23-22.76 1.846-34.2l.738-12.18c16.486 1.476 32.972 3.076 49.335 4.8-.37 15.625-.74 31.372-1.108 47-16.858-1.73-33.836-3.577-50.814-5.422z"/><path id="Path_336" data-name="Path 336" class="cls-7" d="M579.083 10201.953a113.062 113.062 0 0 0-20.3-3.69c-6.4 4.428-15.38 6.643-22.022 6.89a35.335 35.335 0 0 1-19.56-4.8 69.31 69.31 0 0 0-14.518 4.8c-1.476.737-2.953 1.352-4.43 2.09 10.335 10.827 25.714 16.24 40.6 15.01 13.9-1.354 32.357-7.505 40.23-20.3z"/></g></svg>