<svg xmlns="http://www.w3.org/2000/svg" viewBox="1126.49 1640 619.408 1094.214"><defs><style>.cls-1 { fill: #586688; } .cls-2 { fill: #422d1e; } .cls-3 { fill: #f5bc8e; } .cls-4 { fill: #442d1d; } .cls-5 { fill: #b85d3f; } .cls-6 { fill: #e9a45c; } .cls-7 { fill: #402d1e; }</style></defs><g id="Group_186" data-name="Group 186"><path id="Path_241" data-name="Path 241" class="cls-1" d="M1318.49 2640.645c-1.56-10.65-4.117-20.733-9.23-30.247-2.84-5.254-9.655-4.26-12.78 0a29.148 29.148 0 0 0-3.55 6.532c-1.42-6.674-12.353-8.52-14.342-.568-2.414 9.8-12.78 15.48-20.45 20.875-8.093 5.822-17.182 11.077-24.424 18.035-14.06 13.35-5.4 31.1 14.485 24.567 10.365-3.41 20.59-7.954 30.956-11.5 5.822-1.99 11.5-3.835 17.325-5.68 4.687-1.42 10.083-2.415 14.486-4.687 8.803-4.69 8.803-8.666 7.525-17.328z"/><path id="Path_242" data-name="Path 242" class="cls-1" d="M1402.7 2627.722a5.726 5.726 0 0 0-4.828-4.97c-1.562-3.976-4.4-6.958-9.23-7.668a1.8 1.8 0 0 1-.852-.142c1.988-7.384-9.088-13.064-13.49-5.538-4.545 7.668-33.94 16.047-37.064 17.325-5.112 2.13-7.242 6.957-7.668 12.212-1.136 11.928 6.39 12.78 18.035 14.343 7.668.994 15.337 1.7 23 2.414 6.674.71 14.77 2.84 21.443.85 14.204-4.26 12.358-17.326 10.654-28.828z"/><path id="Path_243" data-name="Path 243" class="cls-2" d="M1480.237 2163.223c-.284-8.662-9.514-12.78-16.047-9.94-4.686-5.68-14.484-7.526-18.177.71l-.852 2.13.995-7.242c.852-7.24-6.532-11.5-12.922-10.79.426-2.557.71-5.255 1.136-7.81.85-5.965-1.563-11.787-7.67-13.634-5.4-1.562-12.5 1.846-13.632 7.668-1.278 6.958-2.7 13.775-3.976 20.733a11.564 11.564 0 0 0-11.076-2.84c-2.556-4.118-7.81-6.816-12.5-5.68-3.834-4.686-11.5-6.532-16.9-1.562-3.834 3.55-7.526 7.1-11.218 10.792-3.124-1.562-6.674-1.846-9.8.142 1.562-2.7 3.124-5.54 4.686-8.237 4.118-7.242-1.846-15.62-8.52-16.9-4.686-4.118-12.78-4.828-17.04 2.13-30.67 51.122-84.487 193.696-88.324 212.582-7.668 39.193 36.78 286.71 37.49 289.833 1.845 8.094 37.488-4.26 37.346-5.68 2.556-6.248-9.94-205.624-19.88-279.893 7.667-9.94 66.032-82.647 86.48-109.77 2.556-2.84 5.112-5.822 7.526-8.662-1.136 36.21-7.81 169.838-7.952 198.95-.142 9.656-.284 19.455-.142 29.11-1.136 21.16-6.958 157.2-6.816 168.42.142 5.537 28.26 16.472 32.093 3.407 1.136-3.976 51.832-254.616 66.175-364.528 4.117-30.815 10.51-62.34 9.517-93.44z"/><path id="Path_244" data-name="Path 244" class="cls-3" d="M1441.752 1744.307l-6.106 3.695-.284-5.964c-.284-7.952-8.8-10.366-13.917-7.242a8.59 8.59 0 0 0-5.4 2.414 9.468 9.468 0 0 0-7.668 5.964c-.142.284-.142.426-.284.71a10.145 10.145 0 0 0-2.13 1.136 7.174 7.174 0 0 0-3.834 3.266 7.592 7.592 0 0 0-4.83 4.26 8.474 8.474 0 0 0-4.117 7.242c-.426 9.8 1.136 55.24 1.988 60.068.853 4.4 49.7-.142 49.7-2.982-.136-22.297-1.84-43.03-3.118-72.567z"/><path id="Path_245" data-name="Path 245" class="cls-3" d="M1389.494 1667.482c11.786-8.378 28.26-9.23 39.9-.71a16.177 16.177 0 0 1 6.106 5.254c15.337 21.585 9.372 55.808-.568 78.387-4.686 10.65-11.786 23.147-22.153 29.253a22.86 22.86 0 0 1-14.2 3.124c-5.4 0-10.083-2.7-13.918-6.674a27.317 27.317 0 0 1-5.254-6.674 72.244 72.244 0 0 1-8.094-17.325c-4.544-13.775-4.97-28.543-2.982-42.886 1.99-15.903 7.813-32.23 21.162-41.748z"/><path id="Path_246" data-name="Path 246" class="cls-4" d="M1372.597 2486.71c-3.124-40.9-12.922-82.504-37.915-115.733-20.165-26.84-46.152-58.364-79.24-64.47-3.833-1.136-9.94-1.7-12.5-1.988-32.376-3.55-61.77 16.472-79.38 43.17-19.595 29.677-28.965 67.166-33.796 101.957-9.656 69.867 2.13 142.15 34.08 204.914a307.536 307.536 0 0 0 27.834 45.017c10.508 13.917 23 25.42 39.9 30.957 33.37 10.792 69.015-3.266 92.587-27.69 25.987-26.982 39.05-64.045 44.732-100.4 5.825-38.056 6.677-77.676 3.697-115.733zm-14.343 82.222c-2.414 34.507-8.946 69.725-26.555 99.972-15.764 26.98-42.177 50.27-74.838 50.838-16.047.284-31.383-4.97-43.028-16.19-11.787-11.355-20.875-26.128-28.97-40.187-32.093-54.956-47-119.143-44.022-182.477 1.7-35.785 8.946-72.85 23.715-105.652 12.78-28.4 38.2-58.08 71.145-57.228.71 0 2.982.568 9.514 1.136 29.82 2.84 53.962 31.24 72.99 53.678 21.444 25.56 32.52 57.938 37.49 90.6 5.4 34.65 4.97 70.72 2.557 105.51z"/><path id="Path_247" data-name="Path 247" class="cls-4" d="M1741.952 2417.13c-4.686-36.07-12.5-74.98-32.66-105.795-8.947-13.775-20.734-26.555-36.638-32.377-5.538-1.988-19.74-3.408-32.235-1.136-12.64 2.272-23.574 8.236-27.55 11.928-10.65 10.224-18.887 25.987-22.58 36.5-10.79 30.673-12.07 65.607-12.5 97.7-.425 35.927 2.415 72 7.243 107.64 4.118 31.667 7.1 65.89 21.585 94.718 12.922 25.987 38.625 46.01 67.737 49.56 14.342 1.7 28.543-1.562 39.193-11.644 11.218-10.508 16.473-25.56 19.17-40.33 6.25-33.654 9.657-68.446 11.787-102.527 2.276-34.656 1.99-69.73-2.553-104.238zm-18.177 171.257c-2.982 23-3.408 62.766-30.247 72-25.135 8.8-55.24-10.792-68.873-30.957-14.91-22.295-18.46-50.412-22.437-76.257a888.563 888.563 0 0 1-9.656-93.156c-1.562-33.94-.994-68.447 4.544-101.96 2.272-13.775 5.538-27.833 12.212-40.187 3.408-6.532 12.07-19.88 21.3-23.147 18.46-6.816 37.347-3.266 44.732 1.136 11.36 6.957 19.6 18.46 26.13 29.962 14.058 24.993 20.59 54.388 24.992 82.647 9.373 59.497 4.97 120.417-2.697 179.917z"/><path id="Path_248" data-name="Path 248" class="cls-4" d="M1271.772 2501.053c-1.562-8.662-5.112-17.75-10.65-24.71-4.26-5.253-11.076-6.957-15.763-2.555-13.918 1.562-15.196 29.963-15.338 40.33-.142 8.094.426 17.04 6.532 23a20.78 20.78 0 0 0 20.45 4.686c16.188-5.107 17.324-26.976 14.768-40.75zm-19.03 28.685c-10.507 3.124-10.08-11.645-9.8-17.893a71.054 71.054 0 0 1 1.42-13.35c.57-2.84 1.7-10.08 3.977-12.5a.5.5 0 0 0 .283-.14 5.2 5.2 0 0 0 3.266-.57 32.138 32.138 0 0 1 1.845 2.84 65.2 65.2 0 0 1 3.408 7.1 50.947 50.947 0 0 1 2.84 12.213c.57 6.538.854 19.886-7.24 22.3z"/><path id="Path_249" data-name="Path 249" class="cls-4" d="M1681.315 2448.653c-4.4-5.112-10.65-7.1-16.9-4.118s-9.088 9.372-10.082 15.9a38.8 38.8 0 0 0-.568 5.4c.568 10.792.71 29.4 11.218 39.052 4.4 4.118 10.792 5.254 16.047 1.988 5.964-3.692 8.236-11.218 9.514-17.75 2.558-13.35-.14-29.82-9.23-40.472zm-3.408 39.336c-.426 1.987-1.278 8.093-4.4 7.24-2.272-.71-3.266-7.95-3.834-9.94-2.84-11.644-2.13-24.14-2.272-24.566.71-2.7 1.99-5.254 4.4-3.692 2.415 1.42 4.12 7.242 4.83 9.514a40.9 40.9 0 0 1 1.277 21.443z"/><path id="Path_250" data-name="Path 250" class="cls-4" d="M1693.527 2094.776c-28.26 11.786-58.08 18.177-88.043 22.863a55.374 55.374 0 0 0-8.094 1.277c-34.79 4.97-69.725 9.088-104.658 13.633-8.946 1.136-9.088 15.337 0 14.2 34.65-4.4 69.44-8.52 104.09-13.49 3.55 42.317 8.378 84.35 14.485 126.384a3209.8 3209.8 0 0 0-329.026-45.726c1.847-12.78 3.977-25.56 5.4-38.34a45.676 45.676 0 0 0 5.823 4.543 78.93 78.93 0 0 0 18.177 7.81c11.786 3.55 24.567 0 26.27-13.774 1.42-10.934-6.673-25.135-14.91-31.95-4.686-3.835-10.366-4.97-16.19-5.823-7.95-.994-15.194-3.692-22.578-6.958-12.5-5.538-25.7-10.792-39.62-7.384-5.68 1.42-12.78 4.83-15.9 10.083a8.843 8.843 0 0 0-1.42 5.4 10.714 10.714 0 0 0 .71 9.94c3.124 4.97 9.514 5.822 14.77 6.958 10.507 2.415 22.152 4.26 31.666 9.94-1.42 17.184-4.26 34.224-6.674 51.265a12.428 12.428 0 0 0-.284 2.272 3.53 3.53 0 0 0-.142 1.136c-2.982 21.3-4.828 42.744-5.822 64.186-2.13 46.577-.568 93.3-1.42 140.016-.284 17.467-.994 34.933-2.272 52.258h-.284c-8.946-1.7-12.07 6.674-3.124 8.52.994.142 1.278 5.538 2.272 5.822-.426 4.544 6.532 9.514 5.964 14.06-.994 9.087 5.822 8.52 6.816-.427.426-3.693.852-7.385 1.136-11.077 22.01 3.692 44.164 6.532 66.46 8.236 14.626 1.135 29.252 1.7 43.88 1.987 5.4 0 10.933-.142 16.472-.284a46.585 46.585 0 0 0-8.946 25.845c-.284 12.07 6.106 27.55 16.33 36.353-17.608 1.137-36.5-3.833-52.54-7.95-32.378-8.237-64.9-16.474-97.275-24.71-8.8-2.272-17.75 8.378-8.8 10.65 32.8 8.378 70.72 19.88 103.664 28.117 27.832 6.958 60.92 14.484 87.332-.994a30.2 30.2 0 0 0 3.55-2.272v.143c3.834 11.36 2.982 22.58 4.26 34.223 1.136 11.077 5.538 20.733 15.763 25.987a96.99 96.99 0 0 0 13.064 5.4 35.6 35.6 0 0 0 21.158 5.112c1.136.142 2.13.426 3.266.568 6.39 1.136 12.78-6.816 6.958-11.928a37.145 37.145 0 0 0-32.235-8.946 38.763 38.763 0 0 1-6.816-3.55c-9.37-6.25-6.957-20.024-7.667-29.68a81.713 81.713 0 0 0-6.816-27.975 36.47 36.47 0 0 0 6.532-14.06c2.555-12.5-2.7-26.128-10.083-36.068a41.62 41.62 0 0 0-9.088-8.946 8.293 8.293 0 0 0-.57-2.555c-39.476-90.315-83.64-181.91-157.34-249.645a6.667 6.667 0 0 0-2.273-1.42c.568-5.4 1.136-10.792 1.846-16.047a3147.61 3147.61 0 0 1 332.01 46.294 3.126 3.126 0 0 0 1.135.142c9.514 63.05 25.135 140.442 40.33 202.357 2.13 8.8 12.638-9.656 10.508-18.6a2124.17 2124.17 0 0 1-41.608-218.546c10.082 4.12 15.053-5.4 16.473-16.472 3.267-14.343-.85-37.063-18.744-31.24-.284.14-.426.14-.71.283a10.954 10.954 0 0 0-2.7 1.137c-2.414-20.59-4.4-41.324-6.106-62.056 29.537-4.685 58.79-11.075 86.48-22.578 7.798-3.697 4.248-17.476-4.273-13.926zm-250.213 433.97a23.1 23.1 0 0 1-.142 13.206 80.94 80.94 0 0 0-12.354-13.775c-6.816-6.106-16.9 3.976-10.082 10.082a72.224 72.224 0 0 1 13.49 15.9c-1.135.85-2.27 1.7-3.55 2.555a38.214 38.214 0 0 1-4.117 2.272 6.4 6.4 0 0 0-4.4-1.562c-11.077-.142-19.172-17.893-19.6-27.123-.427-8.236 5.11-25.135 15.194-26.7a13.288 13.288 0 0 1 2.272.568c12.07 2.706 20.022 12.935 23.288 24.575zm-23.152-39.48h-1.7c-16.047-3.123-34.365-.993-49.986-1.42a692.884 692.884 0 0 1-96.848-9.8c5.4-72.138-.284-144.844 5.112-216.983 65.75 63.194 106.93 145.842 143.422 228.204zm205.06-278.613a5.328 5.328 0 0 0 .143-1.42c.284 1.136.426 2.272.568 2.84 0 .426.142.852.142 1.278a17.632 17.632 0 0 1-.426 3.835 8.43 8.43 0 0 1-.427-.994 10.47 10.47 0 0 1 0-5.537z"/><path id="Path_251" data-name="Path 251" class="cls-3" d="M1247.914 2121.9c-.994-4.4-5.4-7.952-10.082-4.686-8.8 6.39-22.437 5.112-27.55 16.33-4.4 9.8 1.7 24.568 11.5 29.112a8.538 8.538 0 0 0 11.5-3.834 10.24 10.24 0 0 0 .427-7.668c-.285-1.136-3.693-6.248-3.55-6.674-.427.852 7.81-.284 8.377-.284a25.58 25.58 0 0 0 7.81-2.13 15.05 15.05 0 0 0 8.662-13.348c.29-4.688-3.404-6.96-7.096-6.818z"/><path id="Path_252" data-name="Path 252" class="cls-5" d="M1439.622 1661.944c-9.94-2.7-22.01-4.544-32.8-2.7-21.017 3.408-25.987 21.727-26.13 23a40.254 40.254 0 0 0 8.656 32.1c6.39 7.952 15.48 14.06 20.59 22.863 6.39 11.076-1.56 26.27 6.39 36.21 8.52 10.51 22.722 1.847 30.248-5.253 8.236-7.81 13.633-18.035 22.153-25.42 9.94-8.52 18.034-15.762 18.744-29.82 1.282-26.13-25.13-44.873-47.852-50.98z"/><path id="Path_253" data-name="Path 253" class="cls-3" d="M1568.846 2110.255a15.638 15.638 0 0 0-2.556-.284 15.194 15.194 0 0 0-2.272-1.987c-2.7-1.988-5.964.426-6.532 3.124-2.272-2.414-6.39-1.988-7.526 1.42-.284-.426-.426-.852-.71-1.278-1.7-2.7-6.816-2.983-7.952.425-1.988-2.272-5.822-1.278-7.1 1.136-2.272-1.135-5.4-.567-6.248 2.7-2.13 8.095 6.674 17.752 11.36 23.716s13.774 4.544 20.307 2.272a17.932 17.932 0 0 0 9.656-7.81 2.633 2.633 0 0 0 .994-.284c11.785-4.404 11.502-20.737-1.42-23.15z"/><path id="Path_254" data-name="Path 254" class="cls-6" d="M1560.184 2077.167c-4.4-9.23-8.662-18.46-13.065-27.69-11.22-24-7.243-23.432-18.6-47.43 2.13-20.734 1.987-41.61-1.7-62.767-4.4-24.71-13.066-48.708-24.142-71-10.082-20.165-24.283-39.76-44.874-50.412-17.183-8.8-46.436-9.372-75.973 7.81-59.073 34.365-70.008 107.5-77.676 145.13-33.093 87.757-67.884 134.902-72.997 149.813-1.278 3.693.142 8.095 2.84 10.793 24 24.283 51.122-10.082 66.316-26.7 8.378-9.23 16.615-18.6 24.425-28.4-2.272 11.786-4.544 23.573-6.39 35.5-1.988 13.35-3.834 28.543 9.656 36.21 19.03 10.65 42.6 12.5 64.612 13.066 2.7.425 5.254.85 7.952 1.135 11.36 1.7 22.863 3.692 33.655 7.526 10.65 3.693 20.733 8.8 32.235 9.515 23.147 1.278 34.933-18.887 37.915-39.05a333 333 0 0 0 3.266-41.183c7.95 15.195 8.945 15.053 11.927 19.313 4.4 5.964 11.644 7.242 17.325 2.272 9.8-8.378 33.8 1.562 33.23-18.46.144-8.66-6.388-17.747-9.938-24.99z"/><path id="Path_255" data-name="Path 255" class="cls-7" d="M1486.773 1668.76c-3.55-11.076-12.212-17.467-23.29-19.88-11.79-2.557-51.268-18.46-68.31-.285-3.834 4.118-18.177 23.573-18.177 29.963-18.46-4.4-28.827-7.384-47.288-11.786a5.323 5.323 0 0 0-6.39 3.55c-.142.284-.142.426-.284.71a5.072 5.072 0 0 0 2.414 5.822c.142.142 30.957 7.242 49.986 11.786.142.284 40.756 10.792 52.684 14.343 11.076 3.266 42.034 14.2 53.536 15.62 3.694.285 11.22-31.24 5.12-49.843z"/><path id="Path_256" data-name="Path 256" class="cls-1" d="M1523.124 2031.584c-1.136-27.407-2.84-54.956-4.26-82.363-.71-13.774-1.42-27.406-2.13-41.18-.568-12.07 1.136-32.378-5.68-44.733-11.218-20.023-35.36-26.7-57.086-26.13-23.573.57-48.14 4.12-69.3 15.196a155.132 155.132 0 0 0-6.674-20.875c-.426-.994-1.136-2.84-1.136-2.84l-12.213 9.088s.71 1.7.994 2.556c4.827 12.78 7.667 26.413 9.37 40.046 2.557 20.733 4.4 41.892 3.55 62.624s-5.4 41.04-16.33 58.932c-7.242 11.786-16.473 22.437-25.845 32.66-.568.71-1.846 1.99-1.846 1.99l-2.416 24.283a20.83 20.83 0 0 0 1.42-1.562c10.792-11.786 22.153-23.43 31.95-36.21-.71 10.65-1.56 24.708 3.693 33.654 5.538 9.513 19.455 10.79 29.253 12.637a271.594 271.594 0 0 0 38.767 3.834c10.65.427 71 .995 80.8-16.188a37.79 37.79 0 0 0 4.26-11.786 60.13 60.13 0 0 0 .857-13.632z"/></g></svg>