<svg xmlns="http://www.w3.org/2000/svg" viewBox="297 7329 327.004 911.92"><defs><style>.cls-1 { fill: #442d1d; } .cls-2 { fill: #efbc90; } .cls-3 { fill: #f5bc8e; } .cls-4 { fill: #422d1e; } .cls-5 { fill: #5a6688; } .cls-6 { fill: #f5dfce; }</style></defs><g id="Group_183" data-name="Group 183"><path id="Path_183" data-name="Path 183" class="cls-1" d="M474.646 7362.545a12.01 12.01 0 0 0-.257-2.956c-1.156-4.243-6.556-8.1-11.056-6.3-14.653 5.913-11.054 22.108-10.41 34.96.385 7.713.77 15.3 1.413 23.01.514 6.554.77 14.652 3.985 20.436 2.956 5.27 10.026 7.712 15.167 3.728a10.815 10.815 0 0 0 3.726-5.784 8.477 8.477 0 0 0 5.656-7.97c.514-16.966 1.542-33.8 3.213-50.642.643-6.812-6.04-9.897-11.44-8.483z"/><path id="Path_184" data-name="Path 184" class="cls-2" d="M381.844 8143.778a6.74 6.74 0 0 0-3.856-7.712c-2.314-5.4-25.064 19.666-26.093 26.864a247.59 247.59 0 0 0-5.015 36.375c-.386 6.3 7.97 8.355 11.954 5.14a12.114 12.114 0 0 0 3.213 2.315c4.37 2.314 4.756-1.157 6.17-5.4 4.627-13.753 13.24-56.17 12.6-57.455.128-.77.77.644 1.027-.127z"/><path id="Path_185" data-name="Path 185" class="cls-2" d="M524.132 8149.562c0-1.928 3.213 1.67 2.185.514-.257-1.67-.386-3.342-.643-5.013-.77-5.14-6.04-6.04-9.9-4.113a7.013 7.013 0 0 0-4.242-1.414c-.13-.128-.257-.386-.386-.514a10.667 10.667 0 0 0-5.14-3.085c-4.114-1.028-9.255 2.057-9 6.812.256 2.7.385 5.4.642 8.1-.514.9 0-8.356 0-7.07 1.157 17.48.386 45.244 5.013 62.082.515 2.057 3.343 3.6 4.885 4.37 2.828 5.27 11.825 6.427 12.982-.77.13-.644.13-1.158.257-1.8a7.306 7.306 0 0 0 6.3-7.07c0-1.67-6.17 4.113-6.17 2.57.386-.9 2.314-4.24 2.314-5.4.133-12.725.775-35.476.904-48.2z"/><path id="Path_186" data-name="Path 186" class="cls-3" d="M543.28 7384.653c-4.24-27.506-38.56-46.658-65.037-22.88-18.378 16.453-17.993 51.03-16.062 65.81 1.672 12.98 7.456 25.706 17.996 33.547 10.668 7.84 30.59 7.455 42.8 1.67 21.205-9.767 24.035-53.726 20.305-78.147z"/><path id="Path_187" data-name="Path 187" class="cls-1" d="M547.14 7748.148c-2.314-6.04-95.116-12.468-133.676-4.5-10.925 2.185-11.183 22.365-11.568 23.522-34.062 102.443-51.67 363.754-55.146 392.546-1.028 8.612 37.532 14.78 39.46 5.784 15.3-72.494 69.923-276.478 78.663-301.156 1.928-5.27 3.727-10.54 5.656-15.81 10.41 76.607 23.392 289.2 23.264 317.48 0 8.612 37.66 11.054 38.817.257 5.4-55.27 27.25-275.577 27.636-330.59.133-29.69-2.18-59.897-13.106-87.532z"/><path id="Path_188" data-name="Path 188" class="cls-4" d="M368.22 8195.32c-10.54-3.726-20.437-5.012-29.82 1.03-9.383 6.17-18.766 12.467-27.25 19.793-3.212 2.828-6.426 6.04-6.17 10.54.13 4.242 3.343 7.584 7.327 8.87 4.37 1.284 9.126.385 13.5 0 6.17-.515 12.21-1.03 18.38-1.543 9-.77 18.638-2.185 23.65-10.668 2.697-4.886 4.882-26.35.383-28.02z"/><path id="Path_189" data-name="Path 189" class="cls-4" d="M549.968 8217.814a203.766 203.766 0 0 0-16.067-17.224c-4.37-4.242-9-9-15.166-10.154-3.085-.514-12.853 1.67-14.78 2.57-5.014 2.7-5.785 8.1-6.3 13.24-.387 5.013.256 10.283 3.6 14.267 3.855 4.627 10.54 6.812 15.81 9.255 6.554 2.956 13.11 5.784 19.922 8.355 6.17 2.442 11.183 4.113 17.61 1.414a6.48 6.48 0 0 0 3.212-5.527c-.257-6.684-3.727-11.312-7.84-16.196z"/><path id="Path_190" data-name="Path 190" class="cls-5" d="M608.194 7632.468c-12.6-37.532-28.406-73.907-53.727-104.627-26.22-33.675-51.542-40.873-61.954-47.942-4.756-3.213-10.8-2.828-15.81-.257a25.96 25.96 0 0 0-4.242.387c-11.824 2.314-23.906 3.856-35.6 6.812-33.932 8.354-60.41 41.26-68.508 55.14-11.054 18.895-17.995 39.846-24.68 60.54-15.94 49.613-43.318 198.713-46.663 218.767-.772 4.756 35.6 7.97 35.99 7.326 5.27-7.07 30.333-107.712 35.99-127.25-.258 15.81 5.27 51.8 5.27 62.212-.13 12.34-.772 25.578 5.27 36.89 3.084 5.783 8.1 10.41 14.652 11.953 7.455 1.8 157.2-31.105 157.07-45.887-.387-38.43 9.382-75.834 15.166-113.624a451.342 451.342 0 0 0 24.936 41.645c-1.285 5.785 33.29-4.883 32.39-10.41-3.082-17.74-8.735-34.963-15.55-51.672z"/><path id="Path_191" data-name="Path 191" class="cls-3" d="M330.56 7821.8a11.288 11.288 0 0 0-13.24-5.014c-2.314-2.314-5.784-2.956-8.355.257-.13.13-.13.257-.257.257a5.038 5.038 0 0 0-3.856 3.213c-1.157 2.7-2.442 5.4-3.6 8.1a6.645 6.645 0 0 0-.386 5.14 48.83 48.83 0 0 0 2.828 28.92c2.057 4.885 8.612 6.556 11.7 1.543a9.594 9.594 0 0 0 4.242-2.185c3.856-3.6 4.627-9.768 5.27-14.652a29.24 29.24 0 0 1 1.285-7.455c.9-2.314 2.957-3.728 4.37-5.784a12.76 12.76 0 0 0 0-12.34z"/><path id="Path_192" data-name="Path 192" class="cls-3" d="M518.99 7438.257c-.642-3.213-3.6-5.27-6.683-5.656-.257-1.027-.514-2.056-.77-2.955-1.158-3.47-5.27-4.756-8.74-4.113a12.516 12.516 0 0 0-3.086-.257v-.13c2.83-9.51-11.31-14.78-14.523-5.27a8.18 8.18 0 0 0-.257.9c-4.242-1.413-9.9.515-10.668 6.3-1.67 12.6-5.14 41.26-6.684 53.857-6.17.77-12.34 2.057-12.34 2.057l.387.77c9 15.81 35.86 22.622 50.77 12.725 1.672-.9 5.914-5.784 5.914-5.784a19.033 19.033 0 0 0-3.47-2.056c2.184-13.11 7.71-41 8.482-45.758.384-3.22 3.597-3.22 1.67-4.63z"/><path id="Path_193" data-name="Path 193" class="cls-1" d="M541.613 7354.833c-6.3-7.97-14.653-10.026-24.165-11.568-11.31-1.928-19.665-10.926-30.976-13.625-7.97-1.8-19.666-.257-19.537 10.54a11.15 11.15 0 0 0 .643 3.6c-.386 0-.77-.13-1.028-.13-1.542 1.8-4.627 2.572-6.3 4.628a17.255 17.255 0 0 0-3.728 10.54c-.13 5.27 2.314 9.64 4.113 14.4 1.157 3.213 1.8 6.427 3.342 9.383a13.538 13.538 0 0 0-3.856 1.93 4.466 4.466 0 0 0-1.8 4.883l-.128.13c-2.314 3.47-1.028 37.917-.257 32.775.13-.77 5.4 18.895 5.013 12.34-.9-15.168-6.04-29.307 1.67-33.163 3.343-1.67 8.484 3.6 11.312.386 6.04-6.554 17.61-15.423 19.794-15.81 13.368-2.44 27.763-3.855 40.36 2.315 5.013 2.442 9.9-.257 10.41-5.27a5.87 5.87 0 0 0 .644-1.8c2.184-9.517.516-18.9-5.525-26.482z"/><path id="Path_194" data-name="Path 194" class="cls-6" d="M525.547 7557.534c-.514-4.756-.77-6.3-.77-6.3s-9 1.414-12.212 1.8a3.32 3.32 0 0 0-3.085 2.314c-2.314 7.84-4.884 15.68-7.583 23.393a34.865 34.865 0 0 0-13.625 3.343c-6.04 3.085-10.026 9.512-11.44 11.568-6.17 3.343-5.656 14.14 1.928 14.525l.386 46.144c0 7.2.9 14.138 9.126 16.2 3.728.9 24.936 5.526 27.763-6.042 2.7-10.925 6.684-46.787 7.326-53.6 4.243-.9 8.227-4.884 6.428-9.64-3.856-10.41-10.026-20.18-21.337-22.108 2.315-6.684 4.5-13.24 6.428-20.05 3.728-.39 7.198-1.546 10.67-1.546z"/><path id="Path_195" data-name="Path 195" class="cls-3" d="M593.155 7659.33c-9-3.6-60.925-29.048-66.58-31.233a92.564 92.564 0 0 0-20.18-16.58c-7.842-4.628-18.253-10.412-25.065-.9-5.527 7.71-2.442 16.837 2.828 23.778.514 3.085 17.1 12.468 23.65 13.11 1.285.644 2.442 1.415 3.727 2.186 7.712 5.142 51.928 45.76 70.05 52.057 10.8 3.728 42.16 11.825 42.417-10.668 0-16.71-17.48-26.35-30.847-31.75z"/></g></svg>