<svg xmlns="http://www.w3.org/2000/svg" viewBox="303 8678.535 485.07 924.684"><defs><style>.cls-1 { fill: #efbc90; } .cls-2 { fill: #f5bc8e; } .cls-3 { fill: #422d1e; } .cls-4 { fill: #f5dfce; } .cls-5 { fill: #442d1d; } .cls-6 { fill: #b85d3f; } .cls-7 { fill: #f7a354; } .cls-8 { fill: #f3dfce; } .cls-9 { fill: #92b3c8; } .cls-10 { fill: #d9c5b6; } .cls-11 { fill: #a5c3d6; }</style></defs><g id="Group_194" data-name="Group 194"><path id="Path_257" data-name="Path 257" class="cls-1" d="M747.795 9018.452c-.252-.38.63 41.538.38 41.16a6.16 6.16 0 0 1-.38-.885c1.263-5.934-.252-11.994-6.186-15.4-6.945-4.04-14.773-1.263-19.065 4.924-.253.254-.38.632-.63.885a15.78 15.78 0 0 0-5.177 2.778 14.334 14.334 0 0 0-22.22 1.894 51.133 51.133 0 0 0-2.9 4.293c-.885-7.575-9.85-12.752-17.3-11.615a21.96 21.96 0 0 0-1.39-2.273l.38-3.03c1.767-15.4-24.62-19.064-27.272-3.66-8.46 50.248-46.21 138.88-52.522 164.51-9.848 40.022 39.518 141.026 52.143 209.2-.126 4.923 19.317 1.388 19.317-1.01.38-4.546-19.317-163.754-26.892-186.48 3.41-4.04 43.684-62.874 53.91-77.52l1.895-2.65c7.2 79.792 37.624 296.824 41.917 325.737 1.01 6.69 0 6.186 6.06 5.3 6.69-1.01 12.247-1.516 12.247-8.46 0-9.09 7.955-235.97 8.84-334.828.248-23.86 2.268-93.426-15.155-112.87z"/><path id="Path_258" data-name="Path 258" class="cls-2" d="M618.257 8995.98a76.9 76.9 0 0 1-10.227-5.05c-1.136-1.516-2.273-3.157-3.283-4.8a3.035 3.035 0 0 0 .253-1.895 4.02 4.02 0 0 0 1.768-4.67 1.745 1.745 0 0 0 .505.378c3.66 3.156 9.09-2.146 5.3-5.3-.758-.63-1.515-1.39-2.4-2.02.884.38 1.768.884 2.65 1.263 3.662 1.768 7.83-2.778 4.546-5.934-5.556-5.555-2.274-3.283-8.08-8.585-10.1-3.788-20.454-10.858-22.853-19.7 3.03-5.05 5.68-10.605 4.42-16.666-1.01-4.923-4.8-9.468-9.975-10.226-13.257-1.768-13.257 26.135-13.13 26.514-1.136 9.6 18.18 43.937 20.074 46.714 7.2 10.48 16.666 19.7 30.3 17.55 4.17-.882 3.16-6.437.13-7.573z"/><path id="Path_259" data-name="Path 259" class="cls-2" d="M368.398 9304.166c-.253-2.65 20.075-73.48 20.075-73.607-1.64-12.88-2.273 51.258 2.9 61.106a16.67 16.67 0 0 1 11.615 5.05c6.44-2.4 9.974-8.333 10.48.63 4.923 88-.76 165.395-6.82 272.838-.757 13-20.957 10.984-22.472-1.768-8.96-75.12-14.64-251.624-15.778-264.25z"/><path id="Path_260" data-name="Path 260" class="cls-3" d="M409.052 9578.897c.505 4.8 3.156 19.948-1.768 22.473-2.273 1.136-8.46 2.146-14.52 1.768-13.13-.884-29.164-6.06-29.416-13.762-.253-9.343 7.7-12.373 20.706-18.938 3.283-1.64 23.483.63 23.483.63l1.515 7.83z"/><path id="Path_261" data-name="Path 261" class="cls-2" d="M476.22 9239.777c0-2.65-25.755-71.713-25.755-71.713.63-13 6.313 50.88 1.894 61.107a16.722 16.722 0 0 0-11.11 5.935c-6.693-1.894-10.606-7.575-10.354 1.39 2.02 88.125 13.636 164.76 27.9 271.573 1.768 12.878 21.716 9.343 22.22-3.41 3.033-75.755-5.048-252.255-4.795-264.88z"/><path id="Path_262" data-name="Path 262" class="cls-4" d="M495.41 9067.312c-10.983-16.918-4.04-9.848-12.12-10.353a14.393 14.393 0 0 0-13.635-6.187c-7.07 1.01-77.773-25.5-80.93-26.387-6.564-1.768-7.448 35.35-11.74 41.664-25.756 36.992-29.923 139.764-38.635 196.073-4.293 27.776-10.732 111.736-12.373 140.017-.758 13.51-3.156 29.544 8.838 39.013 9.6 7.45 24.367 9.722 35.983 12.373 6.692 1.515 13.51 2.778 20.2 3.914 7.2 1.136 14.9 2.525 21.716-1.263 13.383-7.575 11.363-26.892 12.5-40.15l1.39-15.907c7.448 1.39 17.927 3.41 25.5 3.788 12.372.63 45.956-1.39 55.046-11.49 7.828-8.584-2.146-71.207-2.4-100.245-.627-56.058 10.862-185.722-9.34-224.86z"/><path id="Path_263" data-name="Path 263" class="cls-2" d="M366.758 8954.82a13.26 13.26 0 0 0-11.742 2.4c-.505-.126-.884-.126-1.39-.252-12.877-1.515-7.448-29.04-12.877-19.7-5.3 9.09-22.348 59.087-26.515 68.683-7.2 17.172-21.463 48.23.505 60.477 22.347 12.5 30.806-24.746 38.13-40.4 9.09-19.57 18.432-40.78 20.705-62.244.632-5.807-1.388-7.574-6.817-8.963z"/><path id="Path_264" data-name="Path 264" class="cls-2" d="M523.44 8904.318c-7.576-12.625-17.677 38.76-18.56 50.25a10.564 10.564 0 0 0-3.66 1.64c-8.46 6.565-13.258-4.67-9.975 3.283 9.343 22.727 25.25 79.668 34.09 96.207 6.817 12.625 30.553 5.43 31.058-7.7 1.514-34.847-14.9-113.757-32.954-143.68z"/><path id="Path_265" data-name="Path 265" class="cls-1" d="M538.59 8959.618c-1.768-15.782-5.555-35.6-11.994-50.123-5.555-12.5-28.28-27.27-41.16-33.71-11.867-5.934-9.973-5.934-23.1-5.176a63.35 63.35 0 0 0-15.276 2.524 11.867 11.867 0 0 0-6.944.126c-.758.253-1.39.505-2.02.758a14.99 14.99 0 0 0-11.868-2.273c-44.573 9.342-81.565 44.315-94.32 87.873-2.02 6.818 2.4 15.656 9.723 17.044l24.116 3.788c.758.126 5.555 1.768 6.313 1.768 1.893 22.978 1.893 51.764 5.05 83.58.63 6.188 32.7 7.7 58.2 7.576 13.13 0 47.723-2.273 60.35-6.313-3.915 5.05 6.69-60.1 5.554-90.02-.505-14.266 20.706-2.777 27.4-4.292 5.052-.884 10.607-7.323 9.976-13.13z"/><path id="Path_266" data-name="Path 266" class="cls-2" d="M705.752 8711.148c-9.47-8.333-22.473-6.44-34.34-.253-2.147.758-16.414 12.12-18.182 14.14-3.283 3.79-6.69 32.827-.758 53.154 2.778 9.6 4.42 22.472 12.12 26.89 10.1 5.81 29.165 3.79 33.33.632a24.558 24.558 0 0 0 5.682-5.176c4.293-4.545 15.15-39.392 15.53-51.764.38-13.635-2.524-28.286-13.382-37.624z"/><path id="Path_267" data-name="Path 267" class="cls-3" d="M474.074 9501.755c-14.267-4.67-19.822 6.06-20.453 13-.883 8.964 2.147 18.938 3.662 27.65 1.39 7.828 3.03 20.958 11.868 23.988 9.848 3.41 14.52-7.2 15.656-14.772 1.39-10.095 7.07-44.057-10.732-49.865z"/><path id="Path_268" data-name="Path 268" class="cls-2" d="M712.064 8767.457c-1.894-8.46-34.846 12.247-34.468 15.4 1.515 13.888 12.752 50.754 13.51 52.522 2.65 6.817 33.835-.885 32.447-8.84-3.408-19.818-7.322-39.513-11.49-59.083z"/><path id="Path_269" data-name="Path 269" class="cls-5" d="M506.017 8888.283s-.758 3.914-.758 4.545c-1.39 21.842-4.04 43.432-6.82 65.147-4.544 34.34-26.008 81.687-60.1 79.54-30.426-2.02-57.824-41.663-60.223-62.874-2.778-26.134-1.768-52.647-.126-79.034 0-.63.127-1.894.127-1.894l-9.09 7.45v.883c-.884 24.115-.505 48.356.38 72.47.125 2.146 6.438 70.955 7.574 91.535 9.218 7.575 32.827 8.08 58.2 7.575 20.833-.38 45.83-2.02 60.35-6.313.76-7.828 7.7-66.158 8.46-73.354.126-.884 7.828-67.8 9.974-97.595 0-.63.126-1.64.126-1.64z"/><path id="Path_270" data-name="Path 270" class="cls-6" d="M666.108 9152.787a8.868 8.868 0 0 0-4.42-.758 8.817 8.817 0 0 0-4.04-3.03 7.9 7.9 0 0 0-6.06-4.546 8.375 8.375 0 0 0-7.2-5.43 10.1 10.1 0 0 0-5.428-5.933c1.136-6.438 2.146-13 2.778-19.568.884-8.585-11.237-10.48-15.277-4.166-9.468 14.9-26.765 57.193-22.472 61.74 11.615 12.624 27.776 24.87 44.568 29.164 9.722 2.525 14.772-6.69 19.19-13.635a124.425 124.425 0 0 0 12.88-26.766c2.905-8.08-10.225-14.143-14.518-7.073z"/><path id="Path_271" data-name="Path 271" class="cls-6" d="M742.113 9221.47a77.308 77.308 0 0 1-18.686-3.283c-1.39-.5-2.778-.884-4.166-1.515-.252-.126-2.145-.884-2.777-1.136a28.4 28.4 0 0 1-.63-2.778 46.35 46.35 0 0 1-.38-5.808 8.164 8.164 0 0 0-.505-2.525c0-1.39-.126-2.65-.126-4.04-.758-10.48-17.3-20.074-17.3-19.948 0 1.263-3.03 53.28 5.68 54.668 13 2.02 25.883 4.04 39.014 2.778 10.23-.884 10.482-15.908-.123-16.413z"/><path id="Path_272" data-name="Path 272" class="cls-7" d="M514.223 8847.756c-1.39-13.383-3.66-26.766-5.808-40.023-1.768-11.237-3.914-22.6-6.818-33.71-12.373-45.83-35.856-44.19-40.4-44.947-29.67-5.172-52.523 14.52-61.866 41.412-3.913 11.237-4.8 23.736-5.175 35.478-.253 5.43-.253 10.858-.505 16.287-.126 2.525-.253 5.05-.505 7.575a24.518 24.518 0 0 0-.253 3.03 11.255 11.255 0 0 1-.252 1.39c-2.778 12.5-6.818 24.62-7.828 37.5-.758 8.458 1.768 17.8 8.08 23.86 6.818 6.44 15.15 8.208 24.115 8.965 10.605 1.01 21.085-1.64 31.69-1.64a24.328 24.328 0 0 1 3.03.125 3.9 3.9 0 0 1 1.01.253 4.464 4.464 0 0 0 .758.127 15.936 15.936 0 0 1 2.02.884c5.43 2.78 10.984 5.682 16.918 6.692 18.054 3.03 35.1-5.934 39.9-24.24 3.28-12.376 3.152-26.268 1.89-39.016z"/><path id="Path_273" data-name="Path 273" class="cls-8" d="M753.476 8854.826c-2.65-17.8-27.145-43.432-56.562-23.483-14.14 9.6-30.3 26.387-37.245 36.11-11.238 15.655-24.873 48.733-35.6 64.64-6.188 9.09-15.53 20.2-19.823 31.817-1.515 2.146-16.034 22.726 4.166 38.13 10.353 7.953 28.03-6.44 36.866-13.89-5.05 13.89-6.566 29.923-8.334 43.938-.758 5.68-10.1 56.562-13.13 65.148-2.9 7.954-13.636 27.776 5.934 47.472 14.267 14.267 69.314 69.566 85.98 81.056 13.888 9.6 35.6 18.686 48.1 3.03 14.014-17.423 13.762-40.907 15.024-50.376 5.045-37.372-16.92-266.525-25.378-323.592z"/><path id="Path_274" data-name="Path 274" class="cls-3" d="M782.266 8800.284c-.884-16.034-13.13-26.64-23.736-36.993-5.05-5.05-9.09-9.973-10.732-17.043-1.894-8.333-2.02-16.792-5.555-24.746a42.347 42.347 0 0 0-7.2-10.983c2.273-6.187 4.672-10.985 2.523-18.05-4.29-14.65-24.49-19.322-33.582-6.318a20.18 20.18 0 0 0-3.66 8.71c-16.288-.252-32.322 8.334-42.3 21.086a29 29 0 0 0-4.672 8.08c-6.06 16.666 19.57 22.6 30.427 27.27 5.68 2.526 10.1 5.556 12.12 11.616 2.65 7.575 1.767 15.908 1.893 23.736.38 16.54 5.555 31.06 19.19 41.16 11.49 8.584 27.4 11.74 41.034 6.312 14.02-5.554 25.13-18.307 24.25-33.836z"/><path id="Path_275" data-name="Path 275" class="cls-3" d="M670.4 9421.706c-.758-5.68-.126-14.52-7.575-14.9-3.914-.253-7.7 1.263-11.11 3.283a4.123 4.123 0 0 0-6.06-1.01c-7.954 6.438-16.413 12.5-23.736 19.568-3.79 3.66-9.6 11.49-6.06 17.044s14.266 2.525 19.19 1.263c9.343-2.525 19.822-5.05 28.66-8.964 7.448-3.402 7.574-8.957 6.69-16.284z"/><path id="Path_276" data-name="Path 276" class="cls-3" d="M759.03 9480.292c-.125-4.672-.757-11.616-6.564-13-3.66-.884-8.08 1.263-12.12 3.788-1.136-2.146-3.914-3.41-5.808-1.01-4.545 5.682-10.984 9.47-17.8 13-4.04 2.146-8.08 7.323-5.3 11.994 2.9 5.05 13.13 3.914 17.8 3.914 4.924 0 21.968.505 24.872-1.262 5.173-3.157 5.047-12.37 4.92-17.424z"/><path id="Path_277" data-name="Path 277" class="cls-9" d="M766.86 8950.78c-16.288-20.58-37.5-38-58.962-52.9-.38-.252-.63-.38-1.01-.63-.126-4.04-.505-7.955-1.01-11.995-2.273-16.034-8.08-31.942-18.56-44.315-.38-.505-1.136-1.39-1.136-1.39l-10.227 9.47a11.66 11.66 0 0 1 1.01 1.136c23.61 27.65 15.782 69.314 9.974 102.645-4.04 22.853-6.566 46.21-6.187 69.315a53.153 53.153 0 0 1-6.06 1.515 48.016 48.016 0 0 1-31.06-4.293 52.267 52.267 0 0 0-4.923-1.768l-2.02 13.76 1.263.632a63.746 63.746 0 0 0 43.432 4.42 248.778 248.778 0 0 0 4.293 31.942c4.42 20.832 12.12 41.033 23.61 58.96a6.652 6.652 0 0 0 3.66 2.9 18.9 18.9 0 0 0 9.85 4.04c9.468 1.01 16.412-3.787 21.59-10.478 5.933-3.788 10.73-10.605 14.14-16.034 5.555-8.964 9.47-19.19 13.51-28.912 8.837-21.463 15.907-44.063 16.033-67.42a97.813 97.813 0 0 0-21.21-60.6z"/><path id="Path_278" data-name="Path 278" class="cls-10" d="M478.115 9173.998c-11.868 6.692-28.03 7.954-35.73 20.58-4.545 7.45-4.67 16.666-5.68 25-1.137 10.227-2.274 20.58-3.284 30.806q-6.25 61.547-10.734 123.475c-.38 4.8 7.2 4.292 7.575-.506q4.167-58.33 10.1-116.407c1.01-9.47 1.895-18.938 3.03-28.407.885-8.46 1.01-17.676 3.662-25.756 4.8-14.52 23.61-15.908 35.35-22.473 4.172-2.525-.116-8.71-4.287-6.312z"/><path id="Path_279" data-name="Path 279" class="cls-11" d="M769.005 9071.732a41.473 41.473 0 0 1-23.23-10.48c.757-1.64 1.388-3.282 2.02-5.05 1.64-4.544-5.682-6.564-7.324-2.02a4.483 4.483 0 0 1-.504 1.137c-7.323-8.713-12.247-19.7-14.772-30.555-6.186-26.64-3.03-55.678-2.778-82.7 0-4.924-7.575-4.924-7.575 0-.125 16.287-.63 32.574-.504 48.987.126 14.9 1.136 30.175 5.934 44.442a71.32 71.32 0 0 0 16.413 27.4c-1.39 2.65-2.9 5.3-4.545 7.828a5.833 5.833 0 0 0-.884.884c0 .126-.126.126-.126.253-1.01 1.514-.38 3.282.63 4.544l.127.126c1.64 2.02 4.67 1.01 5.934-.758 1.64-2.525 3.155-5.05 4.544-7.7a51.558 51.558 0 0 0 26.513 11.11c4.926.63 4.926-6.945.128-7.45z"/></g></svg>