<svg xmlns="http://www.w3.org/2000/svg" viewBox="291 11420 768.417 925.461"><defs><style>.cls-1 { fill: #f5bc8e; } .cls-2 { fill: #566688; } .cls-3 { fill: #f3dfce; } .cls-4 { fill: #442d1d; } .cls-5 { fill: #f5dfce; } .cls-6 { fill: #f7a354; } .cls-7 { fill: #dca9b7; }</style></defs><g id="Group_188" data-name="Group 188"><path id="Path_280" data-name="Path 280" class="cls-1" d="M804.107 12123.254c-.644-15.7-1.158-31.408-1.8-47.112a6.462 6.462 0 0 0-.257-1.545c0-7.852 0-15.575.257-23.427.13-6.694-7.852-8.624-11.328-4.763a6.142 6.142 0 0 0-6.308 5.664c-.257 2.576-.515 5.02-.772 7.596a5.148 5.148 0 0 0-2.317 1.287c-3.862 3.476-3.09 8.5-2.96 13.258 0 5.794.257 11.586.514 17.38.644 12.228 1.93 24.328 3.733 36.428.642 3.474 21.366-2.45 21.237-4.764z"/><path id="Path_281" data-name="Path 281" class="cls-2" d="M802.44 12083.478v-.13c-.13-1.672 12.743-133.613 17.89-171.457 1.288-9.4 10.04-58.182-11.455-67.45-56.9-24.715-115.98-32.31-174.42-24.07-2.316-1.8 69.64 90.233 57.8 70.153a498.653 498.653 0 0 1 82 1.8c.13.258.387.515.516.772-11.455 29.992-9.91 63.2-8.108 94.61a873.358 873.358 0 0 0 12.477 103.497c.253.643 24.2-7.338 23.3-7.724z"/><path id="Path_282" data-name="Path 282" class="cls-3" d="M780.55 12116.174c.13.515-2.573 12.615 2.19 16.863.643 4.12 46.34 17.635 48.785 16.22.386 0 10.427-.645 5.02-9.655-6.95-11.456-31.794-30.893-32.7-31.28v-.13z"/><path id="Path_283" data-name="Path 283" class="cls-4" d="M646.68 12148.613c-29.22-15.833-63.2-19.566-95.9-18.922-41.707.773-83.542 6.566-124.99 10.556-9.012.9-9.14 15.06 0 14.16 33.853-3.347 67.707-7.208 101.69-9.526 29.864-2.06 60.5-2.188 89.462 6.565 13.645 4.12 29.735 10.555 39.647 20.982 4.504 4.763 6.564 10.684 1.93 16.09-5.02 5.92-13 6.95-20.21 6.436-8.752-.644-17.505-3.476-26-5.278-8.88-1.93-17.763-3.476-26.773-4.89-16.863-2.7-33.854-4.506-50.974-5.536a534.48 534.48 0 0 0-59.212-.258c-19.18 1.03-42.992 6.95-61.657 1.03-8.753-2.7-9.01 10.426-.386 13.13 18.28 5.792 37.2 1.416 55.866.257a517.884 517.884 0 0 1 119.97 6.306c8.88 1.545 17.763 3.347 26.645 5.278 9.654 2.188 19.566 4.89 29.477 4.248 14.16-1.03 29.735-10.684 30.25-26.388.384-16.735-15.963-27.29-28.836-34.24z"/><path id="Path_284" data-name="Path 284" class="cls-4" d="M936.82 11991.056c-53.162-4.12-105.553 9.268-154.08 30.12-24.072 10.3-47.37 22.4-70.284 35.142-11.2 6.307-22.4 12.615-32.953 20.08-10.94 7.596-21.368 15.834-32.824 22.785a198.977 198.977 0 0 1-50.2 21.5c16.475-75.174 29.734-153.05 12.356-229.255-2.06-8.882-15.7-5.15-13.645 3.733 17.38 76.076 2.575 154.21-13.9 229-4.247.773-17.377 2.575-21.624 3.09-8.882 1.03-.13 14.16 8.882 13.13a220.067 220.067 0 0 0 69.64-20.338c23.17-11.328 42.477-28.577 64.618-41.706 45.053-26.9 93.453-51.36 144.427-64.49 29.35-7.466 59.47-10.813 89.59-8.5 9.137.645 9.008-13.518-.003-14.29z"/><path id="Path_285" data-name="Path 285" class="cls-4" d="M709.367 12137.413c-10.3-7.852-24.2-8.625-36.042-3.99a54.45 54.45 0 0 0-20.467 14.674c-12.1 11.07-18.407 28.705-19.437 44.667-1.544 23.427 13.13 41.577 36.944 43.38 10.427.77 21.368-1.8 29.735-8.368 9.138-7.08 14.545-19.18 18.92-29.606 8.11-19.952 9.27-46.21-9.653-60.757zm.772 46.984c-2.833 10.427-8.368 23.427-15.834 31.28-7.08 7.466-18.922 9.14-28.576 6.95-10.555-2.316-17.635-9.525-19.308-20.337-1.8-11.714 1.287-25.745 8.238-36.428a6.748 6.748 0 0 0 1.287-1.416 47.364 47.364 0 0 1 3.862-5.02c3.217-3.347 10.683-10.17 14.416-12.357a30.8 30.8 0 0 1 7.466-2.833c10.555-2.574 20.724 1.287 26.13 10.942 5.15 9.005 5.02 19.434 2.317 29.217z"/><path id="Path_286" data-name="Path 286" class="cls-4" d="M541.256 11919.486c-48.786 70.54-85.987 148.16-122.8 225.264-3.862 8.238 8.238 15.318 12.23 7.208 36.814-77.234 74.014-154.724 122.8-225.393 5.147-7.465-7.08-14.545-12.23-7.08z"/><path id="Path_287" data-name="Path 287" class="cls-1" d="M657.75 12157.75c-.772-5.405-9.268-8.5-11.97-2.445l-.773 1.93a5.928 5.928 0 0 0-2.96 2.06 5.257 5.257 0 0 0-5.28 3.22c-.643 1.286.773-11.2.13-9.913-1.287.386-10.427 40.42-12.23 48.013-.77 3.347 22.656 19.308 24.2 12.744 6.05-25.617 3.22-25.617 9.27-51.233a6.967 6.967 0 0 0-.387-4.376z"/><path id="Path_288" data-name="Path 288" class="cls-2" d="M634.45 11820.24c-2.316-1.8-4.633-3.6-7.08-5.277a14.315 14.315 0 0 0-12.1-2.188c-9.267-4.12-19.95 2.06-23.3 10.813a15.87 15.87 0 0 0-9.4 3.6 19.14 19.14 0 0 0-6.945 15.196c-3.99 5.406-4.248 12.872-1.16 19.308 12.487 25.873 32.44 47.112 52.777 66.936 14.674 14.288 30.25 28.705 43.122 44.023l11.843 15.834c.386.386.644.9 1.03 1.287-6.822 8.883-10.94 20.082-14.674 30.766-7.08 20.724-29.09 105.94-36.428 145.328-3.476 3.476 29.477 10.684 28.963 7.852 11.97-41.835 17.764-51.1 35.14-91.007q14.482-33.21 31.28-65.263c23.17-44.023-23.555-106.968-35.4-126.92 27.547-1.677.902-78.524-57.667-70.286z"/><path id="Path_289" data-name="Path 289" class="cls-3" d="M627.114 12186.328c-3.475 3.476-9.01 16.734-6.565 21.625-.258 3.6 43.12 53.034 50.844 44.41 7.852-8.883-14.8-55.352-15.318-58.184l-28.962-7.852z"/><path id="Path_290" data-name="Path 290" class="cls-1" d="M870.786 11710.438c-1.03 0-30.765 2.317-34.5 4.89a6.356 6.356 0 0 0-2.317 2.575.126.126 0 0 0-.13.13 6.76 6.76 0 0 0-2.96 4.118l-.387 1.16a7.25 7.25 0 0 0 .386 4.376c-.773 3.218.514 6.95 4.376 7.723 2.96.643-1.8-5.922 1.158-6.18 8.5 4.505 23.556 5.15 31.022 2.832a59.516 59.516 0 0 0 7.466-2.7c.644 6.822 11.328 9.268 12.486 1.673 1.548-10.812-5.017-20.98-16.602-20.597z"/><path id="Path_291" data-name="Path 291" class="cls-5" d="M687.743 11636.94c-.9-10.04-7.98-18.665-18.665-18.665-9.4 0-19.566 8.624-18.665 18.665.644 6.95 1.03 13.773 1.287 20.6-5.92 3.09-9.525 9.525-10.3 16.605-2.06 18.793-3.99 37.716-6.05 56.51-3.347 20.208-8.5 40.16-16.605 58.954-2.317 5.405-3.218 10.94-1.287 16.09-.644.77-1.16 1.544-1.8 2.316a13 13 0 0 0-2.317 5.278c-3.732 1.93-7.594 3.733-11.455 5.406-9.268 3.99-11.328 17.635-6.694 25.487 5.536 9.525 16.22 10.684 25.488 6.694 10.17-4.376 32.824-4.633 41.964-29.09a418.73 418.73 0 0 0 25.1-184.85z"/><path id="Path_292" data-name="Path 292" class="cls-1" d="M671.78 11485.433c-4.762-4.12-11.97-5.15-16.347.9-.772 1.16-1.545 2.188-2.317 3.347h-1.16a13.613 13.613 0 0 0-7.08 1.93 14.468 14.468 0 0 0-5.79 4.12l-2.7 3.862a18.757 18.757 0 0 0-2.06 9.525c.257 1.673.643 3.218.9 4.89a21.47 21.47 0 0 0 1.03 2.575c-1.932 4.634-3.863 9.268-5.665 14.03a217.912 217.912 0 0 0-7.594 20.6c-1.93 6.308 3.218 13.26 9.268 14.547a11.42 11.42 0 0 0 8.11-1.03 12.364 12.364 0 0 0 4.118 3.217 12.847 12.847 0 0 0 3.475 2.832 14.32 14.32 0 0 0 19.823-6.18c3.476-6.822 4.505-15.7 6.565-23.04 3.862-14.675 9.268-29.607 10.04-44.925.387-7.34-6.178-11.46-12.614-11.202z"/><path id="Path_293" data-name="Path 293" class="cls-1" d="M723.656 11452.485c-7.466-25.487-45.7-47.112-62.044-17.506a36.9 36.9 0 0 0-3.862 11.705 17.272 17.272 0 0 0-4.763 8.624c-3.347 14.03-1.93 30.25 1.8 44.022 3.218 12.1 10.427 23.427 21.368 29.477 11.07 6.05 25.873 5.92 35.656-2.575 19.056-16.6 18.41-50.97 11.846-73.75z"/><path id="Path_294" data-name="Path 294" class="cls-6" d="M711.427 11431.113c-14.288-13.26-36.17-13.774-54.45-6.18-15.06 6.307-20.982 15.962-29.864 28.32-4.248 5.92-10.04 17.763-37.33 27.546a158.24 158.24 0 0 0-30.25 14.158c-16.09 9.01-30.765 21.24-39 38.1-9.525 19.695-9.268 43.122 3.862 60.757 7.98 14.417 24.457 24.586 41.964 23.17a69.193 69.193 0 0 0 41.448-18.15c9.654-8.753 48.4-50.974 63.33-92.165 2.318-6.307.516-21.625 10.556-30.893 5.664-5.278 24.843-12.872 30.12-14.932 18.664-7.206 9.137-20.85-.387-29.732z"/><path id="Path_295" data-name="Path 295" class="cls-7" d="M777.59 11693.192a182.63 182.63 0 0 1-26-6.436c-2.7-.9-5.534-1.93-8.108-3.09q-25.68-56.573-55.737-111.087c-11.2-18.28-36.042-22.27-50.2-18.923-33.082 10.427-49.687 36.3-60.5 55.866-22.784 41.062-80.323 171.716-81.1 172.746a35.652 35.652 0 0 0-2.188 2.96 109.72 109.72 0 0 1-12.1 12.357c-.386.257-2.7 2.06-3.09 2.317-1.544 1.03-3.088 2.06-4.762 2.96-3.476 2.19-7.08 4.12-10.555 6.437a82.47 82.47 0 0 0-19.308 17.25c-11.585 14.546-18.536 32.18-18.665 50.974-.13 19.308 6.95 37.587 15.447 54.578 13.773 27.29 30.507 60.113 58.57 75.174 10.04 5.406 21.238 7.723 32.437 4.248 9.784-2.96 17.507-9.912 24.072-17.378 26.9-30.25 49.944-76.46 55.994-93.967 5.793-16.864 11.2-33.726 16.22-50.846a1017.18 1017.18 0 0 0 35.784-193.34c4.505 6.95 9.01 13.772 13.516 20.723 12.615 19.18 24.33 40.42 41.835 55.737 2.833 2.574 19.438 7.208 36.687 8.238 14.546.9 29.22 1.03 43.894.9 10.685-.13 33.083-.9 42.737-1.16a4.9 4.9 0 0 0 4.763-4.633l2.06-23.17a4.824 4.824 0 0 0-3.99-5.28c-13.388-2.96-54.45-11.84-67.71-14.158z"/><path id="Path_296" data-name="Path 296" class="cls-4" d="M550.915 12079.23c-11.2-23.813-28.963-43.25-53.42-52.904-3.475-1.545-5.664-2.96-7.98-3.218-33.083-4.89-65.907-7.595-97.444 5.92-25.357 10.814-45.18 30.766-60.112 53.55-16.095 24.585-27.037 53.038-34.243 81.48-7.98 31.796-10.427 66.422 1.545 97.444 10.04 26.26 28.576 48.657 55.093 59.34 28.448 11.457 62.56 9.655 90.878-1.286 29.35-11.2 51.49-31.408 69.51-56.767 18.795-26.647 35.014-56.253 43.123-88.047 8.108-32.052 7.078-65.39-6.948-95.512zm-4.51 74.016c-4.12 28.963-16.477 56.252-31.537 80.967-14.8 24.328-31.794 47.756-56.9 62.3-23.3 13.387-51.36 19.308-78.135 15.19-26.9-4.25-48.142-19.953-60.757-44.024-13.258-25.1-14.8-54.45-10.04-82a267.048 267.048 0 0 1 26.646-78.908c12.615-23.942 30.12-46.34 54.192-59.6 28.062-15.447 61.014-14.16 91.908-10.04.386.13.9.386 1.287.515 48.918 13.394 69.77 69.13 63.335 115.6z"/><path id="Path_297" data-name="Path 297" class="cls-4" d="M1044.818 12068.547c-11.07-18.922-27.933-34.11-47.112-44.924-15.318-8.753-52.52-21.754-80.58-10.813-.644.257-1.287.644-1.93.9-42.994 20.338-76.977 58.57-96.285 102.077-13.13 29.735-20.337 62.044-22.783 94.482-2.317 30.892-3.347 65.647 12.23 93.452 13.644 24.457 40.547 38.874 67.836 41.32 31.022 2.832 61.014-9.01 85.987-26.774 48.657-34.755 82-90.363 93.066-148.8 6.306-33.6 7.336-70.543-10.428-100.92zm-2.188 81.224c-6.05 53.035-31.022 103.623-70.154 140.05-20.853 19.567-46.984 36.043-75.817 39.52-24.33 2.96-51.49-4.25-67.966-23.17-19.05-22.012-19.05-54.45-18.02-81.87 1.03-29.605 6.05-59.726 16.347-87.53 16.864-45.954 48.53-87.917 92.81-108 30.893-14.03 62.688 3.733 71.312 8.753 13.388 7.854 25.488 17.894 34.883 30.51 17.763 23.944 19.823 53.033 16.605 81.738z"/><path id="Path_298" data-name="Path 298" class="cls-4" d="M438.402 12155.82c-1.8-5.92-6.18-11.714-12.23-13.645a12.087 12.087 0 0 0-10.812 2.446 55.79 55.79 0 0 0-9.14 9.14c-4.118 5.278-7.718 11.586-7.718 18.537-.13 12.357 11.07 24.2 23.814 19.437 12.615-4.763 19.823-23.428 16.086-35.914zm-13.258 13.9c-1.287 3.347-5.02 11.714-10.04 10.17-4.377-1.417-4.248-7.853-3.09-11.2.773-2.318 5.02-9.912 8.5-12.23a3.886 3.886 0 0 1 3.477-.644 10.374 10.374 0 0 1 2.318 4.376c.77 3.094-.006 6.57-1.16 9.53z"/><path id="Path_299" data-name="Path 299" class="cls-4" d="M947.633 12166.89a25.023 25.023 0 0 0-12.743-16.09c-5.535-2.573-10.427-.9-14.932 2.19-11.843 6.435-18.02 21.624-14.546 34.625 3.218 11.97 16.605 20.467 28.577 15.576 12.87-5.406 16.217-24.072 13.643-36.3zm-12.486 10.04c-.386 5.536-1.673 15.32-9.268 14.675-6.18-.515-8.883-6.95-8.626-12.486a17.91 17.91 0 0 1 9.783-15.32 2.693 2.693 0 0 0 .772-.514c2.573-.772 4.633 1.416 6.05 3.862 1.802 3.09 1.544 6.436 1.287 9.783z"/><path id="Path_300" data-name="Path 300" class="cls-4" d="M953.554 12018.088c.515-27.933-3.733-54.063-10.427-81.1-3.862-15.7-7.852-31.408-11.714-47.112a7.86 7.86 0 0 0 2.574-1.16 36.84 36.84 0 0 0 5.535 4.506c3.476 2.188 7.337 1.287 9.912-1.8a26.554 26.554 0 0 0 5.92-15.19c1.16-6.564.644-14.03-1.672-19.307s-7.466-9.654-13.13-10.427c-6.822-1.545-12.357 4.12-15.318 10.17a20.53 20.53 0 0 0-1.287 2.96c-.386-1.8-.9-3.476-1.287-5.278-7.08-29.477-11.714-58.183-4.763-89.72.386-1.545.9-12.872 0-16.734a34.44 34.44 0 0 0-14.546-21.11c-6.95-4.634-15.06-6.18-23.3-6.565a149.672 149.672 0 0 0-16.99-.128 4.574 4.574 0 0 0-1.287-.257c-3.218-.257-6.565-.515-9.783-.772-7.98-.644-9.783 10.17-3.99 13.258 1.03 1.546 20.982 1.674 25.487 1.8 6.05.13 12.744 0 18.407 2.447a20.555 20.555 0 0 1 11.973 13.392c1.416 4.762-1.545 18.02-1.158 19.307-4.764 22.784-2.7 46.083 1.93 68.867 5.535 27.933 13.258 55.48 20.08 83.026 6.823 27.675 14.418 55.093 14.8 83.8.387 27.8-.77 56.51-4.375 84.056a408.426 408.426 0 0 1-8.882 46.34c-1.673 6.95-3.6 13.9-5.406 20.724-1.673 6.05 12.357 8.11 14.546.13 1.416-5.02 2.7-9.913 3.99-14.933 3.09-13 5.92-26 8.11-39.132 4.507-27.677 5.54-56.125 6.05-84.057z"/><path id="Path_301" data-name="Path 301" class="cls-1" d="M884.683 11718.937a.126.126 0 0 0-.13-.13 1.637 1.637 0 0 0-1.8-.9 1.7 1.7 0 0 0-1.544-.256c-.13-.128-.258-.385-.516-.514a1.963 1.963 0 0 0-2.574-.13 1.74 1.74 0 0 0-2.832.258 2.067 2.067 0 0 0-1.416.644c-.9-.772-1.8-1.545-2.7-2.188a111.993 111.993 0 0 0-3.99 2.574c-.515-.13-1.158-.386-1.673-.515h-.26c-.9-.645-1.8-1.546-2.83-2.447-1.8-1.673-4.506 1.03-2.7 2.7a22.548 22.548 0 0 0 5.92 4.505c3.862 3.09 6.822 6.822 10.427 10.427 2.06 2.06 5.02 3.6 7.852 2.188 5.663-2.572 5.273-12.612.763-16.216z"/><path id="Path_302" data-name="Path 302" class="cls-4" d="M643.205 12226.747a19.59 19.59 0 0 0-5.406-.773 48.85 48.85 0 0 0-15.7-1.03c-4.506.515-7.596 4.763-6.952 8.624a7.7 7.7 0 0 0 5.02 8.5c7.337 2.446 23.685 6.565 26.774-3.99a3.23 3.23 0 0 0 .515-.9c2.06-4.252.382-9.144-4.252-10.43z"/><path id="Path_303" data-name="Path 303" class="cls-4" d="M798.186 12139.73c-1.03-.643-2.188-1.286-3.218-1.8a6.91 6.91 0 0 0-2.832-1.672 40.592 40.592 0 0 0-15.7-1.93c-4.763.385-8.238 5.792-6.822 9.91-1.93 2.833-3.99 5.665-5.793 8.5a120.722 120.722 0 0 1-10.94 15.576c-7.337 8.367-18.15 15.7-29.735 13.258-8.882-1.93-12.743 11.714-3.733 13.645 15.962 3.476 31.15-3.733 42.092-15.318 5.92-6.308 10.555-13.646 15.19-20.983 1.286-2.06 3.217-4.505 5.02-7.08a14.03 14.03 0 0 0 3.346.386 26.312 26.312 0 0 0 9.525.644c6.82-.65 9.91-9.017 3.6-13.136z"/></g></svg>